<?xml version="1.0" standalone="no"?>
<!DOCTYPE svg PUBLIC "-//W3C//DTD SVG 20010904//EN"
 "http://www.w3.org/TR/2001/REC-SVG-20010904/DTD/svg10.dtd">
<svg version="1.0" xmlns="http://www.w3.org/2000/svg"
 width="199.000000pt" height="191.000000pt" viewBox="0 0 199.000000 191.000000"
 preserveAspectRatio="xMidYMid meet">

<g transform="translate(0.000000,191.000000) scale(0.100000,-0.100000)"
fill="#ffffff" stroke="none">
<path d="M349 1827 c-122 -46 -186 -127 -245 -312 -39 -121 -39 -238 -1 -377
67 -247 180 -446 367 -643 70 -74 194 -230 248 -311 13 -20 31 -34 43 -34 28
0 347 267 579 484 42 39 118 109 169 155 153 139 268 294 311 421 23 67 31
208 19 310 -5 42 -39 112 -53 111 -3 -1 -42 17 -86 39 -106 53 -212 95 -285
111 l-60 14 85 6 85 6 -95 -2 c-122 -4 -219 -20 -280 -46 -68 -29 -138 -107
-184 -203 l-37 -80 -29 52 c-71 130 -166 227 -270 275 -54 25 -80 31 -155 34
-59 2 -103 -1 -126 -10z m206 -7 c15 -7 8 -9 -30 -11 l-50 -2 65 -7 c36 -4 69
-5 74 -2 5 3 6 0 2 -6 -4 -7 -3 -12 3 -12 18 0 74 -62 172 -191 53 -68 99
-129 103 -136 6 -12 -13 -53 -25 -53 -3 0 -19 30 -34 66 -36 85 -114 170 -197
215 -60 32 -68 34 -163 34 -115 0 -169 -16 -242 -72 -63 -48 -64 -35 -1 21 64
57 119 91 190 116 29 11 43 19 32 20 -46 0 -168 -73 -241 -145 -40 -39 -73
-67 -73 -62 0 20 45 93 82 133 44 47 92 81 136 94 36 11 172 11 197 0z m152
-73 c67 -50 129 -123 180 -214 63 -113 29 -89 -89 64 -64 83 -129 160 -145
171 -15 12 -23 22 -17 22 7 0 38 -20 71 -43z m728 18 l50 -13 -60 -1 c-135 -2
-258 -56 -369 -161 -40 -39 -76 -70 -80 -70 -4 0 1 15 10 33 30 58 127 142
214 186 91 45 140 51 235 26z m-255 -22 c-30 -16 -83 -55 -119 -88 -56 -52
-62 -55 -45 -26 24 43 88 98 139 122 63 29 85 22 25 -8z m345 -17 c38 -12 37
-12 -40 -10 l-80 3 80 -9 c91 -10 126 -21 173 -56 17 -14 36 -23 41 -19 5 3
13 0 17 -6 5 -8 3 -9 -6 -4 -15 9 -12 4 31 -60 44 -66 64 -139 64 -240 0 -80
-3 -97 -32 -157 -17 -37 -47 -89 -65 -115 -18 -27 -33 -55 -33 -63 0 -8 -5
-15 -11 -15 -6 0 -52 -45 -101 -100 -50 -56 -100 -107 -111 -115 -57 -42 -211
-183 -207 -190 10 -16 -456 -410 -486 -410 -31 0 -22 12 49 64 118 88 432 339
428 343 -2 2 -55 -36 -117 -85 -63 -48 -165 -128 -227 -176 -133 -102 -99
-110 -266 59 -145 147 -252 314 -381 597 -75 163 -114 282 -128 388 -9 77 -9
93 8 136 10 27 26 60 35 74 9 14 16 31 14 38 -1 7 0 8 3 2 2 -5 24 6 47 24 77
64 128 80 246 81 92 0 111 -3 150 -24 105 -55 192 -156 220 -256 11 -40 11
-51 -3 -81 -22 -45 -21 -58 1 -19 l16 30 6 -35 5 -35 27 55 c81 164 135 223
268 290 67 34 176 69 220 71 20 1 21 2 6 6 -29 8 -142 -26 -221 -65 -54 -26
-66 -30 -52 -14 26 28 125 79 188 96 66 18 170 19 224 2z m270 -126 c14 -16
37 -91 31 -98 -3 -2 -12 12 -21 31 -9 19 -33 54 -53 78 l-37 43 33 -19 c18
-11 39 -27 47 -35z m-2 -69 c36 -65 50 -136 38 -186 l-9 -40 -1 33 c-2 70 -33
173 -67 223 -19 28 -34 54 -34 57 0 15 50 -44 73 -87z m-1696 -113 c-3 -7 -5
-2 -5 12 0 14 2 19 5 13 2 -7 2 -19 0 -25z m823 5 c-1 -5 -12 -28 -25 -53 -23
-42 -24 -43 -25 -17 0 16 8 39 18 52 17 24 32 32 32 18z m-833 -115 c-2 -18
-4 -4 -4 32 0 36 2 50 4 33 2 -18 2 -48 0 -65z m79 -185 c45 -121 120 -281
191 -406 31 -55 56 -108 56 -116 0 -9 5 -23 11 -32 6 -8 -6 3 -27 25 -53 57
-138 186 -186 283 -56 113 -51 119 7 8 44 -85 116 -198 162 -255 36 -45 21
-11 -18 40 -139 184 -247 440 -258 613 l-4 72 16 -70 c8 -38 31 -111 50 -162z
m514 -837 c0 5 20 -12 45 -36 43 -42 49 -60 19 -60 -8 0 -24 20 -36 45 -12 25
-25 40 -28 34 -4 -5 -26 16 -49 48 l-42 58 45 -48 c25 -27 46 -45 46 -41z"/>
<path d="M1585 1781 c69 -25 126 -62 164 -108 17 -20 31 -33 31 -27 0 37 -172
154 -225 154 -11 -1 3 -9 30 -19z"/>
<path d="M1840 1543 c0 -5 4 -13 9 -18 18 -20 35 -92 42 -180 l7 -90 -3 95
c-3 90 -25 183 -46 196 -5 3 -9 1 -9 -3z"/>
<path d="M1882 1230 c0 -14 2 -19 5 -12 2 6 2 18 0 25 -3 6 -5 1 -5 -13z"/>
<path d="M1860 1158 c-28 -97 -96 -207 -195 -316 -100 -111 -503 -440 -787
-642 -65 -46 -116 -85 -114 -88 5 -4 21 7 261 185 408 302 687 555 771 699 42
71 91 190 82 199 -3 3 -11 -14 -18 -37z"/>
</g>
</svg>
