<?xml version="1.0" standalone="no"?>
<!DOCTYPE svg PUBLIC "-//W3C//DTD SVG 20010904//EN"
 "http://www.w3.org/TR/2001/REC-SVG-20010904/DTD/svg10.dtd">
<svg version="1.0" xmlns="http://www.w3.org/2000/svg"
 width="800.000000pt" height="800.000000pt" viewBox="0 0 104.000000 136.000000"
 preserveAspectRatio="xMidYMid meet">

<g transform="translate(0.000000,136.000000) scale(0.100000,-0.100000)"
fill="#ffffff" stroke="none">
<path d="M590 1144 c-151 -52 -278 -100 -282 -107 -4 -7 -8 -149 -8 -316 l0
-303 -42 6 c-83 12 -171 -31 -207 -101 -41 -81 34 -191 143 -207 52 -8 87 -1
139 27 72 40 71 36 77 386 l5 314 175 59 c96 32 183 61 193 64 16 5 17 -8 17
-170 l0 -175 -54 6 c-172 18 -280 -151 -162 -255 69 -60 179 -69 254 -20 66
44 72 69 72 288 0 177 -1 191 -17 188 -16 -3 -19 -23 -23 -198 -3 -126 -9
-203 -17 -216 -18 -31 -81 -58 -134 -57 -142 2 -199 143 -86 214 31 19 74 21
177 7 l25 -3 3 214 c2 158 -1 217 -10 222 -6 4 -108 -26 -226 -67 -119 -41
-217 -74 -218 -74 -2 0 -5 -144 -6 -319 l-3 -319 -25 -27 c-91 -99 -270 -54
-270 67 0 82 103 138 200 109 20 -6 42 -11 49 -11 8 0 11 94 13 327 l3 326
262 88 263 87 2 -161 c3 -136 5 -162 18 -162 13 0 15 28 18 183 l2 182 -22 -1
c-13 0 -147 -43 -298 -95z"/>
</g>
</svg>
