<?xml version="1.0" standalone="no"?> 
<!DOCTYPE svg PUBLIC "-//W3C//DTD SVG 20010904//EN"
 "http://www.w3.org/TR/2001/REC-SVG-20010904/DTD/svg10.dtd">
<svg version="1.0" xmlns="http://www.w3.org/2000/svg"
 width="232.000000pt" height="360.000000pt" viewBox="0 0 232.000000 360.000000"
 preserveAspectRatio="xMidYMid meet">

<g transform="translate(0.000000,360.000000) scale(0.100000,-0.100000)"
fill="#836a40" stroke="none">
<path d="M1543 3343 c-22 -8 -14 -25 7 -18 17 5 20 2 20 -24 0 -16 -7 -36 -15
-45 -8 -8 -15 -18 -15 -23 0 -5 -15 -26 -32 -48 -18 -22 -25 -34 -15 -26 28
22 29 7 2 -19 -30 -28 -43 -20 -26 17 l11 28 -25 -28 c-19 -21 -25 -39 -25
-73 0 -51 -17 -64 -52 -40 -12 9 -32 16 -43 16 -13 1 -30 17 -47 46 -35 57
-84 79 -196 88 -95 7 -155 -5 -192 -39 -14 -12 -42 -28 -63 -35 -27 -8 -43
-22 -57 -48 l-20 -37 6 62 c8 82 -10 157 -45 184 -21 17 -36 20 -74 16 -73 -7
-130 -60 -106 -98 7 -11 12 -12 29 -1 46 28 97 0 85 -47 -9 -36 -10 -36 -44
-12 -51 37 -82 37 -155 0 -36 -19 -66 -39 -66 -47 0 -8 10 -5 30 9 33 25 47
21 31 -9 -6 -12 -11 -43 -11 -71 0 -41 -3 -49 -15 -45 -9 4 -22 18 -30 33 -8
14 -14 20 -15 14 0 -7 16 -30 35 -50 19 -20 35 -41 35 -45 0 -4 10 -13 23 -19
22 -12 22 -12 -2 14 -31 34 -23 62 13 46 19 -9 35 -8 72 5 58 20 55 20 47 -1
-11 -33 -56 -73 -82 -74 -18 -1 -20 -3 -8 -6 9 -2 15 -9 12 -14 -11 -17 -53
-9 -83 16 -16 13 -32 22 -36 18 -6 -6 -10 12 -7 31 3 17 -23 36 -51 36 -62 0
-84 33 -52 78 11 16 22 20 39 16 24 -6 43 10 25 21 -29 18 6 90 55 111 16 7
24 13 17 14 -41 1 -102 -60 -102 -104 0 -8 -14 -28 -31 -46 -25 -25 -30 -37
-27 -62 3 -18 -1 -48 -9 -67 -20 -47 -9 -79 32 -97 52 -21 91 -18 117 11 17
18 27 22 38 15 13 -9 11 -13 -9 -29 l-24 -18 23 -23 c19 -19 30 -21 64 -17 41
6 42 5 66 -38 31 -57 18 -78 -44 -69 -27 4 -36 2 -27 -4 9 -7 -1 -11 -35 -17
-105 -15 -176 -68 -190 -140 -9 -49 1 -78 47 -147 22 -32 45 -73 51 -91 15
-43 38 -85 38 -70 0 14 -58 137 -95 202 -42 75 -30 145 33 188 56 37 196 71
218 52 20 -17 17 -39 -5 -39 -30 0 -81 -48 -81 -76 0 -31 17 -30 55 3 l30 26
-37 -21 c-31 -18 -38 -19 -38 -6 0 27 48 66 77 62 31 -4 42 -24 16 -31 -15 -4
-15 -5 3 -6 11 0 29 -10 40 -22 18 -20 18 -21 1 -31 -106 -59 -178 -208 -176
-362 1 -47 -2 -90 -6 -96 -4 -6 -24 -22 -46 -36 -44 -28 -53 -66 -19 -84 17
-9 25 -6 45 14 14 14 25 30 25 36 0 5 4 10 8 10 8 0 6 -87 -4 -169 -5 -36 -14
-51 -55 -89 -39 -36 -49 -52 -47 -71 2 -18 10 -27 25 -29 26 -4 49 28 60 79 3
18 13 49 20 68 l14 34 20 -32 c19 -32 46 -40 67 -19 21 21 13 41 -35 90 -44
45 -48 53 -49 101 -6 304 -7 301 13 352 11 28 28 64 39 80 35 56 134 136 134
109 0 -3 -14 -22 -31 -43 -32 -40 -64 -127 -50 -136 5 -2 11 11 14 31 7 39 52
124 67 124 6 0 10 -4 10 -8 0 -13 39 -52 52 -52 6 0 -1 11 -16 25 -33 31 -36
99 -5 162 22 45 45 59 34 21 -5 -19 -4 -20 5 -6 6 9 26 30 46 46 l36 30 -46
-11 c-73 -17 -121 16 -81 56 8 8 12 17 9 20 -3 3 6 13 21 23 25 16 27 16 58
-6 26 -19 29 -20 17 -4 -8 10 -19 22 -24 25 -4 4 -3 16 3 28 l12 21 41 -21
c22 -11 49 -18 59 -16 13 4 28 -7 50 -34 34 -44 33 -45 -18 -24 -47 20 -54 19
-20 -3 15 -10 24 -22 20 -25 -10 -11 16 -8 37 3 16 9 21 6 26 -13 3 -14 4 -31
3 -38 -1 -8 5 -30 14 -49 10 -22 16 -28 17 -16 0 12 5 16 16 12 9 -3 18 -6 20
-6 2 0 4 -16 4 -35 0 -25 -8 -44 -25 -61 -34 -33 -50 -26 -50 22 -1 56 -13 84
-32 77 -11 -4 -14 -2 -9 5 4 7 -4 14 -21 17 -15 4 -38 11 -49 17 -22 10 -75
-9 -90 -33 -3 -6 5 -3 20 6 39 26 43 11 7 -30 -17 -20 -32 -42 -32 -50 -3 -28
-4 -33 -10 -39 -3 -4 -14 8 -22 26 -9 18 -17 26 -17 17 0 -9 16 -37 35 -62 52
-68 110 -75 173 -22 29 25 72 25 72 1 0 -17 -43 -56 -61 -56 -8 0 -23 -7 -33
-15 -28 -21 -85 -19 -131 5 -45 23 -45 23 -45 11 0 -5 9 -13 20 -16 26 -8 26
-25 -1 -25 -17 0 -20 -4 -15 -20 3 -11 9 -29 12 -40 5 -15 -1 -24 -25 -37 -40
-23 -35 -36 21 -45 55 -10 134 -52 154 -84 9 -13 18 -41 21 -62 4 -31 0 -44
-22 -70 l-27 -33 -73 7 c-69 6 -75 5 -98 -18 -50 -50 -45 -226 13 -444 39
-147 85 -254 170 -394 44 -72 70 -126 70 -144 0 -20 -13 -43 -41 -73 -22 -25
-50 -65 -61 -89 -19 -44 -19 -46 -1 -81 14 -26 41 -50 93 -82 71 -43 78 -45
150 -44 41 0 110 3 153 7 l77 8 0 -40 c0 -94 42 -155 145 -212 42 -23 74 -47
72 -53 -2 -7 -16 -18 -32 -26 -23 -11 -83 -12 -364 -3 -314 9 -381 15 -381 31
0 3 33 24 73 46 78 44 124 94 152 169 10 25 14 53 10 63 -5 14 -16 -2 -46 -64
-43 -90 -71 -117 -161 -157 -63 -28 -72 -37 -63 -66 4 -13 25 -25 63 -37 49
-15 101 -18 372 -18 287 0 319 2 357 19 70 31 66 53 -16 108 -97 65 -149 130
-165 204 -7 29 -3 34 44 68 112 81 118 171 16 265 -41 38 -36 60 45 181 65 98
104 192 144 350 30 119 38 169 42 276 8 194 -11 235 -110 238 -90 3 -150 63
-132 133 14 57 106 113 184 113 12 0 21 7 21 15 0 21 -50 67 -66 61 -17 -7
-17 -4 0 39 l15 35 -42 1 c-39 0 -40 1 -17 11 14 6 43 19 65 29 33 16 41 16
55 5 8 -8 31 -17 50 -21 19 -4 43 -12 54 -17 17 -9 16 -12 -10 -39 -26 -28
-64 -39 -64 -20 0 5 12 19 28 31 l27 21 -33 -16 c-25 -12 -32 -22 -30 -38 5
-32 45 -24 88 18 39 39 55 43 64 19 14 -36 4 -65 -38 -113 -41 -46 -66 -104
-51 -119 11 -11 136 60 147 84 14 31 23 24 57 -45 56 -111 51 -160 -27 -281
-56 -85 -72 -127 -72 -181 0 -73 35 -113 80 -89 23 13 25 29 6 55 -16 22 -47
14 -45 -12 1 -17 2 -17 6 0 6 22 29 22 37 0 8 -20 -19 -44 -40 -36 -8 3 -19
23 -26 44 -16 56 2 127 56 208 63 95 76 125 76 171 0 22 4 40 8 40 13 0 37
-32 52 -67 12 -33 42 -44 56 -22 10 16 -15 55 -45 70 -43 22 -85 60 -108 98
-29 47 -29 54 5 47 23 -5 21 -3 -10 14 -26 14 -49 41 -78 91 -23 39 -40 72
-38 73 48 36 50 36 85 6 29 -26 103 -70 117 -70 13 0 -19 63 -50 97 l-35 38
35 -49 c52 -71 49 -81 -12 -42 -57 36 -77 62 -62 81 7 8 15 13 19 11 11 -7 12
82 1 130 -6 26 -20 59 -30 75 -23 32 -25 39 -7 39 7 0 35 -22 62 -50 47 -47
86 -63 99 -41 4 5 -3 7 -14 4 -15 -4 -33 8 -67 42 l-48 47 25 13 c22 12 20 13
-23 8 -50 -6 -61 2 -24 17 19 9 19 10 2 8 -11 -2 -26 1 -33 5 -10 7 -11 0 -6
-30 l6 -38 -107 0 -107 0 -29 -33 c-37 -42 -37 -73 3 -117 66 -75 168 -99 207
-49 45 57 13 134 -54 134 -24 0 -39 -7 -54 -26 -27 -34 -26 -49 0 -68 20 -13
26 -13 60 5 42 21 52 49 19 49 -11 0 -20 7 -20 15 0 21 16 19 40 -5 25 -25 26
-72 2 -93 -26 -24 -83 -21 -123 6 -26 17 -35 31 -37 58 -5 54 23 82 89 90 l54
6 -48 2 c-62 1 -81 -9 -101 -58 -11 -28 -20 -39 -30 -35 -23 9 -27 33 -12 63
20 38 50 49 141 50 87 1 115 -10 138 -57 20 -38 20 -117 2 -152 -23 -44 -88
-84 -122 -76 -16 4 -44 10 -63 14 -19 4 -42 12 -51 17 -27 17 -89 105 -90 128
-1 12 -5 -5 -9 -38 -9 -68 -36 -100 -97 -111 -80 -15 -126 40 -51 61 41 11 78
38 78 57 0 6 -13 -1 -30 -17 -33 -32 -37 -25 -15 28 8 20 15 49 14 64 -1 22
-5 15 -18 -26 -19 -62 -57 -106 -98 -114 -45 -9 -140 22 -168 55 -69 82 -57
203 27 252 61 36 158 37 158 2 0 -10 -10 -11 -45 -5 -59 11 -114 -7 -134 -43
-13 -23 -14 -36 -3 -85 27 -131 162 -170 217 -63 18 35 19 82 3 98 -21 21 -29
13 -13 -12 29 -44 -22 -126 -80 -126 -69 0 -107 65 -69 118 20 28 34 28 34 0
1 -47 49 -75 78 -46 17 17 15 55 -3 62 -8 3 -15 13 -15 21 0 13 -9 15 -41 13
-38 -3 -44 -7 -63 -45 -24 -48 -31 -52 -40 -20 -10 39 -6 64 15 91 18 23 27
26 82 25 34 -1 72 -4 85 -7 32 -10 91 -61 118 -104 22 -35 64 -53 64 -29 0 19
53 72 91 91 20 11 67 29 103 41 46 15 63 25 59 35 -3 8 0 21 6 28 7 8 14 38
16 67 3 45 8 56 32 73 15 11 31 25 36 31 11 15 28 -16 22 -40 -11 -49 -66
-154 -82 -158 -12 -3 -9 -5 8 -6 23 -1 31 8 63 68 37 71 46 127 24 149 -7 7
-17 31 -23 55 -12 51 -60 87 -116 87 -21 0 -53 9 -71 20 -43 26 -62 25 -113
-5 -30 -17 -47 -36 -59 -65 -17 -44 -23 -47 -52 -26 -15 12 -17 19 -8 33 16
28 171 141 207 152 21 6 25 10 12 10 -20 2 -20 2 -1 16 26 20 40 19 32 -2 -5
-13 0 -11 19 7 14 14 22 26 16 28 -15 5 -101 -35 -101 -47 0 -10 -112 -82
-118 -76 -2 2 8 20 23 39 45 59 43 145 -2 129z m-850 -64 c34 -15 49 -51 55
-131 5 -74 -1 -82 -37 -45 -19 21 -20 25 -6 37 8 7 15 17 15 23 0 5 -9 2 -19
-7 -18 -16 -20 -16 -37 21 -18 36 -21 38 -66 37 -63 0 -64 26 -3 59 36 19 65
21 98 6z m402 -128 c40 -18 85 -65 73 -77 -3 -3 -27 7 -53 21 -51 27 -79 31
-119 16 -24 -10 -86 5 -86 20 0 11 27 30 57 39 35 11 72 6 128 -19z m125 -19
c49 -39 70 -86 70 -154 0 -57 0 -57 -67 -125 -46 -47 -65 -61 -61 -46 l6 23
-25 -20 c-26 -20 -53 -27 -53 -12 0 4 20 20 45 35 46 29 64 65 66 132 1 28 2
27 25 -20 l25 -50 -5 52 c-6 63 -30 112 -87 177 l-44 49 35 -7 c19 -3 51 -19
70 -34z m471 2 c8 -8 30 -14 48 -14 62 0 128 -51 118 -92 -4 -13 -19 -39 -35
-58 l-29 -34 -26 29 c-21 25 -25 37 -20 67 5 35 3 38 -30 54 -44 21 -123 12
-132 -15 -4 -15 -43 -41 -60 -41 -11 0 -3 38 14 66 35 57 110 76 152 38z
m-1103 2 c45 -24 75 -73 74 -123 -1 -25 -4 -55 -8 -67 -11 -36 5 -12 20 30
l14 39 11 -35 11 -35 -4 37 c-3 20 -16 54 -31 76 -44 66 -9 87 43 27 31 -34
51 -108 38 -140 -7 -18 -49 -37 -54 -24 -2 5 -13 -2 -24 -16 -11 -14 -30 -25
-43 -25 -16 0 -29 -11 -43 -35 -14 -22 -32 -37 -53 -42 -43 -12 -99 -4 -99 13
0 19 52 44 92 44 23 0 29 3 19 9 -11 7 -8 13 13 26 32 21 53 59 62 111 8 52
-19 87 -81 104 -45 13 -56 24 -32 33 22 10 48 7 75 -7z m328 -41 c4 -9 -6 -26
-24 -43 -37 -35 -47 -65 -30 -94 21 -38 37 -132 24 -140 -17 -12 -28 -9 -20 4
5 7 3 8 -5 3 -17 -10 -57 30 -66 63 -4 15 -12 30 -18 34 -6 4 -8 10 -4 14 4 4
20 -4 35 -17 15 -14 36 -31 47 -38 11 -7 4 2 -16 20 -45 41 -59 68 -59 109 0
35 23 86 42 93 29 12 89 7 94 -8z m174 -1 c38 -15 60 -39 60 -63 0 -5 -24 1
-52 14 -29 14 -70 25 -90 25 -47 0 -49 16 -5 29 44 13 42 13 87 -5z m-556 0
c9 -3 16 -13 16 -21 0 -8 6 -13 13 -10 15 6 20 -43 5 -60 -14 -17 -28 -16 -28
1 0 7 -13 19 -30 26 -33 14 -38 31 -14 54 18 18 17 18 38 10z m1176 -19 c38
-19 44 -62 8 -50 -13 4 -43 10 -68 12 -40 4 -48 1 -74 -26 -34 -35 -27 -41 11
-11 27 21 78 26 102 11 10 -7 6 -10 -15 -15 -48 -11 -127 -76 -136 -113 -5
-18 -13 -33 -17 -33 -5 0 -13 15 -17 33 -17 79 2 127 61 148 19 7 35 19 35 26
0 32 63 42 110 18z m-729 -40 c0 -5 -8 -12 -18 -14 -28 -5 -53 -32 -53 -58 0
-26 -15 -31 -24 -7 -9 25 -8 30 20 64 19 22 34 30 51 28 13 -2 24 -7 24 -13z
m140 -36 c57 -60 64 -95 24 -134 -41 -42 -60 -30 -25 15 11 14 20 31 20 39 0
8 -13 -4 -30 -27 -38 -53 -55 -61 -121 -61 -61 1 -79 11 -79 45 0 30 7 30 31
-1 23 -28 38 -25 111 24 46 31 58 48 58 81 0 19 -10 25 -72 36 -54 9 -50 34 5
34 22 0 41 -12 78 -51z m271 25 c4 -3 1 -15 -7 -27 -21 -30 -18 -95 6 -137 11
-19 17 -26 13 -15 -31 90 -2 185 56 185 33 0 35 -5 20 -44 -6 -17 -18 -26 -32
-27 -19 -1 -19 -2 -5 -6 14 -4 17 -11 13 -26 -18 -61 -17 -85 3 -125 12 -23
21 -44 21 -47 0 -13 -32 13 -51 41 -10 16 -19 23 -19 15 0 -8 -16 3 -35 25
-19 21 -32 45 -30 52 2 6 -1 12 -9 12 -9 0 -12 19 -10 73 1 39 3 73 3 74 1 3
50 -15 63 -23z m-883 -15 c13 -11 21 -23 17 -26 -4 -4 -19 5 -34 20 -31 31
-19 36 17 6z m475 -43 c4 -18 15 -41 26 -51 20 -18 20 -18 -2 -33 -19 -14 -23
-14 -40 7 -21 26 -23 53 -7 83 8 15 8 19 -1 13 -6 -4 -16 -19 -22 -33 -6 -16
-12 -22 -15 -14 -6 17 24 62 41 62 8 0 17 -15 20 -34z m96 9 c0 -16 -43 -31
-59 -20 -25 15 -11 35 24 35 24 0 35 -5 35 -15z m667 -11 c34 -22 37 -55 12
-124 -22 -62 -42 -83 -89 -93 -50 -12 -97 36 -69 69 7 8 6 13 -2 16 -7 2 -9
10 -5 17 6 9 11 9 22 0 21 -17 38 3 30 35 -9 36 -39 33 -70 -6 -20 -25 -26
-29 -26 -15 0 27 49 67 81 67 32 0 54 -29 44 -60 -4 -11 -22 -32 -41 -46 -19
-15 -32 -29 -30 -32 3 -3 22 8 41 23 43 32 53 28 23 -10 l-21 -28 21 12 c26
14 42 42 42 75 0 35 -46 86 -78 87 -25 1 -24 2 13 19 41 20 63 18 102 -6z
m-1394 -1 c21 -4 27 -11 27 -32 0 -15 7 -37 16 -49 15 -22 15 -22 -34 -22 -50
0 -92 25 -92 55 0 30 23 66 39 60 9 -4 28 -9 44 -12z m425 -87 c4 -49 -19 -76
-67 -77 -20 -1 -28 -3 -18 -6 18 -5 18 -6 1 -24 -10 -11 -19 -35 -21 -55 -3
-32 0 -37 26 -47 l30 -11 -30 -34 c-16 -18 -32 -47 -36 -63 -3 -16 -9 -29 -13
-29 -26 0 -66 95 -56 135 4 14 19 37 34 51 15 15 19 22 9 14 -15 -11 -21 -10
-38 6 -12 10 -25 27 -31 38 -8 15 -7 18 5 13 9 -3 14 0 13 11 -1 13 6 16 29
15 25 -2 27 0 13 8 -27 15 -23 49 5 49 12 0 31 6 42 14 25 16 77 35 90 32 6
-1 11 -20 13 -40z m-348 13 c0 -6 -4 -7 -10 -4 -5 3 -10 11 -10 16 0 6 5 7 10
4 6 -3 10 -11 10 -16z m880 6 c0 -3 -21 -18 -47 -35 -27 -16 -43 -30 -37 -30
5 0 14 4 20 9 5 5 26 16 46 24 l36 15 41 -60 c23 -34 41 -66 42 -72 0 -6 4 -3
7 6 7 17 9 17 38 -1 35 -21 62 -98 45 -128 -7 -14 -14 -9 -38 32 -15 26 -35
54 -43 62 -98 87 -100 88 -162 86 -53 -1 -58 0 -46 14 7 9 11 19 9 22 -3 3 13
18 35 33 38 26 54 33 54 23z m174 -31 c8 -21 8 -24 -3 -24 -5 0 -11 9 -14 20
-6 24 8 27 17 4z m71 -90 c35 -21 62 -41 60 -44 -8 -14 -67 -20 -86 -10 -22
12 -60 90 -51 104 3 6 7 5 9 -1 3 -7 33 -29 68 -49z m15 35 c0 -5 -4 -9 -10
-9 -5 0 -10 7 -10 16 0 8 5 12 10 9 6 -3 10 -10 10 -16z m-565 -29 c-4 -6 6
-7 25 -4 39 8 38 -6 -1 -29 -30 -17 -33 -17 -50 -1 -25 22 -24 32 4 37 12 2
23 5 25 6 2 0 0 -3 -3 -9z m122 -35 c-21 -20 -38 -46 -38 -58 -1 -12 -2 -31
-3 -42 -1 -15 -7 -19 -25 -17 -28 3 -69 41 -55 51 5 3 9 13 9 21 0 14 114 80
138 80 6 0 -6 -16 -26 -35z m427 -54 c9 -15 -23 -36 -36 -23 -5 5 -7 15 -4 21
9 13 33 14 40 2z m-274 -15 c0 -16 -18 -31 -27 -22 -8 8 5 36 17 36 5 0 10 -6
10 -14z m30 -51 c0 -8 -9 -15 -20 -15 -11 0 -20 7 -20 15 0 8 9 15 20 15 11 0
20 -7 20 -15z m-386 -4 c8 -12 -45 -34 -57 -22 -5 5 -6 14 -3 20 8 13 53 15
60 2z m166 -26 c0 -8 0 -18 1 -22 0 -4 -4 -9 -10 -11 -6 -2 -11 8 -11 22 0 14
5 26 10 26 6 0 10 -7 10 -15z m650 6 c0 -5 -8 -12 -17 -16 -17 -6 -17 -7 1
-21 15 -10 17 -17 9 -25 -25 -25 -43 28 -20 59 11 14 27 16 27 3z m-780 -54
c0 -75 -76 -125 -139 -93 -26 14 -31 22 -31 52 0 37 15 74 30 74 5 0 6 -16 3
-35 -5 -30 -2 -36 20 -46 22 -10 31 -9 52 5 14 9 25 21 25 26 0 19 20 60 30
60 5 0 10 -19 10 -43z m-80 23 c0 -5 -4 -10 -10 -10 -5 0 -10 5 -10 10 0 6 5
10 10 10 6 0 10 -4 10 -10z m9 -26 c3 -3 0 -9 -6 -15 -15 -15 -43 -4 -43 16 0
12 6 15 23 9 12 -3 24 -8 26 -10z m236 -24 c18 -34 39 -47 114 -70 l55 -17
-34 -18 c-49 -25 -143 -17 -174 16 -35 36 -40 62 -15 92 26 34 35 34 54 -3z
m441 -42 c4 -13 12 -27 18 -31 7 -6 6 -7 -4 -4 -8 2 -26 -4 -39 -15 -30 -23
-38 -17 -17 14 9 12 16 30 16 40 0 25 17 22 26 -4z m-518 -30 c6 -18 13 -41
17 -50 6 -16 0 -18 -54 -18 -34 0 -61 4 -61 10 0 6 6 10 13 10 16 0 51 37 60
63 9 25 15 21 25 -15z m288 -43 l23 -25 -57 0 -57 1 30 24 c17 14 32 25 34 25
2 0 14 -11 27 -25z m-236 -10 c10 -12 10 -15 -3 -15 -8 0 -17 7 -21 15 -3 8
-2 15 3 15 5 0 14 -7 21 -15z m368 -55 c20 0 22 -4 16 -22 -3 -13 -8 -25 -10
-27 -6 -7 -382 0 -504 9 -63 4 -128 6 -145 4 -27 -5 -28 -4 -10 7 11 7 38 13
60 14 28 0 39 4 37 14 -2 11 43 12 265 7 147 -3 278 -6 291 -6z m357 -40 c20
-39 19 -83 -2 -102 -21 -19 -98 -58 -113 -58 -13 0 14 67 37 92 9 11 23 16 30
14 18 -7 28 13 24 51 -3 41 4 42 24 3z m-267 -52 c-3 -7 -24 -16 -49 -19 -73
-10 -116 -35 -139 -79 -30 -58 -26 -102 11 -145 l31 -35 -50 0 c-27 0 -64 -3
-81 -6 l-31 -6 -2 78 -2 79 -3 -77 -4 -78 -63 0 c-93 0 -156 10 -156 26 0 8 6
11 15 8 11 -4 15 1 16 17 0 23 1 23 9 4 6 -14 9 -3 9 40 0 53 -1 58 -13 42
-11 -14 -15 -15 -19 -5 -3 7 -6 3 -6 -9 -1 -21 -21 -34 -21 -14 0 5 -3 23 -6
40 -5 24 -3 31 10 31 9 0 16 4 16 9 0 5 9 7 20 4 24 -6 25 3 5 51 -14 33 -45
51 -45 26 0 -7 -6 -7 -19 0 -14 7 -21 6 -24 -3 -4 -9 -8 -8 -16 3 -6 8 -11 18
-11 23 0 4 140 7 311 7 244 0 310 -3 307 -12z m-622 -25 c16 -21 18 -37 4 -28
-13 8 -33 45 -24 45 4 0 13 -8 20 -17z m52 -175 c-2 -32 0 -56 5 -55 5 1 12
-4 14 -10 3 -9 -8 -13 -36 -13 -44 0 -50 9 -24 35 12 12 16 34 16 77 0 54 2
59 14 42 10 -13 13 -37 11 -76z m1057 -18 c14 -16 16 -23 7 -32 -14 -14 -27
-4 -37 30 -8 27 6 29 30 2z m-1605 -49 c-14 -28 -27 -41 -41 -41 -30 0 -35 28
-9 53 l22 22 -7 -24 c-10 -33 11 -19 32 22 9 18 18 27 20 20 2 -6 -5 -30 -17
-52z m419 -42 c77 -11 166 -10 656 4 59 2 60 1 78 -33 36 -69 7 -351 -55 -540
-29 -90 -98 -228 -146 -292 -24 -33 -42 -69 -46 -95 -6 -39 -4 -42 28 -61 45
-27 91 -118 77 -153 -13 -35 -72 -84 -118 -100 -23 -8 -89 -13 -168 -13 l-130
-1 -64 36 c-36 19 -73 47 -84 61 -17 22 -18 30 -8 61 7 20 34 64 62 98 45 57
48 64 43 103 -4 22 -26 77 -49 121 -139 259 -180 366 -210 550 -28 176 -15
285 33 271 10 -3 55 -10 101 -17z m-300 -152 c1 -29 -30 -33 -51 -8 -10 13
-18 28 -18 35 0 6 9 0 20 -14 10 -14 22 -22 25 -18 4 4 -5 19 -19 35 -37 40
-32 50 8 16 19 -15 35 -36 35 -46z m-143 -73 c-11 -8 -14 -14 -8 -14 17 0 15
-25 -3 -40 -12 -10 -14 -7 -12 22 2 30 25 63 37 51 3 -2 -4 -11 -14 -19z m-36
-55 c0 -11 -4 -17 -10 -14 -5 3 -10 13 -10 21 0 8 5 14 10 14 6 0 10 -9 10
-21z"/>
<path d="M1090 2229 c0 -4 -7 -6 -15 -3 -12 5 -12 0 -5 -26 11 -37 21 -50 27
-34 2 7 13 10 23 7 13 -3 20 0 20 8 0 12 2 12 9 1 6 -10 10 -7 15 13 4 15 5
30 1 33 -3 3 -5 0 -5 -6 0 -7 -4 -12 -10 -12 -5 0 -10 6 -10 13 0 6 -11 13
-25 13 -14 1 -25 -2 -25 -7z"/>
<path d="M1182 2200 c0 -19 2 -27 5 -17 2 9 2 25 0 35 -3 9 -5 1 -5 -18z"/>
<path d="M1210 2206 c0 -28 7 -31 97 -40 46 -4 54 -2 64 15 6 12 9 22 7 24 -2
2 -36 6 -76 9 -40 3 -77 8 -83 11 -5 4 -9 -5 -9 -19z"/>
<path d="M1093 2055 c0 -38 2 -53 4 -32 2 20 2 52 0 70 -2 17 -4 1 -4 -38z"/>
<path d="M1121 2058 c0 -37 4 -70 9 -73 12 -7 12 64 0 110 -6 23 -8 15 -9 -37z"/>
<path d="M1153 2055 c0 -38 2 -53 4 -32 2 20 2 52 0 70 -2 17 -4 1 -4 -38z"/>
<path d="M1183 2050 c0 -41 2 -58 4 -37 2 20 2 54 0 75 -2 20 -4 3 -4 -38z"/>
<path d="M1207 2053 c8 -91 13 -92 13 -5 0 40 -4 72 -10 72 -5 0 -7 -27 -3
-67z"/>
<path d="M1290 2053 c0 -46 2 -54 14 -44 11 9 15 9 19 -1 9 -27 18 2 11 38 -7
37 -8 38 -16 14 -7 -22 -7 -21 -5 7 2 20 -2 34 -10 37 -10 4 -13 -8 -13 -51z"/>
<path d="M1261 2074 c-1 -42 10 -94 20 -94 5 0 6 6 3 14 -3 8 -9 36 -14 62 -6
38 -8 42 -9 18z"/>
<path d="M763 1903 c-13 -45 -7 -201 11 -298 29 -151 77 -273 200 -499 14 -27
26 -64 26 -82 0 -37 14 -51 34 -35 7 6 16 8 19 4 14 -13 7 -43 -12 -53 -37
-19 -92 -138 -90 -195 0 -11 9 8 19 43 22 79 45 107 25 31 -8 -30 -14 -65 -14
-79 0 -14 9 7 20 45 11 39 25 75 31 80 7 7 9 4 5 -10 -14 -50 -28 -137 -24
-142 6 -6 10 7 38 132 26 120 23 142 -51 370 -27 83 -63 213 -79 290 -27 122
-30 131 -25 70 7 -102 46 -262 98 -410 52 -147 49 -135 36 -135 -5 0 -10 6
-10 13 0 6 -30 73 -66 147 -139 285 -185 465 -170 657 5 55 4 83 -3 83 -6 0
-14 -12 -18 -27z"/>
<path d="M1519 1925 c-3 -2 0 -36 5 -75 19 -137 -29 -421 -97 -575 -17 -38
-53 -106 -80 -150 -26 -44 -51 -92 -54 -108 -3 -15 -10 -30 -15 -33 -16 -10
-1 32 48 136 52 113 86 240 108 408 18 137 21 329 6 352 -7 10 -8 -10 -4 -60
10 -121 -23 -383 -67 -534 -25 -82 -101 -254 -107 -237 -2 6 8 46 22 89 36
108 53 202 67 385 12 161 9 331 -7 360 -6 9 -9 -74 -9 -216 -1 -271 -13 -354
-78 -535 l-42 -117 -3 47 c-2 25 4 95 13 155 25 170 37 394 28 543 l-8 135 -6
-225 c-5 -197 -30 -506 -46 -580 l-6 -25 -7 25 c-7 25 -7 25 -12 -5 -4 -21 -6
-14 -7 25 -1 30 -6 75 -11 100 -6 32 -7 12 -4 -65 3 -69 2 -104 -4 -95 -5 8
-12 67 -16 130 -4 63 -14 183 -22 265 -15 142 -14 333 2 408 12 52 -15 28 -32
-30 -22 -77 -15 -343 14 -493 23 -119 38 -258 27 -248 -4 4 -13 39 -21 79 -16
84 -43 183 -49 177 -2 -2 7 -51 20 -108 51 -231 53 -262 19 -495 -3 -27 -2
-35 4 -25 5 8 15 51 22 94 6 44 16 89 21 100 9 20 9 9 -6 -159 -9 -95 12 9 26
131 7 63 15 114 18 114 6 0 2 -82 -12 -243 -2 -27 -1 -43 4 -36 4 7 10 56 14
108 12 166 25 180 21 24 -2 -79 0 -143 3 -143 4 0 7 19 8 43 1 23 5 80 9 127
10 124 28 67 21 -68 -3 -59 -1 -105 5 -108 5 -4 9 42 8 118 -1 67 0 128 0 133
4 23 19 -51 31 -149 7 -58 17 -106 21 -106 5 0 6 15 4 33 -3 17 -11 70 -16
117 -6 47 -14 94 -17 105 -4 14 -2 17 5 10 13 -12 52 -182 52 -225 0 -16 5
-30 10 -30 6 0 10 6 10 13 0 26 -41 220 -50 236 -7 15 -4 21 18 31 22 11 24
14 10 17 -26 6 -23 18 27 93 112 169 168 353 200 658 8 84 -15 199 -36 177z"/>
<path d="M847 1893 c-3 -4 -10 -35 -17 -68 -20 -99 1 -283 51 -436 27 -85 44
-100 19 -18 -46 150 -65 313 -50 433 10 82 9 109 -3 89z"/>
<path d="M936 1885 c-3 -9 -6 -67 -6 -128 0 -171 12 -235 136 -701 l23 -89
-19 -115 c-20 -116 -24 -149 -15 -140 12 12 46 247 41 281 -4 21 -20 80 -37
132 -43 136 -89 419 -97 607 -7 152 -13 186 -26 153z"/>
<path d="M1147 1751 c-10 -48 -8 -278 4 -396 23 -226 27 -228 22 -15 -8 316
-17 452 -26 411z"/>
<path d="M1341 895 c-2 -42 31 -175 42 -175 5 0 7 16 4 35 -3 21 -2 33 4 30
17 -11 9 19 -20 80 -27 54 -30 57 -30 30z"/>
<path d="M941 814 c-12 -37 -20 -69 -18 -71 2 -2 14 27 26 63 12 37 20 69 17
71 -3 3 -14 -25 -25 -63z"/>
<path d="M1410 3301 c0 -5 -3 -17 -7 -27 -5 -14 -2 -16 14 -12 22 6 31 -11 34
-62 1 -23 2 -23 8 5 4 17 3 38 -2 48 -4 10 -6 25 -3 32 2 7 -2 16 -10 19 -22
9 -34 7 -34 -3z"/>
<path d="M1541 3284 c0 -11 3 -14 6 -6 3 7 2 16 -1 19 -3 4 -6 -2 -5 -13z"/>
<path d="M1891 2811 c-24 -33 -28 -56 -5 -26 20 26 36 55 30 55 -3 0 -14 -13
-25 -29z"/>
<path d="M2005 2821 c-3 -6 -16 -16 -27 -22 -18 -10 -20 -9 -15 5 10 25 -1 19
-37 -19 -19 -19 -30 -35 -26 -35 4 0 15 8 24 19 9 10 28 19 42 19 26 0 63 27
52 37 -3 4 -9 2 -13 -4z"/>
<path d="M838 2748 c-8 -45 1 -54 67 -70 35 -8 62 -12 60 -8 -3 4 -20 11 -39
14 -38 7 -80 51 -72 73 3 7 2 13 -3 13 -5 0 -10 -10 -13 -22z"/>
<path d="M1925 2681 c3 -6 12 -11 20 -11 8 0 18 -8 24 -17 8 -15 12 -16 22 -5
7 6 10 12 7 12 -3 0 -22 7 -43 16 -20 8 -34 10 -30 5z"/>
<path d="M996 2563 c-6 -14 -5 -15 5 -6 7 7 10 15 7 18 -3 3 -9 -2 -12 -12z"/>
<path d="M580 2276 c0 -8 7 -16 15 -20 9 -3 15 0 15 9 0 19 16 19 23 1 9 -22
-31 -66 -58 -66 -26 0 -55 33 -56 65 0 11 -3 14 -6 7 -9 -23 18 -72 44 -78 51
-13 103 37 81 79 -10 20 -58 23 -58 3z"/>
<path d="M322 2238 c-10 -13 -15 -39 -13 -70 2 -26 29 -48 60 -48 34 0 51 17
50 50 l-1 25 -7 -24 c-10 -35 -34 -47 -65 -33 -20 9 -26 19 -26 45 0 32 14 57
33 57 5 0 7 -11 5 -25 -3 -13 -1 -22 3 -19 5 3 9 16 9 30 0 27 -29 34 -48 12z"/>
<path d="M1961 2206 c2 -2 22 -6 44 -10 29 -5 36 -4 25 3 -13 10 -79 16 -69 7z"/>
<path d="M991 504 c-24 -52 -41 -97 -38 -100 3 -3 11 11 18 30 7 20 17 36 21
36 4 0 3 -12 -2 -26 -12 -31 -13 -55 -1 -34 17 28 59 180 52 184 -4 3 -27 -38
-50 -90z"/>
<path d="M1086 580 c-3 -8 -12 -53 -21 -98 -18 -89 -14 -124 5 -51 17 66 32
111 35 107 3 -3 -9 -78 -21 -128 -4 -17 -2 -22 5 -15 6 6 15 44 21 85 15 104
24 102 17 -5 -3 -52 -2 -79 3 -65 4 14 8 51 9 82 2 90 20 79 24 -14 l3 -83 2
93 c2 83 4 92 21 92 20 0 25 -15 37 -117 3 -35 11 -63 15 -63 5 0 7 10 5 23
-3 12 -8 45 -11 72 -4 28 -9 61 -12 74 -4 15 -2 22 4 18 6 -4 19 -47 29 -97
10 -49 21 -90 25 -90 4 0 -2 39 -13 88 -11 48 -20 93 -21 100 -1 20 -156 13
-161 -8z"/>
<path d="M1050 549 c-6 -24 -18 -67 -26 -96 -16 -59 -17 -75 -4 -52 12 21 51
181 45 187 -2 2 -9 -16 -15 -39z"/>
<path d="M1287 503 c14 -43 27 -84 29 -92 3 -8 6 -12 9 -9 9 9 -47 178 -59
178 -2 0 7 -35 21 -77z"/>
<path d="M1183 520 c0 -25 2 -35 4 -22 2 12 2 32 0 45 -2 12 -4 2 -4 -23z"/>
<path d="M1340 468 c0 -17 23 -68 31 -68 5 0 2 15 -7 33 -18 34 -24 44 -24 35z"/>
<path d="M1192 430 c0 -19 2 -27 5 -17 2 9 2 25 0 35 -3 9 -5 1 -5 -18z"/>
<path d="M878 379 c-35 -20 -21 -38 25 -34 84 8 523 9 557 1 29 -7 33 -6 22 5
-10 11 -70 14 -287 14 -151 0 -275 4 -275 9 0 5 -8 2 -17 -5 -15 -12 -16 -12
-10 4 7 20 8 20 -15 6z"/>
</g>
</svg>
