<?xml version="1.0" standalone="no"?>
<!DOCTYPE svg PUBLIC "-//W3C//DTD SVG 20010904//EN"
 "http://www.w3.org/TR/2001/REC-SVG-20010904/DTD/svg10.dtd">
<svg version="1.0" xmlns="http://www.w3.org/2000/svg"
 width="82.000000pt" height="106.000000pt" viewBox="0 0 82.000000 106.000000"
 preserveAspectRatio="xMidYMid meet">

<g transform="translate(0.000000,106.000000) scale(0.100000,-0.100000)"
fill="#696969" stroke="none">
<path d="M347 1013 c-15 -15 -5 -43 24 -67 17 -14 34 -26 39 -26 18 0 70 53
70 71 0 24 -27 36 -50 21 -10 -6 -22 -7 -31 -1 -17 10 -43 12 -52 2z"/>
<path d="M214 876 c-16 -12 -19 -29 -22 -120 l-4 -106 -32 0 c-55 0 -66 -23
-66 -132 0 -79 3 -98 18 -111 16 -15 52 -17 304 -17 342 0 318 -10 318 132 0
107 -11 128 -68 128 l-32 0 0 100 c0 144 7 140 -218 140 -138 0 -183 -3 -198
-14z m386 -17 c0 -19 -72 -41 -109 -34 -36 7 -74 32 -67 44 7 10 176 0 176
-10z m-217 -10 c-36 -36 -163 -27 -163 12 0 5 42 9 92 9 l92 0 -21 -21z m37
-9 c0 -5 -4 -10 -10 -10 -5 0 -10 5 -10 10 0 6 5 10 10 10 6 0 10 -4 10 -10z
m-61 -42 c-27 -23 -77 -23 -106 0 -22 17 -21 17 53 17 73 0 74 0 53 -17z m61
12 c0 -5 -4 -10 -10 -10 -5 0 -10 5 -10 10 0 6 5 10 10 10 6 0 10 -4 10 -10z
m147 -12 c-29 -23 -79 -23 -106 0 -21 17 -20 17 53 17 74 0 75 0 53 -17z
m-142 -27 c7 -12 -12 -24 -25 -16 -11 7 -4 25 10 25 5 0 11 -4 15 -9z m-130
-141 c3 -5 -6 -17 -21 -26 -33 -22 -114 -22 -144 -1 -21 14 -21 16 -3 26 23
13 160 14 168 1z m205 -5 c0 -21 -37 -37 -89 -38 -51 -1 -91 16 -91 38 0 12
18 15 90 15 72 0 90 -3 90 -15z m195 1 c18 -13 18 -14 -1 -24 -55 -29 -155
-16 -162 21 -3 15 5 17 70 17 47 0 81 -5 93 -14z m-415 -53 c0 -1 -13 -9 -30
-18 -38 -20 -73 -19 -99 3 -21 17 -20 17 53 17 42 0 76 -1 76 -2z m34 -14 c-3
-5 -10 -7 -15 -3 -5 3 -7 10 -3 15 3 5 10 7 15 3 5 -3 7 -10 3 -15z m145 -1
c-27 -23 -71 -23 -98 0 -22 17 -20 17 49 17 69 0 70 0 49 -17z m65 1 c-3 -5
-10 -7 -15 -3 -5 3 -7 10 -3 15 3 5 10 7 15 3 5 -3 7 -10 3 -15z m145 -1 c-27
-23 -71 -23 -98 0 -21 17 -20 17 49 17 69 0 71 0 49 -17z m-349 -33 c0 -8 -7
-15 -15 -15 -8 0 -15 7 -15 15 0 8 7 15 15 15 8 0 15 -7 15 -15z m210 0 c0 -8
-7 -15 -15 -15 -8 0 -15 7 -15 15 0 8 7 15 15 15 8 0 15 -7 15 -15z"/>
<path d="M43 346 c25 -19 119 -37 233 -45 92 -6 99 -8 111 -31 17 -34 16 -113
-1 -155 -12 -28 -21 -35 -43 -36 -15 0 -46 -6 -68 -14 -36 -12 -23 -13 135
-13 158 0 171 1 135 13 -22 8 -53 14 -68 14 -22 1 -31 8 -43 36 -17 40 -18
110 -4 152 l11 30 112 6 c112 7 210 26 230 46 8 8 -105 11 -374 11 -322 -1
-381 -3 -366 -14z"/>
</g>
</svg>
