<?xml version="1.0" standalone="no"?>
<!DOCTYPE svg PUBLIC "-//W3C//DTD SVG 20010904//EN"
 "http://www.w3.org/TR/2001/REC-SVG-20010904/DTD/svg10.dtd">
<svg version="1.0" xmlns="http://www.w3.org/2000/svg"
 width="78.000000pt" height="123.000000pt" viewBox="0 0 78.000000 123.000000"
 preserveAspectRatio="xMidYMid meet">

<g transform="translate(0.000000,123.000000) scale(0.100000,-0.100000)"
fill="#696969" stroke="none">
<path d="M387 1140 c-4 -8 -27 -85 -52 -170 -25 -85 -48 -163 -51 -172 -3 -10
-21 -37 -41 -60 l-36 -43 178 -3 c98 -1 180 0 183 2 2 3 -12 24 -31 48 -28 34
-44 73 -77 188 -63 218 -66 227 -73 210z"/>
<path d="M230 583 l-1 -88 -74 -54 c-41 -30 -80 -58 -87 -62 -22 -14 -1 -21
24 -8 12 6 85 56 160 111 76 55 142 97 147 93 18 -10 233 -165 259 -185 13
-11 34 -20 45 -20 13 0 -9 22 -66 65 l-87 66 0 84 0 85 -160 0 -160 0 0 -87z"/>
<path d="M237 438 l-137 -100 0 -149 0 -149 105 0 105 0 0 70 c0 109 41 164
104 140 43 -16 56 -47 56 -132 l0 -78 105 0 105 0 0 149 0 149 -137 101 c-76
55 -145 100 -153 100 -8 -1 -77 -46 -153 -101z m163 2 c0 -11 7 -20 15 -20 8
0 15 -4 15 -10 0 -5 -7 -10 -15 -10 -11 0 -15 -11 -15 -40 0 -22 -4 -40 -10
-40 -5 0 -10 18 -10 40 0 29 -4 40 -15 40 -8 0 -15 5 -15 10 0 6 7 10 15 10 8
0 15 9 15 20 0 11 5 20 10 20 6 0 10 -9 10 -20z m-172 -228 l3 -82 -31 0 -30
0 0 66 c0 73 13 107 38 102 14 -3 18 -18 20 -86z m370 76 c7 -7 12 -42 12 -85
l0 -73 -30 0 -30 0 0 73 c0 85 17 116 48 85z"/>
</g>
</svg>
