<?xml version="1.0" standalone="no"?>
<!DOCTYPE svg PUBLIC "-//W3C//DTD SVG 20010904//EN"
 "http://www.w3.org/TR/2001/REC-SVG-20010904/DTD/svg10.dtd">
<svg version="1.0" xmlns="http://www.w3.org/2000/svg"
 width="2264.000000pt" height="1994.000000pt" viewBox="0 0 2264.000000 1994.000000"
 preserveAspectRatio="xMidYMid meet">

<g transform="translate(0.000000,1994.000000) scale(0.100000,-0.100000)"
fill="#696969" stroke="none">
<path d="M8782 19652 c-32 -32 -69 -82 -84 -114 -29 -60 -101 -138 -129 -138
-9 0 -22 -7 -29 -15 -7 -8 -17 -15 -22 -15 -6 0 -43 -16 -82 -35 -40 -20 -79
-33 -88 -30 -9 4 -19 22 -22 40 -7 36 -47 75 -76 75 -10 0 -30 -14 -44 -31
-22 -25 -26 -41 -26 -91 0 -98 2 -96 -312 -297 -70 -44 -131 -81 -137 -81 -5
0 -23 12 -40 26 -57 48 -108 2 -96 -86 l7 -51 -68 -62 c-37 -34 -92 -89 -123
-122 -99 -105 -125 -128 -176 -151 -78 -37 -89 -34 -114 35 -23 64 -40 74 -96
59 -41 -10 -63 -57 -69 -145 -5 -80 -16 -107 -49 -124 -30 -16 -363 -236 -407
-269 -19 -15 -102 -73 -184 -130 -135 -92 -316 -225 -466 -342 -54 -41 -144
-117 -260 -217 -111 -97 -253 -217 -279 -236 -14 -10 -52 -43 -84 -72 -95 -86
-104 -66 -25 54 29 43 55 80 58 83 7 6 170 252 304 458 47 73 86 137 86 142 0
6 4 10 9 10 5 0 12 8 16 19 3 10 23 36 45 59 36 36 69 55 165 96 55 23 110 48
138 63 15 8 38 20 50 26 121 64 333 251 387 342 13 22 28 43 33 46 5 4 7 17 5
30 -7 53 -45 38 -268 -106 -52 -34 -135 -88 -183 -119 -120 -78 -144 -67 -88
40 17 30 45 67 63 82 41 34 147 139 172 171 24 32 106 158 106 165 0 3 13 24
29 48 37 55 94 158 127 228 38 78 43 92 48 120 2 14 10 39 16 56 6 17 10 58 8
90 -3 53 -5 59 -26 62 -29 4 -33 0 -267 -278 -26 -30 -56 -72 -66 -93 -37 -70
-129 -291 -129 -307 0 -9 -4 -20 -9 -25 -4 -6 -16 -35 -25 -65 -10 -30 -36
-89 -58 -130 -22 -41 -58 -109 -80 -150 -35 -65 -95 -171 -177 -314 -84 -146
-118 -140 -132 24 -33 380 -30 358 -72 448 -21 42 -46 58 -83 50 -26 -5 -35
-50 -35 -183 1 -66 -4 -159 -10 -206 -10 -77 -9 -94 10 -170 28 -108 37 -132
78 -200 18 -31 33 -64 33 -74 0 -36 -136 -235 -177 -259 -20 -11 -33 9 -33 51
0 32 -8 74 -30 163 -6 25 -15 65 -21 89 -5 24 -13 49 -18 55 -4 6 -11 22 -14
36 -10 45 -33 101 -49 117 -13 12 -20 13 -38 3 -21 -11 -22 -17 -16 -74 4 -33
11 -135 16 -226 8 -169 19 -224 59 -292 25 -41 30 -103 11 -139 -7 -13 -38
-60 -70 -104 -31 -44 -85 -127 -120 -185 -47 -77 -96 -138 -185 -230 -66 -69
-152 -163 -192 -210 -39 -47 -91 -108 -115 -137 -97 -115 -206 -241 -259 -298
-30 -33 -65 -73 -78 -90 -38 -50 -195 -225 -202 -225 -13 0 -17 45 -9 90 5 25
18 81 29 124 12 44 23 89 26 100 22 102 45 134 156 219 106 79 128 105 135
158 9 66 -10 83 -87 74 -50 -6 -58 -5 -63 12 -8 24 1 111 15 143 32 73 47 99
84 138 22 24 49 58 60 75 10 18 22 34 26 37 13 10 38 81 33 94 -9 23 -46 34
-77 24 -40 -14 -57 4 -57 61 0 124 -105 123 -142 -1 l-12 -40 -52 7 c-68 8
-88 -10 -81 -72 3 -33 18 -61 63 -119 97 -126 105 -138 102 -159 -4 -25 -34
-31 -56 -12 -9 9 -29 20 -43 26 -22 8 -31 6 -48 -10 -39 -36 -23 -93 52 -183
42 -51 48 -77 28 -138 -6 -18 -18 -60 -27 -93 -9 -33 -22 -78 -29 -100 -7 -22
-16 -52 -19 -67 -3 -15 -13 -34 -22 -43 -15 -15 -19 -13 -49 19 -40 45 -75 47
-105 9 -27 -35 -23 -102 9 -142 12 -14 35 -46 52 -71 31 -45 31 -46 25 -145
-7 -126 -24 -184 -78 -261 -24 -34 -95 -135 -159 -225 -63 -90 -146 -216 -183
-279 -38 -63 -79 -131 -91 -150 -21 -32 -85 -149 -217 -395 -70 -129 -242
-479 -271 -550 -13 -33 -50 -123 -81 -200 -31 -77 -61 -149 -66 -160 -5 -11
-25 -63 -45 -115 -20 -52 -47 -122 -60 -155 -26 -66 -84 -233 -117 -335 -12
-36 -39 -119 -60 -185 -22 -66 -50 -160 -63 -210 -32 -120 -45 -156 -56 -149
-12 7 -11 160 1 205 5 19 14 91 20 160 5 68 14 147 19 174 6 28 10 77 10 110
1 33 8 92 16 130 8 39 15 92 15 118 0 27 4 56 9 65 5 9 11 42 14 73 4 30 11
75 16 100 13 55 32 153 39 198 7 54 34 89 108 143 84 61 124 98 124 115 0 7 5
13 10 13 15 0 12 32 -6 55 -11 15 -30 21 -77 25 l-62 5 -3 43 c-2 24 1 49 7
56 5 6 13 35 16 64 7 65 35 130 66 158 13 11 53 40 89 64 107 70 150 121 150
175 0 47 -69 77 -120 51 -34 -16 -60 -12 -60 11 0 24 21 106 36 140 8 17 14
37 14 45 1 16 35 42 70 53 39 12 101 59 143 106 67 78 44 153 -45 149 -73 -4
-71 -6 -63 55 3 31 13 68 21 83 7 15 14 32 14 39 0 34 43 83 88 99 26 10 49
20 52 23 3 4 14 11 25 17 11 6 24 20 30 32 5 12 13 22 17 22 17 0 6 53 -17 84
-29 38 -32 85 -9 121 9 14 14 40 12 67 -3 36 -7 44 -26 46 -13 2 -34 -4 -47
-12 -35 -23 -53 -20 -82 14 -17 21 -34 30 -54 30 -44 0 -63 -51 -56 -145 5
-63 31 -153 50 -171 16 -17 6 -102 -18 -152 -14 -29 -25 -56 -25 -60 0 -9 -33
-42 -42 -42 -3 0 -22 14 -43 30 -64 51 -127 35 -141 -36 -6 -34 19 -95 71
-168 40 -55 46 -108 20 -170 -19 -46 -40 -54 -68 -28 -31 28 -82 52 -111 52
-28 0 -72 -47 -82 -87 -12 -46 49 -178 110 -239 41 -40 41 -43 2 -211 -22 -96
-29 -101 -86 -53 -25 22 -45 30 -73 30 -78 0 -124 -97 -80 -171 10 -16 45 -47
79 -69 74 -48 80 -64 59 -162 -48 -230 -63 -278 -89 -278 -8 0 -33 16 -56 35
-76 64 -160 40 -160 -45 0 -50 37 -94 126 -152 70 -45 82 -67 65 -120 -6 -18
-15 -62 -21 -98 -33 -206 -41 -270 -50 -415 -5 -88 -14 -194 -20 -235 -34
-252 -40 -332 -40 -536 0 -211 -20 -511 -40 -584 -5 -19 -14 -62 -20 -95 -5
-33 -17 -91 -24 -130 -8 -38 -22 -106 -31 -150 -27 -139 -30 -150 -45 -150 -9
0 -21 19 -30 47 -8 26 -18 50 -23 54 -4 4 -7 17 -7 29 0 12 -7 30 -15 41 -23
31 -18 93 14 159 46 94 61 132 61 152 0 10 5 24 12 31 8 8 12 53 12 140 0 105
-4 139 -23 194 -20 59 -60 118 -81 118 -28 0 -48 -74 -75 -268 -8 -59 -31
-112 -49 -112 -8 0 -34 36 -58 81 -59 112 -168 210 -334 299 -88 48 -109 36
-78 -47 48 -129 223 -333 333 -386 77 -37 102 -72 152 -207 56 -152 51 -169
-30 -114 -64 43 -223 124 -243 124 -9 0 -32 -7 -52 -15 -31 -13 -36 -20 -36
-49 0 -37 27 -71 107 -135 95 -75 146 -101 281 -141 120 -36 127 -52 126 -280
0 -107 -7 -216 -16 -280 -9 -58 -19 -163 -22 -235 -4 -71 -11 -150 -16 -175
-5 -25 -9 -228 -10 -452 0 -225 -4 -408 -8 -408 -9 0 -29 38 -57 105 -9 22
-20 47 -24 55 -5 9 -12 30 -16 48 -3 18 -10 32 -14 32 -4 0 -12 20 -19 44 -12
45 -5 89 24 153 8 17 14 40 14 51 0 10 5 33 11 50 8 25 7 42 -6 81 -9 27 -23
52 -31 55 -39 15 -66 5 -107 -39 -24 -25 -50 -45 -59 -45 -8 0 -23 15 -32 33
-9 17 -22 41 -29 52 -57 95 -86 146 -102 183 -18 43 -18 43 4 105 49 132 64
199 58 263 -9 117 -60 178 -131 154 -39 -12 -59 -51 -77 -146 -16 -88 -23 -96
-57 -59 -15 17 -38 46 -52 64 -14 18 -50 63 -80 100 -31 36 -68 82 -83 102
l-27 36 2 194 c3 173 1 198 -16 232 -37 76 -89 88 -133 30 -24 -32 -29 -47
-33 -126 -3 -59 -9 -92 -17 -94 -15 -5 -195 167 -223 213 -22 35 -23 47 -15
209 l6 120 -28 32 c-36 41 -72 50 -102 26 -18 -15 -24 -32 -28 -86 -3 -37 -11
-71 -18 -77 -8 -7 -36 1 -93 26 -104 47 -132 43 -132 -20 0 -37 6 -48 43 -85
34 -35 168 -111 194 -111 4 0 35 -14 69 -31 48 -23 79 -48 124 -101 82 -95 79
-103 -37 -103 -84 0 -94 -2 -118 -25 -23 -22 -26 -31 -22 -69 3 -29 11 -48 23
-55 35 -20 108 -32 149 -25 22 5 80 8 129 9 l89 0 59 -62 c32 -35 58 -66 58
-70 0 -3 20 -30 45 -59 60 -70 57 -85 -16 -81 -69 4 -152 -22 -179 -56 -12
-14 -20 -40 -20 -61 0 -88 58 -110 275 -104 l150 5 29 -30 c16 -17 34 -40 40
-50 20 -36 120 -196 143 -231 43 -63 24 -75 -68 -45 -62 20 -111 12 -139 -23
-42 -54 -13 -136 62 -174 36 -19 53 -21 125 -16 102 6 147 -3 184 -39 36 -34
128 -220 220 -444 40 -96 96 -224 125 -285 53 -110 64 -157 87 -370 13 -113
95 -505 153 -730 9 -33 22 -87 31 -120 27 -104 70 -255 89 -306 8 -23 9 -40 3
-50 -10 -15 -9 -16 -55 47 -11 14 -27 35 -37 46 -9 12 -17 24 -17 27 0 3 -13
20 -28 37 -26 31 -87 111 -107 143 -5 9 -13 18 -16 21 -3 3 -31 46 -63 95 -32
50 -67 102 -77 117 -10 15 -19 34 -19 41 0 8 -7 20 -15 27 -17 14 -20 75 -5
85 5 3 26 40 46 81 l36 75 -3 119 c-3 78 -8 123 -17 132 -6 6 -12 23 -12 38 0
14 -7 38 -15 54 -8 15 -15 37 -15 47 0 10 -10 24 -22 30 -38 20 -48 -6 -83
-216 -17 -103 -32 -155 -44 -155 -11 0 -51 58 -51 73 0 8 -7 20 -15 27 -8 7
-15 18 -15 24 0 6 -18 47 -41 91 -30 59 -41 92 -41 125 0 25 1 99 2 165 1 87
-2 132 -14 165 -9 25 -16 52 -16 61 0 42 -95 199 -137 226 -19 13 -24 12 -43
-7 -15 -15 -19 -29 -16 -53 3 -18 8 -87 11 -154 7 -122 7 -123 -15 -123 -14 0
-37 17 -61 43 -70 80 -189 161 -284 192 -104 35 -154 44 -166 29 -20 -25 0
-64 79 -146 141 -148 238 -215 355 -244 34 -9 70 -20 79 -25 23 -12 158 -218
158 -241 0 -31 -37 -41 -119 -33 -42 4 -119 8 -171 9 l-95 1 -3 -26 c-3 -28 4
-36 63 -66 132 -68 283 -113 379 -113 68 0 73 -3 101 -45 95 -144 142 -253
122 -278 -25 -32 -224 -22 -294 14 -43 23 -72 -12 -35 -43 26 -23 253 -163
313 -194 40 -20 73 -28 136 -32 l82 -5 79 -111 c72 -101 130 -187 250 -376 87
-136 110 -179 171 -325 35 -82 99 -227 142 -322 44 -95 79 -174 79 -177 0 -2
23 -53 51 -113 106 -224 118 -263 84 -263 -20 0 -90 69 -99 97 -4 13 -12 23
-17 23 -5 0 -9 9 -9 19 0 11 -7 26 -15 35 -8 8 -15 19 -15 25 0 5 -16 22 -35
37 l-35 26 -34 -26 c-41 -31 -51 -32 -77 -8 -10 11 -32 25 -47 33 -54 28 -142
129 -142 164 0 26 -46 120 -73 149 -32 34 -52 33 -84 -4 -13 -16 -30 -30 -36
-30 -19 0 -135 128 -157 172 -13 28 -20 62 -20 101 0 57 -2 62 -41 100 -42 39
-57 42 -109 23 -9 -3 -36 14 -69 44 -78 73 -131 96 -159 68 -39 -39 7 -99 135
-174 159 -94 232 -213 144 -238 -65 -19 -68 -91 -4 -121 32 -16 44 -16 104 -6
61 11 70 11 105 -8 22 -11 67 -44 100 -73 34 -29 82 -70 108 -91 48 -40 55
-59 31 -91 -20 -26 -19 -81 1 -100 20 -20 84 -21 131 -1 67 28 50 36 308 -139
72 -49 147 -105 169 -125 37 -35 79 -112 141 -261 36 -86 176 -363 238 -470
255 -440 460 -741 859 -1260 32 -41 91 -114 130 -162 40 -47 102 -121 138
-164 36 -43 92 -108 125 -144 34 -36 77 -85 97 -110 32 -41 145 -163 323 -350
34 -36 98 -96 141 -135 43 -38 133 -124 199 -189 139 -138 138 -156 -6 -77
-50 28 -94 51 -96 51 -3 0 -42 22 -87 48 -44 27 -97 56 -116 66 -19 9 -57 30
-85 47 -27 16 -61 35 -75 42 -14 6 -27 14 -30 17 -3 3 -25 15 -50 28 -45 23
-74 40 -94 55 -6 4 -32 21 -58 37 -66 41 -77 61 -79 155 -2 71 -20 147 -48
203 -5 9 -32 64 -60 122 -71 148 -122 194 -151 139 -12 -21 -11 -22 26 -179 9
-36 19 -85 23 -110 4 -25 14 -64 21 -87 10 -33 10 -45 1 -57 -15 -17 -31 -13
-89 26 -24 15 -45 28 -48 28 -9 0 -99 64 -102 73 -2 4 -10 7 -18 7 -8 0 -14 4
-14 9 0 5 -19 20 -42 34 -24 14 -52 34 -63 44 -11 10 -60 47 -110 82 -104 75
-155 123 -155 147 0 9 12 42 27 73 24 49 28 70 31 178 2 66 -1 141 -6 165 -27
109 -34 134 -43 143 -5 5 -9 19 -9 31 0 13 -7 29 -15 38 -8 8 -15 19 -15 24 0
5 -15 33 -33 61 -25 40 -38 51 -59 51 -23 0 -27 -5 -32 -37 -16 -101 -26 -259
-26 -393 0 -82 -3 -155 -6 -164 -10 -25 -38 -19 -75 16 -19 18 -57 51 -84 72
-72 57 -265 252 -265 268 0 7 10 31 23 53 21 38 22 50 21 235 -1 151 -5 205
-18 240 -8 25 -16 53 -16 63 0 11 -7 35 -16 55 -35 82 -47 108 -55 122 -5 8
-12 22 -16 30 -16 36 -64 52 -80 28 -4 -7 -10 -152 -13 -323 -5 -301 -6 -310
-25 -313 -20 -3 -155 115 -283 248 l-54 55 6 75 c2 41 9 100 15 130 12 69 13
241 1 300 -5 25 -13 68 -19 96 -5 29 -14 60 -19 70 -5 11 -29 59 -53 108 -24
49 -48 94 -54 100 -6 6 -24 29 -40 51 -47 65 -78 95 -97 95 -21 0 -34 -41 -20
-67 24 -45 55 -219 87 -489 19 -165 20 -224 2 -224 -8 0 -47 42 -88 93 -84
105 -245 267 -303 304 -22 14 -49 34 -60 44 -11 11 -32 25 -48 31 -15 7 -28
16 -28 20 0 5 -5 8 -11 8 -6 0 -28 13 -48 29 -87 69 -256 139 -305 127 -49
-12 -35 -48 76 -195 211 -283 415 -452 618 -512 41 -12 91 -30 110 -40 66 -33
280 -275 280 -317 0 -41 -45 -56 -182 -60 -128 -4 -136 -3 -288 43 -115 34
-193 23 -153 -22 27 -31 286 -170 345 -187 29 -8 112 -17 183 -21 140 -6 172
-1 235 42 19 12 37 23 41 23 10 0 66 -47 164 -135 152 -138 210 -204 192 -221
-3 -3 -96 -7 -208 -9 -112 -2 -222 -8 -244 -14 -22 -6 -74 -11 -116 -11 -97 0
-141 -14 -137 -44 7 -46 202 -105 499 -151 128 -20 188 -12 298 40 40 19 81
35 92 35 10 0 33 -13 51 -28 30 -26 230 -183 352 -276 28 -22 56 -45 64 -52 7
-7 33 -28 57 -45 25 -18 45 -38 45 -45 0 -19 -33 -34 -73 -34 -19 0 -47 -5
-63 -10 -16 -6 -58 -14 -94 -19 -108 -16 -143 -26 -209 -62 -73 -39 -91 -60
-75 -86 17 -28 62 -34 199 -28 327 14 420 29 484 77 13 10 31 18 41 18 9 0 68
-32 131 -71 138 -86 264 -159 384 -224 384 -205 627 -345 622 -359 -5 -15
-142 -9 -225 10 -35 8 -77 14 -93 14 -27 0 -146 51 -159 68 -11 16 -118 102
-125 102 -5 0 -16 7 -26 16 -20 18 -70 12 -89 -11 -6 -7 -10 -35 -8 -62 l3
-48 -161 -5 c-172 -5 -194 -12 -194 -55 0 -29 40 -61 91 -75 45 -12 92 -3 183
37 73 32 103 30 374 -18 60 -11 63 -13 58 -35 -3 -13 -9 -35 -12 -49 -9 -37
20 -65 65 -65 26 0 56 13 106 45 110 71 113 71 452 -12 122 -29 232 -88 373
-199 99 -77 408 -301 645 -467 77 -54 290 -182 378 -227 37 -19 66 -39 64 -45
-4 -11 -86 -7 -102 5 -5 5 -28 11 -50 15 -22 4 -62 14 -90 22 -27 8 -68 19
-90 24 -152 38 -211 63 -245 103 -46 55 -145 147 -172 162 -16 8 -28 19 -28
24 0 6 -6 10 -14 10 -8 0 -16 4 -18 8 -11 26 -284 162 -325 162 -47 0 -73 -25
-73 -70 0 -38 3 -40 87 -97 48 -32 95 -62 104 -68 22 -14 118 -68 140 -80 53
-27 -31 -38 -96 -12 -20 8 -101 12 -246 12 -199 0 -219 -2 -238 -19 -27 -24
-26 -32 4 -60 33 -31 129 -62 237 -78 90 -12 127 -10 379 24 73 10 102 9 187
-5 105 -18 152 -31 152 -44 0 -11 -58 -43 -77 -43 -8 0 -27 -6 -41 -13 -15 -8
-42 -21 -60 -30 -19 -9 -40 -17 -48 -17 -8 0 -22 -4 -32 -9 -9 -5 -36 -19 -60
-30 -92 -45 -143 -121 -86 -129 20 -3 169 38 399 110 55 17 125 45 155 62 46
26 65 31 120 30 36 0 94 -7 130 -16 36 -9 99 -24 140 -33 231 -50 237 -52 668
-261 107 -52 197 -94 202 -94 5 0 21 -7 37 -15 15 -8 80 -35 143 -60 63 -26
124 -50 135 -55 11 -4 56 -22 100 -40 44 -18 94 -39 112 -46 17 -8 36 -14 41
-14 6 0 23 -6 39 -14 15 -8 48 -22 73 -31 25 -10 54 -21 65 -26 62 -27 195
-59 340 -84 97 -16 160 -31 255 -61 25 -8 54 -14 66 -14 11 0 24 -4 30 -9 5
-5 32 -14 59 -21 28 -6 75 -18 105 -25 91 -23 193 -47 220 -51 76 -14 191 -36
230 -46 25 -6 65 -14 90 -19 82 -15 155 -30 187 -40 75 -23 460 -52 608 -47
64 2 80 6 83 19 2 9 -5 20 -15 24 -27 12 -185 32 -418 55 -115 11 -233 27
-261 35 -28 8 -65 15 -82 15 -17 0 -43 5 -59 11 -15 6 -50 15 -78 19 -63 11
-140 28 -182 41 -18 6 -54 13 -80 16 -26 3 -55 9 -64 14 -8 4 -37 10 -64 14
-26 3 -52 8 -58 12 -6 4 -29 10 -52 14 -38 7 -101 25 -170 47 -77 26 -111 35
-158 43 -73 12 -157 29 -192 39 -16 5 -50 12 -75 15 -44 6 -84 16 -145 37 -16
5 -41 12 -55 15 -14 3 -34 12 -45 19 -11 8 -27 14 -36 14 -10 0 -30 6 -46 14
-15 8 -39 19 -53 25 -14 5 -46 19 -72 30 -26 12 -51 21 -57 21 -5 0 -22 6 -38
14 -15 8 -41 20 -58 26 -92 37 -154 64 -197 86 -14 8 -33 14 -41 14 -9 0 -28
6 -44 14 -42 22 -100 46 -109 46 -9 0 -106 45 -134 61 -8 5 -22 12 -30 15 -8
3 -22 10 -30 15 -8 5 -22 12 -30 15 -8 4 -58 27 -110 52 -52 24 -133 63 -180
85 -130 61 -263 129 -270 138 -3 3 -19 14 -37 23 -76 39 -221 145 -287 210
-22 23 -77 84 -121 136 -44 52 -89 104 -100 115 -11 11 -42 49 -69 85 -27 36
-54 70 -60 75 -11 10 -78 110 -131 194 -29 46 -30 80 -6 181 12 53 13 202 1
280 -5 30 -13 86 -18 124 -6 37 -15 73 -21 79 -6 6 -11 22 -11 37 0 14 -7 38
-15 54 -8 15 -15 33 -15 40 -1 20 -38 56 -58 56 -11 0 -23 -7 -26 -16 -11 -30
-28 -268 -23 -329 3 -33 1 -68 -5 -78 -9 -17 -11 -17 -27 -3 -9 8 -47 77 -85
153 -38 76 -93 188 -123 248 -31 61 -67 128 -82 150 -14 22 -42 69 -60 105
-19 36 -37 67 -41 70 -4 3 -10 15 -14 28 -4 12 -11 22 -16 22 -4 0 -11 11 -14
25 -4 14 -11 25 -16 25 -6 0 -10 6 -10 13 0 20 -60 77 -82 77 -29 0 -31 -21
-7 -106 12 -43 25 -99 30 -124 17 -98 78 -245 143 -348 14 -23 73 -91 129
-150 127 -131 134 -142 214 -306 77 -156 139 -259 300 -496 34 -49 166 -212
220 -271 75 -81 55 -104 -32 -36 -19 15 -333 242 -355 257 -12 8 -28 20 -34
26 -6 6 -36 28 -66 49 -30 21 -60 43 -66 49 -7 6 -35 29 -64 51 -29 22 -67 54
-85 70 -18 17 -52 48 -76 69 -24 22 -121 114 -214 205 -94 91 -221 213 -284
271 -186 172 -460 450 -520 530 -19 25 -39 50 -46 55 -15 14 -97 125 -113 153
-7 13 -23 42 -35 65 -11 23 -23 44 -26 47 -9 7 -71 134 -71 143 0 4 -13 35
-29 70 -46 99 -61 134 -61 146 0 6 -4 11 -10 11 -5 0 -10 7 -10 15 0 8 -13 43
-28 77 -29 64 -72 169 -82 200 -13 44 -49 140 -54 145 -3 4 -6 16 -6 27 0 12
-7 34 -15 50 -8 15 -15 36 -15 45 0 9 -7 29 -15 45 -8 15 -15 38 -15 50 0 11
-7 34 -15 50 -8 15 -15 37 -15 47 0 10 -6 33 -14 51 -16 39 -35 99 -41 128 -2
11 -15 53 -29 93 -54 157 -52 185 16 289 39 58 85 175 100 253 15 83 22 265 9
265 -6 0 -11 6 -11 14 0 19 -36 24 -78 12 -25 -7 -48 -29 -87 -81 -29 -39 -59
-83 -66 -98 -17 -38 -46 -35 -54 5 -4 18 -12 38 -17 45 -18 22 -12 155 8 194
11 20 36 68 57 107 20 39 37 78 37 86 0 7 7 27 15 42 8 16 15 38 15 49 0 11 7
40 16 64 16 47 23 211 11 248 -4 11 -23 28 -42 37 -59 29 -96 -1 -164 -134
-68 -131 -78 -125 -121 67 -14 62 -12 69 51 200 27 56 49 108 49 116 0 8 7 28
15 43 8 16 15 38 15 50 0 11 5 25 10 30 6 6 16 47 24 92 30 189 -27 278 -119
187 -19 -20 -35 -40 -35 -45 0 -5 -13 -38 -30 -73 -16 -36 -30 -74 -30 -84 0
-23 -11 -40 -29 -45 -13 -3 -34 53 -50 137 -4 22 -14 57 -21 77 -14 38 -7 67
36 150 8 14 14 33 14 41 0 8 7 28 15 43 8 16 15 44 15 62 0 18 4 42 10 52 5
10 15 56 21 102 6 45 13 100 16 121 10 75 -58 153 -110 126 -38 -21 -64 -65
-93 -161 -8 -26 -19 -50 -24 -53 -5 -3 -22 14 -37 37 -15 24 -31 45 -35 46 -5
2 -8 9 -8 14 0 14 -58 108 -81 131 -43 41 -88 10 -96 -66 -10 -101 67 -296
191 -480 36 -53 66 -104 66 -113 0 -26 -28 -27 -62 -1 -51 39 -105 57 -168 57
-53 0 -61 -3 -84 -31 -33 -39 -34 -85 -2 -147 27 -53 23 -50 201 -145 169 -90
189 -106 209 -164 21 -61 20 -96 -3 -124 -18 -22 -19 -22 -44 -6 -19 12 -47
17 -100 17 -65 0 -76 -3 -97 -25 -17 -18 -25 -40 -28 -79 -4 -53 -3 -55 42
-104 25 -27 65 -57 88 -67 173 -73 215 -101 248 -165 32 -62 77 -297 61 -313
-10 -10 -82 12 -92 27 -4 5 -30 11 -57 14 -47 4 -54 2 -82 -26 -24 -24 -30
-39 -30 -71 0 -62 55 -116 183 -181 184 -93 171 -78 216 -253 38 -148 45 -193
31 -202 -6 -4 -48 11 -93 33 -132 63 -139 66 -180 49 -39 -17 -54 -54 -42
-107 10 -45 52 -116 85 -144 60 -50 177 -115 232 -130 66 -17 87 -27 111 -53
16 -18 60 -139 144 -397 46 -143 108 -296 172 -426 85 -172 113 -242 101 -254
-12 -12 -23 -1 -85 79 -16 21 -40 50 -53 66 -12 15 -22 32 -22 38 0 6 -3 11
-7 11 -5 0 -19 17 -33 38 -24 35 -29 42 -57 76 -7 8 -13 18 -13 22 0 5 -56 81
-70 94 -3 3 -30 41 -60 85 -30 44 -60 86 -68 94 -8 8 -25 33 -39 55 -15 22
-31 46 -37 53 -29 32 -36 43 -36 52 0 5 -6 16 -13 23 -15 14 -130 187 -192
287 -22 35 -48 75 -57 90 -10 14 -21 33 -25 41 -4 8 -24 43 -45 78 -21 34 -38
66 -38 71 0 5 -6 16 -12 23 -7 7 -29 43 -48 81 -19 37 -44 77 -55 90 -27 29
-95 141 -95 156 0 6 -4 19 -9 29 -13 28 -38 84 -56 127 -20 49 -40 95 -59 138
-8 17 -22 54 -32 80 -9 26 -21 50 -25 53 -5 3 -9 12 -9 20 0 8 -9 36 -21 62
-11 26 -24 56 -29 67 -4 11 -39 85 -78 165 -89 186 -125 264 -147 320 -9 25
-24 57 -32 73 -8 15 -12 27 -8 27 3 0 -2 17 -11 37 -9 21 -24 65 -35 98 -10
33 -23 69 -28 80 -5 11 -12 29 -15 40 -2 11 -12 40 -21 65 -17 49 -21 60 -26
75 -1 6 -20 60 -41 120 -80 225 -78 218 -78 332 0 69 6 123 15 148 8 22 14 56
15 76 0 72 29 131 96 196 74 72 80 98 39 163 -29 46 -29 49 -11 92 8 18 21 49
30 70 9 20 16 39 16 44 0 21 57 77 100 99 75 38 120 82 120 116 0 22 -6 32
-24 39 -40 15 -48 41 -25 79 59 97 81 149 86 203 4 39 2 63 -7 73 -29 35 -75
5 -85 -56 -10 -58 -28 -123 -37 -135 -6 -8 -19 -6 -47 8 -47 23 -75 14 -85
-28 -5 -19 1 -41 24 -81 l32 -56 -37 -73 -36 -74 -55 2 c-40 2 -58 -2 -64 -12
-17 -26 -11 -69 16 -122 23 -45 25 -56 16 -87 -6 -20 -25 -94 -42 -166 -42
-174 -38 -159 -64 -258 -13 -48 -26 -90 -29 -94 -15 -14 -36 9 -42 44 -3 21
-11 56 -17 78 -6 22 -15 58 -19 80 -4 22 -13 64 -20 92 -12 53 -11 70 21 363
5 47 14 101 20 120 5 19 10 57 10 85 0 27 7 75 15 105 8 30 15 75 15 100 0 25
7 77 15 115 8 39 15 93 15 122 0 28 5 64 10 79 6 15 15 62 20 103 5 42 16 114
25 161 8 47 20 114 25 150 6 36 15 78 20 94 6 16 10 43 10 60 0 38 40 164 63
199 9 13 41 38 71 56 56 31 99 82 111 133 9 37 -19 76 -61 84 -45 8 -51 35
-26 116 11 35 28 90 37 123 25 87 53 119 122 141 68 22 109 57 117 102 5 27 1
38 -21 58 -14 13 -36 24 -47 24 -49 0 -49 16 -2 138 25 67 40 80 96 83 70 4
148 43 214 107 72 70 92 111 74 150 -21 43 -59 50 -131 23 -91 -34 -94 -34
-101 -15 -8 20 97 234 129 264 14 13 60 27 140 43 113 22 123 26 167 66 47 42
48 44 48 102 0 51 -3 61 -25 75 -24 16 -38 16 -121 -1 -40 -9 -49 5 -32 53 13
37 104 193 156 267 31 44 33 44 144 30 99 -13 188 36 188 105 0 58 -26 74
-122 79 l-80 3 5 38 c7 55 32 74 117 95 41 10 89 23 105 31 17 7 51 22 77 33
83 37 124 126 76 171 -33 31 -65 24 -163 -35 -55 -33 -94 -50 -100 -44 -5 5
-8 28 -6 52 2 47 -20 112 -43 120 -25 10 -56 -5 -71 -34 -18 -34 -19 -80 -4
-202 11 -87 10 -95 -9 -132 -36 -67 -50 -81 -70 -69 -9 6 -20 26 -23 43 -4 18
-12 38 -18 44 -6 6 -11 19 -11 28 0 26 -48 59 -86 59 -20 0 -43 -9 -61 -24
-24 -21 -27 -31 -27 -79 1 -45 7 -63 33 -98 37 -53 81 -138 81 -160 0 -17
-137 -249 -153 -261 -19 -12 -36 4 -42 43 -9 55 -61 109 -105 109 -49 0 -100
-55 -100 -109 0 -48 11 -72 75 -165 25 -36 45 -72 45 -79 0 -6 -20 -47 -45
-91 -25 -43 -45 -82 -45 -86 0 -4 -8 -11 -17 -15 -13 -4 -26 4 -47 30 -16 20
-44 42 -62 50 -29 12 -40 12 -78 -1 -37 -13 -49 -23 -67 -61 -20 -40 -21 -50
-10 -97 12 -52 22 -71 79 -146 42 -56 41 -90 -4 -209 -44 -118 -61 -151 -77
-151 -7 0 -30 18 -51 40 -47 50 -76 52 -121 7 -57 -57 -58 -120 -3 -166 95
-80 100 -88 93 -132 -11 -62 -73 -231 -93 -251 -15 -15 -23 -16 -54 -6 -55 16
-98 1 -122 -43 -28 -51 -10 -89 60 -135 30 -18 54 -38 54 -43 0 -9 -26 -119
-65 -271 -7 -30 -21 -91 -30 -135 -10 -44 -24 -107 -31 -141 -8 -33 -14 -72
-14 -86 0 -14 -4 -38 -10 -54 -5 -16 -14 -65 -20 -109 -16 -122 -37 -290 -50
-395 -6 -52 -13 -102 -16 -110 -5 -13 -19 -138 -39 -355 -9 -93 -14 -107 -32
-103 -19 4 -38 86 -53 230 -5 49 -12 93 -15 98 -4 6 -11 48 -15 93 -12 118
-29 244 -42 307 -17 82 -23 792 -8 927 7 59 16 160 20 223 8 121 21 246 46
420 8 58 14 130 14 160 0 30 7 77 15 104 8 27 15 66 15 87 0 21 5 50 11 66 6
15 15 57 20 93 4 36 15 103 24 150 8 47 19 110 24 140 18 108 32 186 47 247 8
34 14 78 14 98 0 20 5 45 11 56 6 11 14 50 19 87 12 90 30 170 46 209 8 17 14
35 14 41 0 13 45 97 93 172 87 137 214 279 302 340 43 30 50 31 108 25 104
-11 329 -9 382 3 76 18 159 64 163 89 5 32 -20 40 -159 53 -120 10 -179 24
-179 40 0 16 51 49 148 96 53 26 99 51 100 56 2 4 8 8 14 8 6 0 29 15 52 34
129 107 196 198 199 270 l2 41 -46 -1 c-56 -2 -82 -15 -225 -110 -124 -82
-154 -115 -183 -200 -26 -79 -67 -125 -148 -168 -87 -47 -107 -47 -99 -3 13
65 18 137 12 162 -5 19 -13 25 -35 25 -37 0 -51 -18 -100 -120 -41 -87 -57
-139 -66 -222 -6 -43 -14 -56 -91 -134 -46 -48 -84 -91 -84 -95 0 -5 -9 -13
-21 -19 -47 -26 -53 31 -13 127 8 17 14 38 14 46 0 8 7 28 15 43 8 16 15 36
15 45 0 9 7 30 15 45 8 16 15 39 15 51 0 12 4 24 9 27 5 3 12 18 15 33 13 53
77 224 125 335 12 26 21 52 21 58 0 5 4 18 9 28 13 28 38 84 56 127 9 22 23
55 31 73 33 75 45 104 59 134 7 18 24 56 35 83 105 241 155 316 322 481 191
188 335 295 369 273 8 -5 28 -9 44 -9 17 0 41 -7 55 -15 36 -21 183 -20 215 1
28 19 35 73 11 96 -15 16 -79 44 -119 53 -37 7 -33 34 8 55 17 8 32 17 35 20
10 10 95 49 120 55 14 3 50 -2 80 -10 199 -57 258 -65 306 -39 72 39 50 99
-52 145 -35 16 -64 35 -64 42 0 15 77 57 103 57 9 0 18 4 21 9 3 5 27 14 52
20 44 11 104 5 164 -17 19 -7 169 -31 239 -38 88 -10 150 41 120 97 -12 24
-68 54 -132 73 -31 9 -59 21 -62 26 -4 6 14 33 39 61 25 28 46 57 46 65 0 8 5
14 10 14 17 0 11 36 -8 53 -39 35 -132 10 -199 -53 -18 -17 -57 -61 -87 -98
-29 -37 -62 -75 -72 -84 -26 -23 -71 -39 -89 -32 -19 8 -19 51 0 84 24 42 19
95 -11 119 -34 27 -70 27 -110 -1 -39 -27 -60 -68 -69 -134 -4 -27 -11 -62
-16 -79 -4 -16 -11 -42 -14 -56 -3 -20 -24 -39 -79 -73 -106 -66 -116 -62
-116 40 0 40 -5 59 -20 74 -55 55 -125 29 -177 -65 -28 -52 -33 -70 -33 -130
0 -48 -6 -80 -17 -102 -11 -18 -81 -78 -166 -142 -82 -61 -185 -140 -229 -176
-45 -36 -85 -65 -90 -65 -15 0 -8 37 15 81 13 24 52 91 85 147 34 57 62 106
62 108 0 14 289 457 302 462 5 2 8 10 8 17 0 8 6 18 13 22 6 4 35 42 62 83 28
41 55 80 60 86 6 6 17 22 25 34 8 12 23 32 32 43 29 37 32 40 83 107 27 36 55
71 63 79 7 8 21 26 30 40 28 44 52 70 177 197 109 111 241 214 272 214 7 0 13
4 13 9 0 5 8 11 18 15 9 3 36 17 59 30 22 13 53 26 67 30 14 3 26 11 26 16 0
6 8 10 18 10 18 0 61 17 106 42 10 5 30 12 44 14 14 3 34 11 46 19 11 8 32 15
47 15 14 0 29 3 33 7 7 8 35 15 176 50 95 23 227 28 248 10 10 -8 24 -17 32
-21 8 -3 38 -20 65 -36 28 -17 59 -35 70 -40 11 -6 40 -22 64 -35 24 -14 49
-25 56 -25 7 0 26 -7 44 -16 45 -23 194 -25 216 -3 14 14 12 19 -22 59 -47 55
-134 111 -218 141 -37 13 -65 29 -65 36 0 16 58 43 92 43 12 0 40 6 63 14 22
8 68 23 102 33 35 10 63 21 63 26 0 4 9 7 19 7 42 0 286 142 296 173 4 10 1
25 -6 34 -18 21 -125 10 -257 -28 -128 -36 -198 -75 -287 -159 -77 -72 -78
-72 -271 -105 -120 -20 -154 -20 -154 1 0 15 55 89 96 130 24 23 89 120 111
164 4 8 13 21 20 28 7 7 13 20 13 28 0 8 5 14 10 14 6 0 10 5 10 11 0 10 26
71 51 121 5 10 9 29 9 43 0 21 -5 25 -31 25 -25 0 -48 -16 -123 -87 -51 -49
-118 -109 -149 -135 -56 -49 -164 -175 -197 -232 -10 -17 -28 -61 -40 -98 -12
-37 -27 -71 -33 -76 -7 -5 -59 -24 -117 -43 -126 -39 -256 -94 -356 -149 -40
-22 -76 -40 -79 -40 -16 0 0 40 38 89 49 65 337 355 417 421 48 39 140 126
294 275 22 22 73 66 111 98 39 32 79 66 90 76 11 10 34 26 50 36 17 10 35 23
40 29 13 14 39 30 95 58 25 13 47 26 48 31 2 4 10 7 19 7 8 0 27 6 41 14 32
16 158 74 187 87 97 40 122 51 137 59 39 22 94 22 141 1 25 -12 53 -21 61 -21
8 0 17 -4 20 -9 3 -5 20 -11 38 -14 18 -3 51 -10 73 -16 86 -22 216 -35 236
-23 10 7 26 12 34 12 25 0 75 42 75 62 0 23 -24 33 -125 53 -83 17 -185 57
-185 73 0 13 63 42 90 42 12 0 43 7 69 15 100 31 154 45 177 45 12 0 25 4 29
9 3 5 30 13 60 16 31 4 58 11 61 16 7 13 143 11 205 -2 66 -14 339 5 383 27
16 8 37 14 46 14 9 0 25 7 36 15 10 8 26 15 35 15 23 0 61 45 57 67 -4 24 -74
33 -194 26 -76 -5 -93 -3 -107 12 -16 15 -14 20 28 75 25 32 45 63 45 69 0 6
4 11 9 11 17 0 23 40 10 57 -10 12 -26 14 -67 10 -87 -9 -170 -62 -307 -197
-66 -64 -133 -124 -150 -132 -16 -8 -64 -23 -105 -32 -41 -9 -94 -22 -118 -28
-33 -8 -46 -8 -55 1 -9 10 -2 21 33 51 25 22 49 40 54 40 9 0 58 49 127 126
14 16 34 43 45 59 10 17 21 32 25 35 7 6 29 46 29 54 0 26 -76 -5 -308 -122
-48 -25 -102 -85 -175 -192 -74 -111 -96 -127 -267 -199 -69 -29 -134 -56
-145 -61 -91 -40 -222 -90 -237 -90 -30 0 -21 33 17 59 19 13 46 33 59 46 14
13 46 38 73 56 26 19 53 39 58 45 6 6 33 26 60 44 28 19 52 36 55 39 3 4 45
33 93 65 49 32 94 65 102 72 7 8 16 14 19 14 7 0 122 81 147 103 9 8 40 30 68
48 28 19 51 37 51 41 0 5 4 8 9 8 8 0 98 55 126 77 6 4 42 24 80 43 39 19 72
38 75 41 6 8 105 61 260 140 58 30 107 57 108 61 2 5 10 8 17 8 8 0 20 6 27
13 16 14 85 52 186 102 79 38 120 43 216 24 65 -13 146 0 204 34 39 23 41 49
6 82 -30 28 -26 52 8 59 66 13 173 28 253 36 131 12 245 32 245 42 0 4 9 8 19
8 21 0 100 57 137 98 13 15 24 37 24 50 0 32 -13 31 -175 -13 -81 -21 -147
-37 -190 -45 -119 -22 -309 -88 -461 -160 -233 -110 -301 -140 -325 -140 -5 0
-9 6 -9 14 0 13 20 32 135 131 84 72 135 97 229 113 52 8 101 22 112 31 26 23
44 56 44 83 1 34 27 59 100 97 36 19 72 39 80 46 8 7 35 22 60 34 25 12 61 32
80 43 27 16 57 22 135 25 158 7 216 37 213 109 -1 39 3 46 43 81 75 65 120
116 140 160 27 59 18 73 -47 73 -52 0 -56 -2 -112 -58z m78 -41 c0 -10 -30
-24 -37 -17 -3 3 -2 9 2 15 8 13 35 15 35 2z m-2434 -528 c-8 -33 -86 -188
-124 -247 -15 -22 -29 -45 -32 -51 -3 -5 -36 -56 -74 -112 -46 -70 -74 -103
-87 -103 -11 0 -19 4 -19 10 0 11 36 112 56 157 8 17 14 38 14 46 0 9 4 17 8
19 4 2 18 23 31 48 40 77 88 143 147 203 63 64 90 74 80 30z m1502 -399 c-9
-9 -21 -13 -27 -9 -16 10 -3 25 22 25 20 0 20 -1 5 -16z m-868 -204 c0 -32
-22 -70 -42 -70 -21 0 -25 38 -8 71 14 25 50 25 50 -1z m-1602 -152 c8 -8 12
-50 12 -124 0 -61 5 -136 11 -165 5 -30 14 -83 18 -119 5 -36 18 -88 29 -117
18 -46 18 -54 5 -65 -12 -10 -18 -9 -30 7 -52 69 -71 166 -78 408 -4 150 -3
187 8 187 7 0 18 -5 25 -12z m792 -57 c0 -27 -188 -164 -284 -206 -64 -28 -66
-29 -66 -15 0 19 59 63 198 145 9 6 35 22 57 35 83 52 95 58 95 41z m1185
-201 c9 -15 -62 -87 -125 -125 -63 -38 -80 -43 -80 -21 0 18 102 111 149 136
42 22 48 23 56 10z m-600 -115 c0 -20 -96 -95 -122 -95 -22 0 -14 28 19 66 48
54 103 70 103 29z m710 -95 c0 -19 -112 -49 -187 -50 -96 0 -71 33 37 50 38 6
72 13 74 16 3 3 21 4 41 2 23 -2 35 -8 35 -18z m-1017 -343 c3 -13 -4 -17 -28
-17 -35 0 -100 25 -100 38 0 17 11 18 67 7 40 -8 59 -17 61 -28z m-2474 -648
c29 -34 34 -69 11 -69 -12 0 -65 75 -65 93 0 18 31 4 54 -24z m1426 -77 c0
-34 -178 -242 -207 -242 -26 0 -12 38 37 103 60 79 170 169 170 139z m680 -71
c0 -17 -54 -49 -118 -70 -91 -31 -127 -26 -84 12 41 37 202 83 202 58z m-472
-307 c67 -18 177 -71 199 -96 19 -21 11 -48 -14 -48 -21 0 -231 104 -252 125
-7 7 -10 18 -7 24 9 14 7 14 74 -5z m-1471 -71 c5 -15 -44 -71 -77 -88 -48
-25 -55 6 -12 52 43 48 80 63 89 36z m-1267 -667 c0 -12 -6 -31 -14 -41 -13
-18 -14 -17 -30 13 -19 37 -20 64 -3 81 10 10 15 8 30 -10 9 -11 17 -31 17
-43z m1820 -375 c-16 -31 -59 -56 -71 -44 -15 15 8 48 45 66 34 16 43 9 26
-22z m-385 -21 c14 -46 -34 -140 -72 -140 -21 0 -13 95 11 133 21 32 52 35 61
7z m-1645 -42 c24 -39 27 -98 5 -98 -28 0 -65 52 -65 92 0 31 4 38 20 38 12 0
28 -13 40 -32z m2140 -108 c42 -22 54 -55 24 -67 -20 -7 -242 26 -249 37 -8
13 24 33 63 41 69 13 122 9 162 -11z m-920 -81 c15 -27 6 -62 -31 -116 -49
-71 -98 -53 -82 31 6 33 68 106 90 106 7 0 17 -9 23 -21z m-1020 -19 c0 -29
-59 -92 -83 -88 -34 5 -30 24 13 67 45 45 70 52 70 21z m1364 -125 c11 -8 27
-15 37 -15 22 0 33 -29 17 -47 -15 -18 -87 -12 -161 13 -51 17 -62 27 -53 49
8 21 133 20 160 0z m-1716 -42 c50 -54 69 -147 36 -174 -15 -12 -23 -7 -65 39
-44 48 -49 58 -49 101 0 26 3 51 7 54 14 15 47 6 71 -20z m1296 -218 c20 -8
36 -21 36 -29 0 -21 -36 -26 -101 -14 -58 10 -86 28 -74 48 9 15 97 12 139 -5z
m-1074 -117 c0 -24 -93 -118 -116 -118 -30 0 -12 39 40 89 60 56 76 62 76 29z
m-362 -212 c35 -31 58 -85 45 -105 -19 -30 -43 -24 -88 22 -50 49 -55 67 -25
97 22 22 31 20 68 -14z m192 -395 c0 -21 -65 -81 -87 -81 -43 0 35 97 80 100
4 0 7 -9 7 -19z m-358 -218 c52 -60 43 -99 -17 -70 -50 24 -62 87 -16 87 10 0
25 -8 33 -17z m1202 -387 c-6 -16 -171 -158 -203 -175 -52 -28 -48 27 6 84 46
50 174 120 195 108 4 -2 5 -10 2 -17z m-279 -440 c22 -8 40 -20 40 -27 0 -20
-71 -37 -157 -38 -89 -1 -108 4 -108 30 0 13 12 21 43 29 23 6 47 13 52 15 24
8 93 4 130 -9z m701 -281 c10 -25 -20 -59 -75 -84 -39 -19 -54 -22 -63 -13
-14 14 7 40 66 83 44 32 64 36 72 14z m-508 -190 c41 -52 53 -165 17 -165 -24
0 -85 89 -85 126 0 67 31 86 68 39z m291 -194 c35 -22 -18 -61 -84 -61 -44 0
-54 18 -24 41 34 26 84 35 108 20z m-571 -263 c17 -22 43 -124 36 -144 -17
-45 -26 -46 -63 -3 -66 77 -74 102 -41 137 23 24 52 29 68 10z m-1476 -157
c84 -84 99 -104 96 -127 -5 -41 -24 -40 -66 3 -34 34 -57 61 -140 165 -24 28
-24 58 -1 58 7 0 57 -45 111 -99z m381 -11 c17 -95 -7 -234 -54 -314 l-17 -28
-12 23 c-17 30 -6 206 15 245 8 16 15 40 15 54 1 80 39 95 53 20z m1399 -110
c-7 -60 -111 -123 -197 -118 -63 4 -69 23 -22 70 42 42 129 78 182 75 36 -2
40 -4 37 -27z m-509 -216 c25 -50 23 -144 -3 -172 -32 -34 -63 -15 -100 63
-20 40 -26 111 -12 131 29 43 90 32 115 -22z m-2342 -28 c14 -29 3 -99 -13
-94 -7 3 -18 23 -26 46 -11 34 -11 46 -2 57 18 21 29 19 41 -9z m-203 -106
c32 -19 61 -64 50 -76 -8 -7 -67 23 -95 49 -48 43 -15 63 45 27z m1258 -16
c22 -9 76 -40 122 -70 45 -30 87 -54 92 -54 6 0 10 -4 10 -9 0 -5 8 -12 18
-15 27 -9 63 -46 57 -57 -12 -18 -45 -8 -137 40 -160 83 -218 126 -218 160 0
25 6 26 56 5z m1509 -154 c8 -13 -17 -60 -47 -87 -60 -56 -174 -72 -153 -21 7
14 116 99 143 110 25 10 50 9 57 -2z m-2131 -89 c19 -59 22 -201 4 -219 -19
-19 -27 -15 -44 26 -38 85 -34 242 6 242 12 0 22 -14 34 -49z m1653 -207 c26
-47 22 -74 -12 -74 -31 0 -75 37 -75 62 0 27 29 60 49 56 9 -2 26 -22 38 -44z
m-1949 -5 c58 -20 23 -46 -65 -48 -72 -2 -129 35 -92 61 17 11 110 3 157 -13z
m773 -391 c33 -79 -3 -260 -44 -219 -18 18 -16 213 2 235 19 23 27 20 42 -16z
m-390 -58 c24 -11 55 -29 69 -40 38 -31 12 -40 -117 -40 -103 0 -114 2 -133
22 -11 12 -20 27 -20 34 0 45 124 59 201 24z m1425 -96 c16 -23 16 -26 1 -42
-15 -15 -19 -15 -52 1 -22 11 -35 24 -35 36 0 38 62 42 86 5z m124 -241 c-1
-14 -27 -43 -39 -43 -14 0 -14 6 -1 31 10 18 40 27 40 12z m-1171 -241 c52
-26 82 -54 70 -67 -12 -12 -139 -16 -172 -6 -53 18 -98 90 -64 105 25 11 114
-6 166 -32z m331 -72 c13 -25 -5 -103 -23 -97 -16 5 -21 71 -7 97 13 25 17 25
30 0z m-311 -742 c10 -24 24 -56 31 -73 16 -37 25 -215 12 -234 -15 -21 -47 3
-60 46 -14 43 -20 84 -29 202 -5 65 -3 85 8 92 8 5 15 9 16 9 2 0 11 -19 22
-42z m-335 -48 c57 -39 85 -64 112 -102 30 -39 30 -48 3 -48 -32 0 -87 36
-151 99 -64 61 -77 98 -31 87 14 -4 45 -20 67 -36z m754 -636 c3 -96 -20 -204
-44 -204 -36 0 -43 110 -14 225 27 108 54 99 58 -21z m-396 53 c71 -15 89 -30
57 -47 -43 -24 -235 14 -247 49 -5 15 115 13 190 -2z m2022 -545 c17 -52 -55
-399 -86 -418 -22 -14 -29 20 -29 149 0 130 2 140 31 211 17 41 37 77 43 79
18 6 36 -3 41 -21z m-1671 -3 c32 -16 67 -51 67 -65 0 -20 -27 -24 -76 -9 -53
16 -114 54 -114 73 0 16 93 16 123 1z m1345 -9 c48 -45 122 -233 122 -310 0
-61 -28 -32 -89 93 -45 91 -59 134 -68 200 -6 42 3 46 35 17z m-21 -556 c58
-20 121 -70 168 -134 47 -64 60 -99 39 -107 -9 -3 -25 -1 -35 5 -10 7 -24 12
-31 12 -7 0 -40 14 -72 30 -32 17 -65 30 -71 30 -7 0 -34 20 -59 45 -53 51
-62 93 -24 119 28 20 27 20 85 0z m541 -100 c3 -47 -34 -190 -79 -304 -40 -99
-43 -104 -64 -109 -16 -3 -17 3 -11 65 25 262 71 400 130 392 17 -2 22 -11 24
-44z m-333 -514 c50 -34 125 -141 125 -177 0 -22 -3 -24 -22 -18 -13 3 -36 10
-53 15 -69 20 -131 45 -143 57 -7 7 -21 18 -30 25 -9 7 -23 23 -29 35 -47 84
58 127 152 63z m-1437 -102 c-7 -19 -38 -22 -38 -4 0 10 9 16 21 16 12 0 19
-5 17 -12z m1920 -127 c-3 -53 -10 -107 -15 -121 -6 -14 -18 -52 -28 -85 -10
-33 -32 -86 -48 -118 -55 -106 -93 -58 -81 101 4 40 10 75 15 78 5 3 9 12 9
20 0 18 28 84 72 169 60 118 83 105 76 -44z m-331 -490 c92 -59 159 -184 90
-168 -96 22 -217 113 -217 164 0 17 29 43 49 43 10 0 45 -17 78 -39z m477
-192 c-3 -110 -79 -337 -118 -352 -20 -8 -56 45 -56 81 0 74 69 256 119 314
40 46 56 34 55 -43z m-2361 -377 c281 -174 617 -485 573 -529 -13 -14 -185 56
-216 87 -3 3 -23 17 -45 31 -70 46 -217 185 -305 289 -30 36 -61 71 -68 79
-74 77 -37 104 61 43z m803 -73 c55 -131 68 -207 67 -369 -2 -144 -12 -205
-35 -198 -7 3 -18 27 -25 54 -12 46 -19 100 -43 334 -5 52 -15 125 -21 162
-22 122 9 131 57 17z m1169 3 c53 -27 152 -101 190 -143 26 -29 35 -48 33 -67
-3 -23 -8 -27 -42 -30 -34 -3 -62 6 -133 40 -12 6 -50 39 -83 74 -68 70 -86
117 -55 141 20 14 40 11 90 -15z m-587 -666 c19 -60 52 -254 52 -310 -1 -51
-34 -137 -55 -143 -13 -3 -45 41 -53 75 -3 15 -5 43 -5 62 7 180 15 337 19
348 7 23 29 7 42 -32z m-404 -282 c26 -10 38 -41 26 -64 -20 -38 -66 -52 -149
-47 -156 12 -247 25 -279 42 -39 20 -37 41 4 38 128 -10 243 -4 299 15 69 23
77 24 99 16z m1014 -256 c30 -57 42 -329 19 -398 -14 -42 -49 -53 -67 -20 -18
34 -23 178 -11 289 17 145 33 179 59 129z m-763 -283 c116 -8 223 -15 238 -15
23 0 28 -4 25 -22 -6 -44 -160 -72 -263 -48 -22 5 -69 12 -105 16 -36 3 -72
10 -80 14 -8 4 -32 10 -52 14 -43 8 -51 31 -15 46 29 11 12 12 252 -5z m1533
-547 c24 -50 33 -139 15 -145 -7 -3 -13 1 -13 9 0 7 -7 26 -15 41 -8 15 -17
45 -20 65 -4 20 -9 45 -12 55 -9 35 24 16 45 -25z m1278 -90 c44 -86 25 -109
-25 -29 -16 27 -33 67 -36 88 l-6 38 21 -25 c12 -14 33 -46 46 -72z m-1797 -4
c12 -11 8 -16 -31 -33 -37 -16 -74 -20 -204 -22 -100 -2 -158 0 -157 6 2 11
72 29 183 46 41 6 93 15 115 19 46 8 74 4 94 -16z m2257 -311 c16 -84 18 -279
3 -289 -18 -11 -28 8 -44 86 -22 103 -25 267 -5 280 22 14 31 -1 46 -77z
m-1860 -335 c7 -11 -21 -38 -41 -38 -20 0 -48 27 -41 38 4 7 22 12 41 12 19 0
37 -5 41 -12z m1692 -757 c82 -53 120 -87 109 -97 -8 -9 -85 23 -122 50 -16
12 -41 27 -55 34 -42 22 -93 70 -86 81 10 15 57 -6 154 -68z m-175 -196 c28
-11 14 -30 -24 -33 -44 -5 -130 6 -149 18 -13 9 -13 11 0 21 16 11 141 6 173
-6z"/>
<path d="M19487 15343 c-14 -13 -6 -41 29 -114 20 -41 51 -108 71 -149 84
-180 127 -265 135 -268 4 -2 8 -9 8 -15 0 -6 21 -43 47 -81 78 -117 199 -224
325 -286 73 -36 110 -83 188 -240 71 -144 82 -168 115 -245 19 -46 33 -78 68
-155 13 -30 35 -80 47 -110 12 -30 26 -59 31 -64 5 -6 9 -16 9 -23 0 -8 14
-44 31 -81 16 -37 35 -78 41 -92 5 -14 16 -38 23 -55 94 -213 96 -295 5 -163
-63 90 -145 193 -205 258 -74 79 -79 91 -80 200 0 77 -6 109 -28 170 -27 75
-75 138 -96 126 -7 -5 -11 -42 -11 -97 0 -81 -2 -89 -19 -89 -11 0 -34 18 -53
42 -62 79 -343 360 -416 416 -106 82 -165 122 -179 122 -27 0 -11 -55 40 -138
30 -48 75 -130 101 -183 52 -107 107 -171 176 -207 25 -12 52 -27 60 -31 35
-20 92 -41 110 -41 10 0 21 -4 25 -9 3 -5 20 -13 38 -16 30 -7 146 -108 147
-128 0 -10 37 -62 68 -97 23 -26 29 -55 13 -64 -18 -11 -299 35 -415 68 -66
19 -125 32 -133 29 -19 -7 -16 -47 5 -66 31 -28 216 -147 230 -147 6 0 12 -4
12 -10 0 -5 5 -10 11 -10 12 0 66 -22 112 -46 16 -8 37 -14 47 -14 9 0 34 -7
53 -15 51 -21 122 -19 194 7 l62 23 32 -30 c30 -29 139 -169 139 -180 0 -3 14
-24 30 -47 17 -22 30 -47 30 -55 0 -7 4 -13 8 -13 4 0 15 -15 23 -32 8 -18 30
-62 48 -98 36 -70 50 -103 74 -165 47 -125 65 -180 72 -217 3 -13 9 -34 15
-48 9 -22 20 -67 37 -152 4 -22 2 -28 -12 -28 -31 0 -82 69 -107 143 -12 39
-31 79 -42 88 -19 18 -45 15 -59 -8 -13 -21 -40 -15 -73 16 -17 16 -63 46
-101 66 -59 31 -74 35 -92 26 -27 -15 -27 -51 -1 -84 21 -27 104 -71 155 -82
50 -11 97 -38 137 -79 38 -38 39 -40 32 -95 -8 -72 6 -87 72 -77 44 6 49 4 81
-31 19 -20 39 -46 44 -57 5 -12 13 -28 17 -36 25 -43 33 -65 52 -136 11 -43
20 -92 20 -110 0 -18 4 -43 9 -56 5 -13 12 -56 15 -97 4 -40 10 -81 15 -90 5
-9 11 -49 14 -90 3 -41 11 -79 17 -85 5 -5 10 -28 10 -49 0 -22 6 -69 14 -106
8 -36 20 -138 27 -226 6 -88 15 -200 20 -250 24 -278 30 -383 27 -497 -2 -69
-6 -130 -11 -134 -15 -15 -32 19 -58 119 -15 56 -35 127 -44 157 -9 30 -20 71
-25 90 -9 38 -24 83 -49 145 -21 52 -20 157 3 215 22 58 19 148 -6 164 -27 16
-71 -4 -90 -43 -34 -67 -41 -68 -80 -9 -30 48 -81 152 -121 248 -8 19 -26 48
-41 63 -21 23 -33 28 -64 25 -34 -3 -37 -6 -40 -37 -6 -58 6 -79 89 -166 91
-94 96 -113 34 -131 -51 -14 -69 -52 -40 -84 14 -16 31 -20 75 -20 42 0 64 -5
83 -20 38 -30 147 -223 147 -260 0 -13 -47 -13 -55 0 -3 6 -19 10 -36 10 -22
0 -34 -8 -49 -32 -11 -18 -20 -40 -20 -49 0 -28 84 -97 127 -105 21 -4 50 -13
65 -21 27 -13 58 -59 58 -85 0 -7 6 -25 14 -40 8 -14 17 -45 21 -67 4 -23 11
-43 16 -47 5 -3 9 -17 9 -32 0 -15 6 -47 14 -72 58 -184 83 -359 66 -468 -6
-42 -15 -136 -19 -208 -4 -72 -11 -136 -15 -142 -3 -6 -11 -66 -16 -134 -12
-162 -28 -301 -42 -363 -6 -27 -14 -77 -18 -110 -7 -58 -20 -129 -40 -225 -5
-25 -12 -67 -16 -95 -3 -27 -9 -54 -12 -60 -4 -5 -9 -32 -13 -60 -4 -27 -12
-70 -18 -95 -6 -25 -16 -65 -23 -90 -6 -25 -14 -65 -19 -90 -7 -43 -12 -63
-46 -190 -18 -70 -44 -130 -55 -130 -13 0 -9 158 7 269 13 82 14 118 5 175
-33 211 -25 257 61 375 73 101 112 246 89 332 -10 37 -13 40 -43 37 -29 -3
-36 -10 -77 -93 -50 -100 -71 -113 -81 -50 -28 176 -60 344 -85 450 -30 128
-30 138 8 181 67 79 117 178 152 309 9 33 21 74 26 90 16 51 21 109 12 124
-10 14 -52 7 -52 -9 0 -5 -6 -15 -13 -22 -23 -24 -77 -96 -77 -102 0 -4 -13
-21 -30 -39 -16 -17 -37 -46 -46 -63 -9 -17 -26 -37 -37 -43 -36 -23 -49 8
-95 214 -6 28 -19 81 -28 118 -17 71 -16 90 10 197 34 137 49 250 53 394 3 82
2 159 -1 171 -7 28 -31 38 -56 25 -26 -14 -101 -175 -115 -247 -9 -45 -41 -45
-53 0 -9 32 -71 195 -96 252 -29 65 -28 89 4 181 43 124 60 233 63 403 2 161
-12 241 -43 241 -19 0 -31 -22 -54 -105 -10 -33 -22 -73 -28 -90 -6 -16 -12
-43 -15 -60 -3 -16 -11 -44 -19 -62 -8 -17 -14 -42 -14 -55 -1 -29 -34 -73
-49 -64 -14 9 -52 82 -62 121 -24 95 -40 139 -69 196 -82 164 -218 340 -353
457 -40 34 -81 42 -91 16 -11 -28 -6 -78 9 -108 8 -15 15 -33 15 -38 0 -22 95
-207 133 -258 45 -62 124 -139 208 -202 52 -39 118 -124 135 -173 4 -11 20
-48 35 -83 16 -35 29 -69 29 -75 0 -7 7 -22 15 -34 9 -12 17 -39 18 -60 2 -33
-1 -38 -18 -36 -38 3 -217 71 -266 102 -57 35 -74 38 -83 15 -8 -21 61 -90
168 -170 43 -32 104 -78 135 -101 31 -23 73 -54 93 -67 20 -14 50 -38 66 -54
31 -30 72 -111 72 -141 0 -10 7 -26 15 -37 8 -10 15 -31 15 -45 0 -14 7 -34
15 -45 8 -10 15 -31 15 -45 0 -14 7 -34 15 -45 8 -10 15 -32 15 -49 0 -16 7
-41 15 -55 8 -14 14 -38 15 -53 0 -16 4 -36 9 -46 6 -10 12 -36 15 -59 3 -22
10 -50 16 -62 24 -45 -16 -54 -64 -14 -101 83 -153 112 -275 152 -45 15 -71 1
-71 -38 0 -17 5 -30 10 -30 6 0 10 -6 10 -13 0 -29 161 -156 252 -200 32 -15
72 -30 90 -34 70 -13 118 -56 118 -105 0 -13 6 -43 14 -68 15 -46 31 -121 44
-200 4 -25 11 -51 16 -58 4 -7 10 -34 13 -60 3 -26 8 -54 13 -62 13 -26 21
-90 15 -112 -6 -17 -12 -19 -46 -14 -68 11 -132 37 -217 88 -96 57 -125 60
-130 11 -5 -52 70 -143 213 -259 55 -44 110 -70 169 -78 76 -10 91 -49 100
-256 3 -69 10 -141 16 -160 13 -45 13 -562 0 -615 -6 -22 -15 -134 -20 -250
-5 -115 -16 -250 -24 -300 -16 -95 -27 -138 -65 -245 -7 -19 -15 -46 -18 -60
-3 -14 -12 -34 -19 -45 -8 -11 -14 -29 -14 -42 0 -12 -4 -24 -9 -28 -5 -3 -12
-19 -16 -36 -4 -17 -13 -42 -21 -57 -8 -15 -14 -35 -14 -44 0 -9 -4 -19 -9
-23 -5 -3 -12 -19 -16 -36 -4 -17 -13 -42 -21 -57 -8 -15 -14 -33 -14 -40 0
-7 -4 -20 -9 -30 -10 -18 -22 -51 -72 -182 -17 -47 -38 -99 -45 -117 -8 -17
-14 -36 -14 -42 0 -6 -4 -19 -9 -29 -5 -9 -18 -39 -29 -67 -72 -179 -109 -259
-119 -263 -17 -5 -18 283 -2 325 5 15 35 53 65 85 99 104 139 245 81 283 -21
14 -27 14 -55 -1 -18 -8 -37 -25 -44 -37 -13 -25 -27 -37 -45 -37 -10 0 -13
50 -13 218 l0 219 31 43 c41 57 154 266 179 332 27 71 27 148 0 171 -11 9 -27
17 -35 17 -32 0 -84 -64 -134 -166 -39 -79 -56 -104 -69 -102 -13 2 -18 18
-23 68 -3 36 -11 83 -17 105 -6 22 -18 72 -27 110 -57 247 -129 385 -202 385
-38 0 -67 -34 -58 -69 3 -14 10 -42 14 -61 5 -19 14 -48 21 -65 7 -16 20 -46
28 -65 8 -19 39 -73 70 -119 52 -79 97 -176 107 -231 3 -14 10 -81 15 -150 5
-69 12 -162 16 -206 4 -57 3 -84 -5 -89 -7 -4 -38 19 -75 58 -83 83 -108 94
-160 69 -49 -24 -66 -68 -51 -127 22 -84 56 -123 183 -214 134 -95 139 -121
123 -564 -13 -321 -17 -371 -44 -462 -18 -60 -31 -90 -57 -130 -11 -16 -35
-59 -53 -95 -45 -86 -58 -107 -88 -155 -14 -22 -41 -67 -59 -100 -18 -33 -44
-77 -57 -97 -12 -21 -23 -40 -23 -42 0 -14 -83 -126 -90 -121 -5 3 -6 56 -3
118 6 126 18 162 83 242 23 28 66 100 97 160 55 109 55 111 60 216 6 118 -3
151 -38 142 -19 -5 -30 -23 -77 -133 -48 -111 -65 -124 -69 -54 -5 77 -25 200
-40 249 -44 143 -80 215 -107 215 -27 0 -33 -44 -27 -180 4 -74 12 -144 17
-155 6 -11 26 -48 43 -83 l33 -63 -5 -162 c-7 -198 -16 -261 -39 -265 -11 -2
-35 23 -73 73 -31 42 -63 79 -71 82 -20 7 -61 -15 -67 -36 -7 -29 8 -53 92
-146 110 -122 115 -134 106 -257 -6 -100 -23 -154 -57 -192 -10 -11 -18 -23
-18 -28 0 -4 -8 -16 -17 -26 -10 -9 -40 -46 -68 -82 -71 -92 -139 -173 -203
-245 -210 -234 -309 -344 -326 -360 -12 -11 -37 -40 -56 -65 -19 -25 -39 -51
-45 -58 -19 -25 -180 -197 -239 -255 -60 -60 -94 -71 -88 -28 2 12 26 70 53
128 27 57 49 106 49 108 0 3 11 28 24 57 13 29 32 75 42 102 22 56 67 106 96
106 28 0 78 53 78 84 0 16 -14 42 -35 65 -37 40 -41 55 -26 93 5 13 18 54 28
92 18 72 24 79 128 173 46 41 46 73 0 120 -39 40 -43 65 -19 121 19 46 22 126
4 146 -17 21 -63 20 -82 -1 -24 -28 -28 -64 -12 -108 14 -42 19 -156 7 -169
-10 -10 -43 -98 -43 -114 0 -7 -11 -38 -25 -68 -24 -52 -26 -54 -65 -54 -31 0
-43 -5 -55 -24 -19 -29 -13 -63 22 -123 22 -38 23 -46 13 -85 -7 -24 -15 -50
-20 -58 -4 -9 -11 -31 -15 -50 -12 -57 -41 -90 -79 -90 -59 0 -87 -66 -50
-119 22 -31 23 -90 1 -135 -10 -19 -24 -50 -31 -68 -8 -18 -28 -62 -44 -98
-16 -36 -35 -83 -43 -105 -7 -22 -19 -47 -26 -56 -7 -8 -13 -23 -13 -31 0 -9
-7 -21 -15 -28 -8 -7 -15 -18 -15 -24 0 -22 -352 -358 -409 -390 -9 -5 -25
-19 -36 -30 -11 -12 -45 -40 -76 -63 -31 -23 -62 -47 -70 -55 -8 -7 -22 -17
-31 -23 -8 -5 -44 -30 -78 -55 -34 -25 -70 -49 -79 -55 -9 -5 -18 -12 -21 -15
-14 -14 -70 -50 -79 -50 -5 0 -11 -4 -13 -8 -1 -4 -32 -26 -68 -47 -36 -21
-67 -41 -70 -44 -7 -9 -39 -27 -90 -53 -25 -13 -47 -25 -50 -28 -6 -7 -99 -64
-120 -73 -8 -4 -28 -16 -45 -26 -16 -11 -47 -29 -67 -40 -21 -11 -57 -33 -80
-48 -24 -15 -59 -36 -78 -46 -19 -11 -37 -22 -40 -26 -6 -7 -30 -22 -82 -50
-21 -11 -57 -33 -80 -48 -47 -30 -98 -57 -404 -211 -188 -95 -244 -116 -244
-92 0 6 25 29 56 53 78 58 371 326 469 428 194 203 343 381 477 573 71 102 97
114 203 96 136 -23 372 52 503 159 23 19 42 44 42 54 0 17 -8 18 -97 14 -135
-7 -289 -23 -344 -37 -47 -12 -89 -2 -89 20 0 6 31 61 68 122 38 62 88 148
113 192 59 105 85 126 155 126 33 0 83 10 127 26 39 14 104 36 142 48 39 13
87 33 107 45 57 31 352 232 360 244 9 15 -2 37 -20 37 -17 0 -77 -18 -102 -30
-9 -4 -31 -11 -50 -15 -19 -4 -39 -10 -45 -14 -14 -9 -126 -30 -214 -41 -40
-5 -78 -13 -84 -19 -6 -6 -24 -11 -39 -11 -16 0 -40 -7 -53 -16 -28 -18 -65
-10 -65 14 0 9 45 108 100 219 139 285 166 373 190 622 12 118 12 124 -8 143
-39 40 -54 21 -178 -230 -134 -272 -138 -281 -153 -345 -15 -67 -14 -96 10
-184 17 -67 19 -84 8 -120 -6 -24 -15 -43 -18 -43 -4 0 -17 -21 -29 -47 -13
-27 -35 -68 -50 -93 -15 -25 -44 -77 -66 -115 -21 -39 -50 -87 -63 -109 -22
-34 -26 -37 -40 -23 -8 8 -19 32 -24 54 -8 36 -27 117 -47 194 -24 93 -116
209 -144 181 -14 -14 -12 -166 2 -257 5 -33 12 -89 16 -125 3 -35 9 -71 13
-80 5 -8 11 -30 14 -48 4 -18 18 -49 32 -70 31 -46 31 -62 0 -112 -14 -22 -25
-42 -25 -45 0 -3 -20 -34 -45 -71 -25 -36 -45 -68 -45 -71 0 -3 -13 -22 -30
-43 -16 -21 -30 -41 -30 -45 0 -3 -7 -14 -16 -22 -9 -9 -34 -40 -56 -70 -39
-51 -74 -69 -82 -40 -2 6 -12 41 -21 77 -60 223 -156 451 -213 501 -38 33 -41
34 -68 15 -16 -12 -19 -26 -18 -98 1 -94 20 -278 35 -353 32 -156 70 -229 148
-285 48 -35 51 -55 14 -96 -16 -17 -47 -55 -71 -86 -84 -109 -248 -280 -417
-433 -54 -49 -106 -97 -115 -105 -9 -8 -43 -37 -75 -65 -33 -27 -67 -57 -76
-65 -28 -26 -62 -54 -149 -120 -47 -35 -90 -69 -97 -75 -28 -23 -40 -32 -78
-55 -22 -13 -42 -26 -45 -29 -8 -10 -42 -28 -115 -64 -110 -53 -144 -67 -165
-67 -10 0 -22 -4 -25 -10 -3 -5 -13 -10 -22 -10 -8 0 -29 -6 -46 -14 -18 -7
-52 -21 -77 -30 -25 -10 -58 -24 -73 -32 -16 -8 -36 -14 -46 -14 -9 0 -25 -6
-36 -14 -11 -7 -31 -16 -45 -19 -29 -6 -88 -26 -112 -38 -9 -5 -32 -11 -50
-14 -18 -3 -37 -10 -43 -14 -5 -5 -27 -12 -49 -15 -21 -4 -46 -11 -55 -16 -20
-10 -91 -29 -153 -40 -26 -5 -56 -13 -67 -19 -11 -6 -33 -11 -49 -11 -16 0
-46 -7 -65 -15 -20 -8 -50 -15 -67 -15 -17 0 -40 -4 -50 -10 -10 -5 -36 -12
-57 -15 -21 -2 -49 -9 -63 -14 -14 -6 -47 -15 -75 -20 -27 -5 -79 -17 -115
-26 -36 -9 -83 -19 -105 -24 -22 -4 -56 -12 -75 -18 -49 -16 -118 -33 -165
-42 -22 -4 -56 -12 -75 -19 -19 -6 -71 -18 -115 -27 -44 -9 -96 -21 -115 -26
-41 -11 -126 -26 -224 -40 -38 -5 -77 -14 -87 -19 -10 -6 -40 -10 -66 -10 -27
0 -75 -7 -106 -15 -32 -8 -77 -15 -100 -15 -23 -1 -62 -5 -87 -11 -25 -5 -88
-14 -140 -19 -52 -5 -138 -14 -190 -19 -52 -6 -241 -13 -420 -16 -289 -6 -455
-16 -469 -31 -3 -2 1 -10 7 -16 14 -14 641 -12 842 3 69 5 184 13 255 18 72 5
143 14 158 20 16 6 54 11 85 11 31 0 79 7 106 15 27 8 63 15 80 15 17 0 63 6
101 14 39 8 113 22 165 31 52 9 113 21 134 26 21 6 60 15 85 19 25 5 78 16
116 25 39 9 94 20 124 26 29 5 62 14 72 19 10 6 30 10 45 10 15 0 50 6 78 14
28 8 87 23 131 32 44 10 141 33 215 52 74 19 153 37 175 41 22 4 56 12 75 18
50 16 119 33 165 42 23 4 46 11 53 15 7 4 33 11 60 16 26 5 81 17 122 28 235
63 312 82 331 82 12 0 51 6 88 14 187 41 312 60 626 96 99 11 227 27 284 36
58 8 115 13 127 10 12 -3 44 -22 70 -42 52 -40 94 -67 139 -87 197 -92 196
-92 325 -118 130 -26 260 -26 291 0 24 20 24 20 4 39 -11 10 -45 29 -75 41
-30 12 -64 26 -75 30 -11 5 -56 23 -100 41 -44 18 -109 45 -145 60 -36 15 -73
30 -82 33 -10 4 -18 11 -18 16 0 5 8 12 18 15 36 12 252 26 389 26 267 0 643
55 643 95 -1 26 -23 40 -77 46 -32 4 -84 12 -117 18 -81 15 -421 10 -438 -7
-6 -6 -21 -12 -31 -12 -19 0 -44 -10 -152 -60 -59 -27 -125 -37 -382 -57 -84
-7 -143 2 -143 22 0 7 19 27 43 43 142 102 188 140 203 171 12 24 14 39 7 50
-11 18 -62 28 -72 14 -3 -4 -24 -17 -46 -28 -22 -10 -56 -31 -75 -45 -19 -14
-52 -34 -72 -45 -21 -11 -38 -22 -38 -25 0 -3 -13 -11 -28 -18 -16 -6 -37 -20
-48 -30 -10 -10 -26 -21 -34 -25 -34 -17 -57 -34 -85 -60 -63 -61 -95 -74
-205 -87 -135 -17 -361 -28 -379 -19 -16 8 5 21 104 62 33 14 128 58 210 97
83 40 193 92 245 117 195 92 343 169 460 238 72 43 266 152 355 200 39 21 81
46 95 55 14 10 82 47 153 83 126 65 166 81 467 192 85 32 169 63 185 70 29 13
81 33 240 94 44 17 88 31 98 31 11 0 40 -17 66 -39 50 -41 124 -82 194 -106
106 -36 302 -46 380 -19 76 26 87 77 19 90 -19 4 -47 13 -61 20 -14 8 -40 14
-58 14 -17 0 -34 4 -37 9 -3 5 -23 12 -43 16 -21 3 -58 13 -83 20 -25 7 -72
21 -105 31 -54 15 -74 28 -75 45 0 13 147 71 348 139 263 87 275 90 344 57
100 -47 222 -79 405 -106 90 -14 233 -14 267 -1 36 13 32 38 -9 55 -19 8 -51
22 -70 30 -20 8 -43 15 -53 15 -9 0 -26 7 -36 15 -11 8 -31 15 -45 15 -14 0
-35 7 -45 15 -11 8 -30 15 -42 15 -13 0 -25 4 -29 9 -3 5 -20 13 -38 17 -38 8
-97 35 -97 44 0 10 37 26 140 59 52 17 118 38 145 47 135 44 270 137 438 302
110 109 132 142 106 158 -12 7 -87 -13 -104 -28 -5 -4 -15 -8 -23 -8 -8 0 -42
-13 -76 -29 -90 -42 -119 -54 -140 -58 -11 -2 -27 -10 -36 -18 -9 -8 -24 -15
-32 -15 -9 0 -18 -3 -20 -7 -1 -5 -21 -20 -44 -36 -46 -31 -142 -128 -170
-172 -28 -44 -50 -63 -97 -86 -23 -11 -50 -25 -59 -30 -10 -5 -28 -9 -41 -9
-13 0 -32 -7 -43 -15 -10 -8 -30 -15 -42 -15 -13 0 -36 -6 -50 -14 -43 -21
-185 -66 -212 -66 -21 0 -8 32 28 68 68 68 232 293 232 319 0 28 -26 41 -49
25 -9 -7 -23 -15 -31 -19 -8 -4 -17 -9 -20 -12 -3 -4 -23 -18 -45 -33 -22 -14
-54 -39 -70 -55 -17 -15 -53 -46 -80 -68 -67 -54 -145 -148 -145 -176 0 -6
-16 -35 -35 -64 -37 -54 -93 -105 -117 -105 -8 0 -23 -7 -34 -15 -10 -8 -27
-15 -37 -15 -11 0 -33 -7 -50 -16 -57 -30 -67 -34 -77 -34 -11 0 -91 -33 -122
-50 -10 -6 -23 -10 -29 -10 -6 0 -27 -7 -47 -16 -21 -8 -50 -21 -67 -28 -16
-8 -50 -21 -75 -31 -45 -18 -84 -34 -130 -54 -34 -15 -239 -91 -245 -91 -3 0
-5 6 -5 14 0 13 53 56 149 121 24 17 58 40 75 51 69 47 291 226 417 336 139
120 566 547 679 678 156 180 335 366 801 835 273 275 527 536 565 580 98 115
241 266 276 291 16 12 58 27 94 33 72 13 228 64 250 82 8 6 14 29 14 49 0 35
-5 41 -45 67 -24 15 -44 36 -45 45 0 19 71 117 112 156 15 14 47 26 81 32 32
6 83 14 115 20 126 21 205 81 187 142 -13 42 -25 48 -96 48 -51 0 -69 3 -69
14 0 19 95 141 132 170 18 13 58 34 88 46 78 30 181 85 279 149 113 72 133 97
115 145 -5 12 -20 16 -60 16 -30 0 -62 -4 -72 -9 -73 -36 -92 -42 -101 -37
-19 12 -13 27 64 155 81 138 105 195 105 250 -1 61 -41 90 -80 58 -27 -21 -80
-94 -80 -110 0 -8 -7 -20 -15 -27 -8 -7 -15 -19 -15 -27 0 -8 -7 -21 -15 -29
-8 -9 -15 -24 -15 -35 0 -10 -4 -19 -10 -19 -5 0 -10 -6 -10 -12 -1 -7 -9 -31
-20 -53 -11 -22 -19 -50 -20 -62 0 -12 -4 -25 -10 -28 -5 -3 -10 -21 -11 -38
0 -53 -32 -116 -84 -168 -27 -27 -54 -49 -61 -49 -7 0 -24 24 -38 54 -14 29
-33 56 -41 60 -52 20 -93 -87 -80 -209 9 -84 -5 -124 -67 -200 -132 -161 -143
-167 -193 -115 -35 37 -78 40 -106 8 -22 -27 -25 -109 -7 -170 9 -31 9 -47 -1
-75 -16 -44 -234 -271 -269 -280 -14 -3 -39 1 -58 11 -19 9 -43 16 -52 16 -30
0 -51 -51 -58 -141 -4 -48 -13 -95 -22 -109 -8 -13 -61 -72 -117 -130 -56 -58
-133 -139 -170 -180 -70 -78 -92 -96 -103 -86 -7 8 31 84 98 191 27 44 52 87
56 95 4 8 26 44 48 80 113 186 341 633 389 766 8 21 38 100 67 174 54 140 95
249 160 432 50 141 95 224 180 333 38 50 88 114 111 143 23 30 69 82 103 117
48 49 71 65 102 71 88 15 124 55 98 106 -20 38 -18 47 20 105 51 78 63 116 46
149 -21 38 -50 46 -77 21 -13 -11 -23 -30 -23 -41 -1 -65 -28 -144 -70 -203
-53 -73 -70 -83 -123 -69 -55 15 -70 -7 -62 -89 l6 -60 -50 -55 c-38 -42 -53
-52 -62 -43 -8 8 -4 33 19 100 17 48 38 117 47 153 40 150 48 177 60 225 8 28
21 79 30 115 9 36 23 88 31 115 7 28 23 86 35 130 11 44 28 105 36 135 8 30
19 69 23 85 13 50 31 85 117 218 46 70 83 131 83 135 0 4 17 26 38 50 33 39
46 46 124 67 47 12 101 33 118 45 73 52 85 126 24 155 -18 8 -36 20 -39 25
-15 25 83 147 139 174 19 9 50 16 70 16 58 0 135 44 153 88 21 50 8 82 -37 97
-19 6 -36 19 -38 27 -2 8 9 40 23 71 14 31 25 62 25 71 0 8 4 17 9 21 5 3 15
29 22 59 14 65 -1 126 -31 126 -50 0 -120 -128 -120 -220 0 -26 -7 -65 -16
-86 -30 -74 -55 -122 -70 -135 -8 -7 -22 -25 -30 -41 -16 -32 -42 -37 -50 -10
-38 113 -87 136 -129 58 -18 -32 -18 -40 -6 -93 7 -32 15 -84 18 -115 5 -57 5
-59 -56 -154 -33 -52 -61 -99 -61 -104 0 -4 -4 -10 -9 -12 -4 -1 -19 -21 -32
-44 -70 -118 -141 -216 -151 -206 -10 10 -1 105 28 262 8 47 19 114 24 150 6
36 15 78 20 94 6 16 10 40 10 54 0 13 7 47 16 76 9 28 22 71 29 96 7 25 21 72
30 105 10 33 28 92 40 130 13 39 31 97 40 130 9 33 23 76 30 95 7 19 21 64 30
100 9 36 21 73 26 82 5 10 13 34 18 55 5 21 24 83 41 138 48 154 61 197 70
235 4 19 13 49 18 65 6 17 18 57 28 90 39 139 55 165 123 197 83 40 155 95
237 179 81 85 194 228 194 247 0 6 4 12 9 14 10 3 92 140 115 191 24 53 38
106 31 117 -15 24 -46 7 -88 -47 -74 -96 -470 -468 -487 -458 -20 13 -2 162
32 260 5 17 13 46 17 65 4 19 13 45 19 57 7 12 12 32 12 45 0 12 6 40 14 63
14 40 35 130 55 235 10 52 41 326 41 361 0 48 -73 12 -85 -41 -6 -28 -24 -73
-46 -112 -5 -10 -9 -26 -9 -35 0 -10 -7 -27 -15 -37 -8 -11 -15 -27 -15 -37 0
-9 -7 -30 -15 -45 -8 -16 -15 -39 -15 -51 0 -13 -4 -23 -10 -23 -5 0 -12 -17
-15 -37 -4 -21 -13 -52 -21 -70 -8 -17 -14 -41 -14 -53 0 -12 -5 -30 -11 -41
-14 -27 -14 -172 0 -207 25 -61 5 -281 -37 -419 -6 -17 -8 -34 -5 -36 2 -3 -2
-18 -10 -34 -8 -15 -17 -45 -21 -65 -5 -28 -12 -38 -25 -38 -21 0 -31 42 -55
216 -18 126 -71 234 -116 234 -9 0 -25 -9 -35 -20 -16 -17 -17 -31 -11 -112 4
-51 11 -145 15 -208 4 -63 12 -125 19 -137 7 -12 12 -31 12 -42 0 -12 4 -29
10 -39 5 -9 16 -35 25 -57 9 -22 23 -53 31 -68 16 -33 19 -145 4 -191 -5 -17
-19 -60 -30 -95 -12 -35 -27 -87 -35 -115 -7 -28 -18 -64 -24 -81 -5 -16 -17
-57 -27 -90 -9 -33 -20 -69 -25 -80 -4 -11 -12 -33 -17 -50 -12 -40 -38 -45
-45 -8 -10 57 -7 191 8 298 17 129 21 909 4 1085 -5 58 -14 161 -19 230 -5 69
-13 154 -19 190 -19 132 -32 939 -16 1025 8 44 41 122 56 131 32 19 99 176 99
230 0 47 -17 64 -64 64 -25 0 -48 6 -55 14 -18 21 -31 122 -34 258 l-2 123 33
49 c51 76 78 135 96 213 22 98 1 148 -60 141 -22 -2 -33 -16 -63 -71 -19 -37
-40 -66 -46 -64 -5 2 -13 28 -16 58 -12 105 -62 199 -107 199 -38 0 -57 -35
-49 -92 8 -62 16 -100 26 -123 22 -52 55 -121 60 -125 31 -25 57 -114 46 -150
-6 -19 -35 -29 -35 -12 0 4 -14 16 -30 26 -25 14 -34 15 -46 5 -30 -25 -36
-48 -20 -81 9 -17 16 -36 16 -41 0 -6 11 -25 25 -43 14 -18 25 -36 25 -39 0
-4 12 -24 28 -44 61 -81 64 -94 59 -262 -4 -139 -7 -172 -23 -246 -5 -25 -58
-57 -79 -49 -8 3 -19 24 -25 48 -7 24 -18 61 -25 83 -7 22 -20 67 -30 100 -9
33 -20 71 -25 85 -5 14 -16 52 -25 85 -40 141 -180 563 -209 630 -7 17 -19 46
-26 65 -15 42 -124 307 -153 370 -11 25 -35 78 -53 118 -19 40 -34 77 -34 83
0 5 -11 33 -25 61 -37 77 -40 115 -17 195 39 133 45 183 39 369 -8 250 -22
392 -43 437 -36 75 -74 25 -74 -96 0 -43 -4 -86 -9 -96 -11 -20 -28 -117 -44
-261 -13 -104 -20 -130 -37 -130 -13 0 -118 179 -202 345 -124 245 -172 322
-271 440 -213 251 -224 263 -294 299 -32 16 -84 22 -96 9z m199 -170 c78 -91
97 -114 149 -183 27 -36 53 -66 57 -68 4 -2 8 -8 8 -14 0 -6 14 -27 30 -48 17
-21 30 -43 30 -49 0 -6 4 -11 9 -11 5 0 13 -10 17 -22 4 -13 9 -25 13 -28 8
-7 28 -39 43 -70 7 -14 15 -27 18 -30 9 -8 60 -126 60 -139 0 -67 -214 114
-305 259 -70 111 -220 433 -210 450 13 20 33 9 81 -47z m808 -625 c12 -47 6
-240 -10 -302 -34 -134 -49 -83 -40 137 6 147 14 187 36 187 4 0 10 -10 14
-22z m-672 -455 c63 -71 123 -137 161 -178 80 -84 69 -101 -33 -54 -43 19 -85
48 -106 72 -64 71 -108 197 -69 197 8 0 29 -17 47 -37z m333 -698 c38 -8 92
-15 120 -15 51 0 135 -26 158 -49 10 -10 7 -17 -13 -33 -21 -17 -35 -20 -90
-15 -116 9 -313 88 -295 118 8 13 38 11 120 -6z m1055 -167 c0 -21 -4 -38 -8
-38 -15 0 -45 78 -38 96 6 16 8 15 26 -1 13 -12 20 -31 20 -57z m200 -76 c0
-32 -27 -75 -41 -67 -14 9 -11 44 8 75 19 34 33 30 33 -8z m3 -822 c-6 -27
-31 -60 -45 -60 -16 0 -8 52 13 82 16 22 24 27 30 17 4 -8 6 -25 2 -39z m-169
-471 c1 -85 -18 -88 -34 -5 -7 36 -9 73 -6 83 6 15 8 15 23 0 11 -11 16 -35
17 -78z m-1403 -291 c14 -13 35 -40 48 -60 12 -21 27 -38 32 -38 5 0 9 -5 9
-11 0 -6 17 -34 37 -62 40 -54 82 -133 83 -154 1 -35 -63 7 -142 92 -33 36
-118 204 -118 234 0 27 21 27 51 -1z m2079 -445 c0 -20 -4 -50 -9 -67 -6 -17
-20 -67 -32 -111 -22 -80 -34 -105 -50 -105 -20 0 -5 93 32 200 6 19 18 54 26
78 18 52 33 54 33 5z m-1513 -107 c-16 -152 -43 -246 -67 -231 -26 16 8 241
41 281 20 25 31 3 26 -50z m1743 -419 c0 -13 -236 -253 -265 -270 -19 -11 -20
21 -1 46 47 61 120 138 175 184 65 53 91 65 91 40z m-1110 -173 c0 -17 -22
-14 -28 4 -2 7 3 12 12 12 9 0 16 -7 16 -16z m-384 -121 c-4 -27 -9 -82 -12
-123 -6 -85 -20 -130 -40 -130 -19 0 -18 98 1 170 8 30 15 69 15 86 0 34 6 44
28 44 12 0 13 -9 8 -47z m914 -82 c13 -25 13 -71 0 -71 -14 0 -30 35 -30 64 0
31 15 34 30 7z m-1101 -546 c40 -24 55 -55 28 -55 -21 0 -97 60 -97 77 0 18
13 14 69 -22z m458 -231 c12 -32 -79 -194 -109 -194 -27 0 -23 45 9 108 43 86
86 123 100 86z m-217 -649 c72 -25 111 -85 76 -115 -30 -24 -166 59 -166 101
0 31 30 35 90 14z m1180 -44 c0 -15 -59 -53 -70 -46 -16 10 22 54 48 55 12 0
22 -4 22 -9z m-300 -389 c0 -35 -50 -67 -97 -63 -20 2 -15 29 6 36 10 3 26 14
36 25 23 25 55 26 55 2z m-1528 -892 c21 -40 24 -80 6 -80 -14 0 -48 74 -48
103 0 27 21 16 42 -23z m423 -330 c17 -27 -93 -260 -130 -274 -49 -19 20 186
88 262 22 24 33 27 42 12z m-412 -544 c61 -66 87 -108 87 -143 0 -19 -5 -33
-12 -34 -25 -2 -41 3 -55 17 -8 8 -19 14 -25 14 -40 0 -114 101 -101 139 17
49 64 52 106 7z m1537 -410 c0 -8 -11 -21 -24 -28 -13 -7 -42 -23 -64 -35 -25
-14 -43 -19 -47 -13 -9 15 2 28 53 60 51 32 82 38 82 16z m-1200 -21 c0 -19
-29 -65 -41 -65 -15 0 -10 42 8 62 20 22 33 23 33 3z m787 -501 c8 -21 -13
-38 -71 -58 -57 -19 -102 -21 -112 -5 -10 17 7 28 82 54 82 29 93 30 101 9z
m-442 -453 c9 -15 -47 -52 -74 -49 -35 4 -37 24 -4 42 32 17 69 21 78 7z
m-2965 -1057 c0 -80 -42 -217 -100 -327 -26 -49 -44 -72 -57 -72 -16 0 -18 9
-17 83 1 80 3 87 63 210 73 150 89 175 101 167 6 -4 10 -31 10 -61z m157 -700
c4 -11 -2 -23 -18 -35 -23 -17 -151 -83 -194 -98 -108 -40 -187 -52 -200 -30
-4 6 13 29 37 52 52 49 153 93 260 112 98 18 108 18 115 -1z m-727 -326 c0
-36 -16 -44 -33 -16 -17 26 -32 162 -21 180 9 14 54 -123 54 -164z m2520 -64
c0 -19 -62 -82 -110 -111 -111 -68 -180 -91 -180 -60 0 27 75 84 192 147 80
43 98 48 98 24z m-3102 -206 c44 -93 129 -405 118 -433 -17 -46 -89 19 -113
101 -7 22 -18 62 -27 89 -16 56 -32 257 -22 274 13 20 24 12 44 -31z m2162
-71 c0 -19 -37 -50 -49 -42 -7 4 -5 14 5 31 18 26 44 33 44 11z m-1305 -92 c0
-5 -27 -23 -60 -39 -49 -25 -74 -31 -139 -33 -93 -3 -126 3 -126 24 0 24 70
46 165 53 114 9 160 8 160 -5z m1665 -100 c134 -34 214 -68 207 -88 -2 -7 -13
-11 -23 -9 -67 11 -116 23 -169 42 -33 12 -69 24 -80 27 -25 7 -45 23 -45 34
0 13 47 10 110 -6z m-840 -339 c126 -27 255 -67 272 -84 9 -9 9 -15 0 -24 -8
-8 -29 -7 -87 5 -42 10 -89 17 -105 17 -16 0 -31 4 -34 9 -3 5 -18 12 -33 15
-35 8 -96 38 -105 51 -22 29 -2 31 92 11z m-1056 -1056 c14 -5 26 -14 26 -19
0 -14 -35 -20 -177 -27 -131 -7 -152 -3 -120 24 31 26 221 41 271 22z m-757
-196 c43 -14 101 -36 128 -49 28 -13 81 -37 118 -54 79 -35 83 -57 8 -46 -46
6 -120 29 -153 46 -10 5 -25 9 -33 9 -18 0 -127 53 -168 82 -29 21 -28 38 3
38 11 0 55 -12 97 -26z"/>
</g>
</svg>
