<?xml version="1.0" encoding="UTF-8"?>
<!DOCTYPE svg PUBLIC "-//W3C//DTD SVG 1.1//EN" "http://www.w3.org/Graphics/SVG/1.1/DTD/svg11.dtd">
<svg xmlns="http://www.w3.org/2000/svg" version="1.1" width="512px" height="512px" style="shape-rendering:geometricPrecision; text-rendering:geometricPrecision; image-rendering:optimizeQuality; fill-rule:evenodd; clip-rule:evenodd" xmlns:xlink="http://www.w3.org/1999/xlink">
<g><path fill="#696969" fill-opacity="0.996" stroke="#696969" stroke-width="0.5" stroke-opacity="0.996" d="M 26.97,44.01 c -0.07,-0.69 0.19,-1.18 0.78,-1.48 c 4.59,-0.58 9.16,-1.32 13.7,-2.22 c 0.5,-0.1 0.89,0.06 1.18,0.46 c 5.92,33.97 11.87,67.93 17.85,101.89 c 0.19,1.09 0.82,1.7 1.89,1.84 c 2.3,-0.41 7.83,-0.15 6.57,-3.9 c -6.05,-34.03 -12.04,-68.07 -17.98,-102.12 c -0.03,-0.58 0.2,-1.02 0.7,-1.3 c 4.86,-0.8 9.72,-1.66 14.56,-2.59 c 0.1,0.09 0.2,0.18 0.3,0.27 c 6.12,34.87 12.3,69.73 18.52,104.58 c 0.31,0.55 0.78,0.79 1.41,0.75 c 3.39,-0.51 6.77,-1.07 10.14,-1.67 c 1.15,-0.14 1.84,-0.76 2.09,-1.86 c -6.14,-34.7 -12.25,-69.4 -18.33,-104.11 c -0.12,-0.47 0.03,-0.8 0.44,-1.01 c 4.6,-0.63 9.18,-1.4 13.73,-2.3 c 0.52,-0.07 0.98,0.05 1.39,0.37 c 6.2,34.69 12.36,69.39 18.47,104.09 c 0.37,0.91 1.05,1.35 2.03,1.32 c 1.93,-0.38 6.9,-0.98 8.33,-1.72 c 0.5,-1.2 0.57,-2.43 0.2,-3.71 c -6.03,-34.04 -12.03,-68.08 -18,-102.12 c 0.05,-0.92 0.53,-1.43 1.46,-1.52 c 3.68,-0.64 7.36,-1.3 11.03,-1.97 c 1.04,-0.22 2.05,-0.25 3.04,-0.09 c 8.26,49.23 16.69,98.44 25.3,147.61 c 0.5,3.66 0.52,7.33 0.09,10.99 c -3.34,13.97 -12.08,22.2 -26.22,24.69 c -0.74,0.59 -0.98,1.36 -0.73,2.32 c 20.28,86.71 40.56,173.43 60.84,260.15 c 1.04,10.09 -4.76,18.91 -14.49,21.8 c -7.9,1.58 -15.83,3.03 -23.78,4.37 c -10.32,1.23 -19.14,-4.5 -22.23,-14.38 c -0.38,-1.97 -0.72,-3.95 -1.04,-5.94 c -10.25,-87.02 -20.64,-174.03 -31.17,-261.02 c 0,-0.56 -0.23,-0.99 -0.7,-1.29 c -1.94,0.11 -3.89,0.23 -5.84,0.36 c -2.33,-0.14 -4.64,-0.43 -6.94,-0.88 c -12.25,-3.63 -19.7,-11.69 -22.36,-24.19 c -8.65,-48.18 -17.4,-96.34 -26.23,-144.47 Z M 339.95,472 c -0.01,-1.17 0.08,-2.33 0.27,-3.49 c 19.74,-87.98 39.4,-175.98 58.98,-264 c 0.17,-0.97 -0.03,-1.84 -0.61,-2.62 c -36.17,-30.14 -16.43,-97.03 3.1,-131.81 c 11.42,-20.87 39.78,-50.26 61.78,-23.05 c 21.18,27.63 19.28,82.47 10.18,114.39 c -6.25,21.04 -19.36,42.06 -41.86,47.93 c -0.43,0.27 -0.68,0.66 -0.74,1.17 c -10.02,89.99 -20.11,179.96 -30.26,269.93 c -2.67,10.4 -11.63,16.49 -22.29,15.39 c -15.45,-3.28 -38.39,-2.18 -38.55,-23.84 Z M 148.96,84 c -0.03,-0.72 0.22,-1.33 0.75,-1.82 c 66.37,-43.04 150.74,-45.91 219.26,-5.79 c 2.94,1.73 5.81,3.54 8.62,5.43 c 0.13,0.49 0.1,0.97 -0.09,1.44 c -8.81,21.81 -14.2,42.7 -15.25,66.22 c -3.49,-2.94 -7.02,-5.84 -10.6,-8.71 c -53.82,-40.88 -126.91,-39.63 -179.23,3.15 c -3.72,3.1 -7.34,6.32 -10.85,9.64 c -0.42,-0.12 -0.7,-0.4 -0.82,-0.83 c -4.08,-22.88 -8.01,-45.79 -11.79,-68.73 Z M 139.69,219 c -0.04,-0.47 0.12,-0.85 0.48,-1.13 c 17.08,-10.51 23.68,-23.4 24.3,-43.17 c 51.47,-64.35 151.05,-63.3 200.87,2.29 c 1.76,6.5 4.28,12.7 7.55,18.59 c 2.71,4.51 5.68,8.83 8.9,12.95 c -10.34,46.87 -20.79,93.71 -31.34,140.54 c -17.97,18.49 -50.45,32.09 -76.13,33.56 c -37.79,3.84 -82.77,-13.88 -106.58,-43.67 c -9.47,-39.95 -18.82,-79.94 -28.05,-119.96 Z M 176.04,233 c 0.2,13.85 5.27,25.59 15.23,35.23 c 22.26,21.74 44.54,43.47 66.83,65.19 c 3.9,3.66 8.67,3.24 12.34,-0.48 c 22.14,-21.57 44.27,-43.15 66.38,-64.75 c 43.2,-43.19 -14.18,-109.16 -62.79,-72.51 c -3.24,2.96 -6.47,5.89 -9.7,8.81 c -0.45,0.08 -0.85,-0.01 -1.22,-0.27 c -4.03,-4.25 -8.42,-8.07 -13.19,-11.45 c -32.25,-20.31 -73.51,2.39 -73.88,40.23 Z M 192,233 c 0.14,-26.62 30.97,-41.58 52.07,-24.76 c 6.64,4.05 16.15,21.45 24.96,14.18 c 12.82,-12.35 22.28,-24.79 42.37,-20.34 c 23.7,6.49 32.44,33.42 16.47,52.34 c -21,20.72 -42.14,41.27 -63.45,61.63 c -0.84,0.06 -1.55,-0.23 -2.11,-0.88 c -20.74,-20.23 -41.47,-40.48 -62.19,-60.73 c -5.35,-6.15 -8.06,-13.29 -8.12,-21.44 Z M 428.02,382 c 5.9,-53.31 11.86,-106.61 17.87,-159.9 c 0.1,-0.4 0.31,-0.72 0.63,-0.98 c 3.54,-1.7 6.91,-3.68 10.12,-5.94 c 3.28,-2.5 6.47,-5.09 9.58,-7.75 c 1.04,3.98 1.91,8 2.63,12.08 c 10.02,57.46 -4.13,116.01 -39.35,162.47 c -0.35,0.6 -1.52,1.18 -1.48,0.02 Z M 56,256 c 0.14,-10.8 0.93,-21.55 2.39,-32.25 c 0.44,-0.49 0.98,-0.58 1.61,-0.27 c 4.36,2.5 9,4.27 13.92,5.31 c 0.39,0.15 0.65,0.43 0.79,0.83 c 5.54,46.99 11.23,93.96 17.06,140.91 c 0.09,1.25 -0.32,1.42 -1.23,0.53 c -22.29,-36.38 -34.41,-71.95 -34.54,-115.06 Z M 174.23,368.22 c 0.62,0.01 1.19,0.18 1.71,0.53 c 48.62,38.14 117.29,40.37 168.45,5.73 c 0.25,0.27 0.32,0.59 0.21,0.97 c -5.65,25.32 -11.29,50.65 -16.89,75.98 c -0.19,0.96 -0.53,1.86 -1.02,2.7 c -5.3,1.91 -10.72,3.46 -16.26,4.66 c -38.78,8.66 -77.87,6.53 -115.38,-6.59 c -0.4,-0.14 -0.7,-0.39 -0.92,-0.74 c -6.6,-27.76 -13.23,-55.5 -19.9,-83.24 Z"/></g>
</svg>
