<?xml version="1.0" standalone="no"?>
<!DOCTYPE svg PUBLIC "-//W3C//DTD SVG 20010904//EN"
 "http://www.w3.org/TR/2001/REC-SVG-20010904/DTD/svg10.dtd">
<svg version="1.0" xmlns="http://www.w3.org/2000/svg"
 width="512.000000pt" height="512.000000pt" viewBox="0 0 512.000000 512.000000"
 preserveAspectRatio="xMidYMid meet">

<g transform="translate(0.000000,512.000000) scale(0.100000,-0.100000)"
fill="#696969" stroke="none">
<path d="M712 4196 c-207 -51 -389 -237 -431 -444 -7 -32 -11 -184 -11 -382
l0 -330 333 0 332 1 23 49 c90 192 347 306 580 256 99 -21 209 -75 276 -137
l56 -51 0 526 0 526 -552 -1 c-413 0 -566 -4 -606 -13z"/>
<path d="M2190 3689 l0 -521 53 45 c175 150 431 187 632 92 76 -37 174 -130
214 -205 l32 -60 865 0 864 0 0 330 c0 198 -4 350 -11 382 -32 155 -154 317
-295 390 -134 71 -80 68 -1276 68 l-1078 0 0 -521z"/>
<path d="M1320 3018 c-86 -44 -115 -139 -70 -227 26 -53 102 -117 158 -135 90
-29 392 -59 392 -38 0 16 -69 173 -100 227 -72 125 -155 185 -270 192 -54 4
-73 0 -110 -19z"/>
<path d="M2549 3026 c-60 -21 -108 -56 -145 -105 -34 -43 -133 -237 -149 -290
l-7 -23 118 7 c234 14 348 51 411 133 81 107 59 223 -52 273 -47 22 -124 24
-176 5z"/>
<path d="M270 2070 c0 -429 4 -667 11 -702 6 -29 29 -90 50 -135 73 -153 233
-278 397 -312 34 -7 244 -11 597 -11 l545 0 0 602 0 602 -192 -191 c-106 -106
-206 -196 -221 -202 -95 -36 -191 12 -217 108 -20 77 -6 99 185 291 l177 177
-84 11 c-180 26 -290 66 -396 147 -67 50 -138 142 -171 218 l-20 47 -331 0
-330 0 0 -650z"/>
<path d="M3085 2643 c-97 -190 -268 -295 -543 -334 l-84 -12 170 -171 c182
-183 202 -214 188 -290 -8 -41 -46 -90 -87 -111 -36 -19 -102 -19 -137 -1 -15
8 -108 96 -207 195 -99 100 -183 181 -187 181 -5 0 -8 -268 -8 -595 l0 -595
1075 0 c736 0 1091 3 1127 11 98 20 214 84 288 159 74 75 140 194 159 288 7
35 11 276 11 702 l0 650 -862 0 -863 0 -40 -77z"/>
</g>
</svg>
