<?xml version="1.0" standalone="no"?>
<!DOCTYPE svg PUBLIC "-//W3C//DTD SVG 20010904//EN"
 "http://www.w3.org/TR/2001/REC-SVG-20010904/DTD/svg10.dtd">
<svg version="1.0" xmlns="http://www.w3.org/2000/svg"
 width="1942.000000pt" height="894.000000pt" viewBox="0 0 1942.000000 894.000000"
 preserveAspectRatio="xMidYMid meet">

<g transform="translate(0.000000,894.000000) scale(0.100000,-0.100000)"
fill="#696969" stroke="none">
<path d="M10801 8667 c-38 -39 -54 -67 -98 -167 -8 -19 -21 -48 -29 -63 -8
-16 -14 -35 -14 -43 0 -16 -112 -132 -154 -159 -47 -31 -60 -15 -52 70 5 59 3
82 -9 109 -25 52 -86 62 -132 22 l-28 -24 3 -174 3 -174 -51 -47 c-28 -26 -53
-47 -56 -47 -5 0 -24 -14 -55 -42 -10 -10 -21 -18 -23 -18 -3 0 -17 -11 -32
-25 -46 -43 -59 -31 -56 52 2 43 0 73 -7 77 -6 4 -11 16 -11 26 0 11 -14 34
-31 51 -27 28 -35 31 -75 26 -83 -9 -100 -57 -92 -271 7 -162 3 -169 -111
-239 -46 -29 -95 -60 -110 -70 -14 -9 -34 -20 -43 -23 -10 -4 -18 -10 -18 -15
0 -5 -6 -9 -14 -9 -7 0 -19 -7 -26 -15 -7 -8 -21 -15 -31 -15 -15 0 -19 7 -19
33 0 18 5 38 12 45 7 7 13 39 13 71 0 51 -3 62 -25 80 -34 28 -97 28 -130 -2
-56 -50 -64 -73 -64 -202 l-1 -121 -32 -33 c-49 -54 -167 -117 -358 -191 -73
-29 -112 -45 -170 -70 -115 -50 -150 -66 -215 -97 -41 -19 -82 -39 -91 -43 -9
-5 -72 -16 -140 -25 -68 -9 -151 -21 -184 -27 -33 -5 -84 -14 -113 -18 -29 -5
-74 -13 -100 -19 -26 -6 -81 -18 -122 -27 -96 -20 -314 -71 -360 -84 -19 -6
-53 -14 -75 -19 -53 -13 -137 -35 -205 -56 -107 -32 -125 -37 -157 -42 -50 -8
-41 12 30 62 34 25 73 55 87 67 14 11 43 33 65 47 22 14 42 28 45 31 15 17 89
70 97 70 4 0 20 11 35 25 15 14 32 25 37 25 5 0 16 6 23 13 18 17 116 77 127
77 5 0 14 7 21 15 20 25 78 30 100 10 21 -19 54 -39 80 -51 8 -3 26 -11 39
-17 34 -17 256 -16 273 1 6 6 26 12 43 12 17 0 40 7 51 15 10 8 28 15 40 15
19 0 54 28 54 43 0 14 -59 36 -125 46 -217 33 -275 52 -242 79 7 6 72 42 143
79 l129 67 165 -3 c130 -2 175 1 210 13 25 9 55 16 67 16 40 0 200 93 226 131
18 25 12 55 -13 62 -10 2 -80 0 -156 -4 -76 -5 -144 -7 -151 -5 -25 10 -13 36
40 89 55 56 109 122 120 147 4 8 16 30 27 48 25 42 60 139 60 169 0 12 5 25
10 28 6 3 10 15 10 25 0 32 -45 36 -85 9 -31 -22 -176 -166 -200 -200 -6 -8
-24 -32 -40 -54 -47 -62 -85 -150 -85 -197 0 -20 -11 -39 -32 -61 -39 -38 -93
-77 -108 -77 -5 0 -10 -3 -10 -8 0 -4 -8 -12 -18 -17 -96 -52 -90 -50 -112
-30 -25 23 -27 94 -5 178 8 32 15 87 15 122 0 55 -3 65 -20 70 -48 15 -68 -11
-138 -185 -36 -89 -40 -106 -51 -228 -7 -81 -11 -95 -31 -110 -31 -23 -91 -60
-110 -68 -8 -4 -22 -12 -30 -19 -8 -6 -44 -24 -80 -39 l-65 -27 -17 21 c-13
16 -18 40 -18 89 0 72 17 180 31 195 17 19 10 56 -10 56 -19 0 -41 -25 -76
-85 -11 -18 -47 -78 -81 -132 -77 -125 -95 -172 -96 -247 0 -34 -4 -68 -9 -77
-8 -16 -64 -56 -272 -196 -50 -34 -96 -66 -102 -71 -5 -4 -31 -19 -58 -32 -26
-13 -47 -27 -47 -31 0 -3 -8 -9 -17 -13 -22 -7 -56 -28 -64 -39 -12 -17 -234
-127 -255 -127 -7 0 -54 -21 -141 -61 -35 -16 -66 -29 -70 -29 -4 0 -30 -11
-58 -24 -130 -62 -205 -96 -210 -96 -3 0 -57 -25 -120 -55 -64 -30 -118 -55
-120 -55 -2 0 -29 -12 -59 -26 -90 -42 -121 -21 -63 43 19 21 64 53 100 71 68
35 127 85 127 108 0 8 -4 14 -9 14 -5 0 -11 8 -15 18 -3 9 -11 25 -18 36 -10
15 -10 20 0 23 6 3 12 10 12 17 0 7 9 21 20 31 11 10 20 24 20 32 0 7 5 13 10
13 6 0 10 6 10 13 0 14 73 77 89 77 6 0 11 5 11 10 0 6 12 10 26 10 14 0 38 6
52 14 15 8 34 17 42 21 43 17 100 65 100 84 0 3 -16 20 -36 38 -35 31 -36 33
-21 56 17 26 60 70 99 102 51 42 89 55 154 55 61 0 66 2 104 40 40 40 54 90
30 105 -12 7 4 37 43 77 40 42 77 104 77 129 0 29 -26 52 -50 44 -34 -11 -97
-81 -127 -142 -47 -96 -177 -212 -219 -196 -7 2 -18 20 -24 39 -14 41 -41 58
-80 49 -41 -9 -53 -47 -45 -138 10 -103 1 -118 -192 -336 l-31 -36 -46 23
c-58 28 -67 28 -94 -1 -26 -27 -27 -45 -7 -111 19 -63 19 -110 0 -126 -8 -7
-15 -17 -15 -23 0 -6 -8 -20 -19 -31 -10 -12 -56 -77 -101 -146 -131 -197
-147 -210 -375 -305 -97 -41 -391 -191 -480 -245 -36 -22 -67 -40 -70 -40 -2
0 -32 -17 -67 -37 -35 -21 -71 -42 -80 -48 -26 -15 -207 -128 -234 -145 -12
-8 -50 -33 -83 -55 -34 -21 -61 -43 -61 -47 0 -4 -5 -8 -10 -8 -12 0 -73 -41
-78 -52 -2 -5 -8 -8 -13 -8 -7 0 -174 -118 -269 -191 -14 -11 -43 -31 -65 -47
-22 -15 -42 -29 -45 -33 -3 -3 -61 -47 -129 -98 -68 -52 -131 -101 -141 -110
-9 -9 -34 -29 -55 -46 -65 -51 -98 -79 -125 -105 -15 -14 -44 -38 -65 -55 -40
-32 -133 -112 -150 -131 -5 -6 -39 -35 -75 -64 -141 -114 -376 -342 -664 -644
-109 -114 -163 -163 -170 -156 -7 7 -3 22 12 47 12 21 35 63 50 93 15 30 29
57 32 60 3 3 16 27 30 53 36 70 46 87 59 100 6 6 11 19 11 29 0 10 4 18 8 18
4 0 15 15 23 33 18 37 52 99 79 142 11 17 31 53 45 80 15 28 37 64 51 82 13
17 24 37 24 43 0 12 12 28 56 76 32 34 33 34 122 34 50 0 93 4 97 9 3 5 20 13
37 17 18 3 39 10 48 15 8 5 38 18 65 30 168 72 235 117 235 156 0 31 -37 39
-109 24 -146 -31 -200 -43 -252 -57 -82 -21 -99 -19 -99 11 0 25 21 65 47 93
7 7 13 20 13 28 0 8 5 14 10 14 6 0 10 5 10 11 0 6 20 37 45 69 25 32 45 62
45 67 0 4 18 28 40 53 22 25 42 53 46 63 3 9 10 17 15 17 5 0 9 6 9 13 0 7 8
20 17 29 26 25 43 46 43 55 0 5 8 15 18 24 9 8 30 32 46 52 34 42 51 45 103
17 21 -11 45 -20 55 -20 9 0 19 -4 22 -9 8 -13 152 -19 236 -11 76 8 152 25
180 39 9 5 30 12 48 16 18 3 32 11 32 16 0 5 8 9 19 9 10 0 24 7 31 15 7 8 18
15 24 15 6 0 26 13 44 30 27 24 31 33 23 49 -13 24 -48 28 -356 42 -131 6
-243 13 -247 15 -13 9 -9 33 10 52 9 10 35 40 57 67 22 28 43 52 47 53 5 2 8
8 8 13 0 12 200 210 228 227 23 13 58 3 74 -22 12 -18 397 -18 461 0 133 39
164 48 187 60 14 7 32 15 40 19 22 9 56 29 74 44 24 20 20 57 -6 65 -13 3
-152 6 -310 6 -157 0 -293 3 -302 6 -39 15 -15 52 133 204 l148 153 72 -1 c40
-1 89 -6 109 -12 23 -7 99 -10 197 -7 153 4 241 15 295 38 81 35 96 42 110 50
8 4 33 18 55 29 50 27 184 129 199 152 19 31 -6 43 -61 29 -124 -32 -292 -61
-438 -76 -253 -26 -285 -28 -285 -17 0 19 12 42 21 42 6 0 23 14 39 30 16 17
32 30 35 30 3 0 11 4 18 10 99 80 277 258 277 277 0 4 10 19 23 33 12 14 34
43 47 65 13 22 26 42 29 45 10 9 31 45 37 63 4 9 10 17 15 17 9 0 18 16 65
112 52 103 67 154 54 177 -17 33 -57 26 -119 -21 -31 -23 -92 -69 -136 -101
-150 -113 -302 -277 -385 -417 -17 -29 -44 -93 -61 -144 -16 -50 -36 -105 -44
-122 -28 -60 -282 -284 -322 -284 -10 0 -26 15 -37 33 -23 41 -33 206 -16 292
6 33 14 76 17 95 3 19 11 44 18 55 16 25 27 152 15 160 -16 10 -47 -17 -70
-59 -12 -23 -34 -63 -51 -91 -90 -152 -102 -185 -110 -290 -4 -55 -10 -125
-14 -156 -8 -61 12 -135 47 -173 10 -11 18 -26 18 -34 0 -20 -35 -68 -101
-137 -31 -33 -72 -78 -90 -100 -66 -78 -141 -139 -161 -133 -10 4 -12 40 -10
154 1 82 -2 187 -8 234 -6 47 -15 134 -19 193 -11 155 -43 179 -92 68 -23 -52
-33 -88 -60 -221 -10 -52 -25 -122 -31 -155 -7 -33 -13 -107 -13 -165 0 -100
2 -108 36 -180 20 -41 39 -83 42 -92 6 -17 -34 -80 -66 -107 -9 -7 -17 -17
-17 -22 0 -5 -8 -17 -17 -28 -30 -31 -87 -102 -97 -118 -8 -15 -21 -31 -78
-97 -15 -17 -28 -34 -28 -37 0 -3 -9 -17 -21 -30 -11 -13 -29 -34 -39 -46 -11
-12 -31 -40 -46 -63 -15 -22 -33 -40 -40 -40 -19 0 -34 32 -34 72 0 18 -7 58
-15 88 -8 30 -15 70 -15 89 0 62 -72 241 -108 267 -20 14 -49 7 -57 -14 -16
-40 1 -469 21 -562 9 -38 45 -110 55 -110 33 0 -9 -87 -133 -278 -10 -15 -21
-34 -25 -42 -3 -8 -17 -32 -30 -52 -25 -41 -58 -101 -133 -243 -26 -49 -58
-108 -70 -130 -27 -48 -118 -210 -137 -245 -8 -14 -23 -38 -33 -55 -11 -16
-24 -41 -30 -54 -18 -40 -51 -82 -61 -76 -12 8 -1 164 17 236 8 31 14 74 14
95 0 22 7 48 15 58 8 11 15 28 15 38 0 10 4 18 8 18 4 0 16 14 26 31 10 16 31
44 48 61 45 46 88 109 88 129 0 10 -11 31 -24 46 -23 26 -26 27 -57 16 -54
-21 -57 -10 -61 167 -3 145 -5 160 -23 174 -44 33 -76 10 -100 -72 -12 -38
-13 -57 -5 -71 5 -11 10 -27 10 -36 0 -9 7 -33 16 -53 21 -48 31 -73 38 -95 9
-28 -46 -353 -62 -369 -4 -4 -24 1 -44 12 l-36 19 -26 -24 c-41 -38 -35 -82
18 -155 29 -39 47 -75 51 -103 6 -42 -8 -139 -40 -267 -9 -36 -20 -83 -25
-105 -17 -72 -73 -199 -100 -225 -3 -3 -23 -31 -44 -62 -22 -32 -43 -58 -48
-58 -4 0 -8 -5 -8 -10 0 -11 -10 -24 -42 -61 -10 -10 -18 -22 -18 -25 0 -3 -6
-11 -12 -18 -7 -8 -20 -24 -28 -36 -8 -12 -21 -28 -28 -36 -6 -7 -12 -15 -12
-19 0 -3 -27 -42 -60 -85 -33 -43 -60 -82 -60 -85 0 -3 -9 -15 -20 -27 -11
-12 -32 -40 -47 -62 -16 -23 -34 -47 -41 -55 -8 -8 -25 -33 -39 -55 -14 -23
-29 -43 -32 -46 -13 -11 -51 -70 -51 -80 0 -5 -3 -10 -8 -10 -4 0 -16 -17 -27
-37 -19 -36 -54 -92 -65 -103 -3 -3 -14 -23 -25 -45 -11 -22 -23 -42 -26 -45
-3 -3 -23 -40 -44 -82 -46 -94 -70 -104 -60 -25 4 28 11 57 15 62 4 6 11 30
15 55 4 25 11 50 15 55 4 6 11 31 14 57 4 26 11 50 17 53 5 4 9 18 9 33 0 31
25 113 48 157 9 17 54 69 102 116 96 97 119 123 151 176 13 21 29 44 36 51 7
7 13 19 13 27 0 7 3 15 8 17 16 7 102 197 102 227 0 20 -9 39 -27 56 -44 40
-70 33 -113 -32 -17 -24 -30 -48 -30 -54 0 -5 -4 -9 -8 -9 -5 0 -14 -10 -21
-22 -6 -13 -20 -36 -31 -53 -11 -16 -23 -37 -27 -45 -3 -8 -9 -17 -12 -20 -4
-3 -13 -18 -21 -34 -30 -59 -35 -66 -48 -66 -15 0 -7 81 12 115 6 13 11 100
11 240 0 205 -1 222 -20 243 -11 12 -25 22 -32 22 -17 0 -63 -70 -63 -95 0
-12 -4 -25 -9 -30 -11 -11 -32 -115 -39 -195 -4 -53 3 -125 29 -290 14 -93 14
-115 -1 -215 -14 -89 -32 -147 -48 -153 -9 -3 -42 51 -42 70 0 10 -34 91 -50
120 -6 10 -10 26 -10 36 0 10 -5 23 -12 30 -6 6 -13 22 -15 34 -2 12 -10 29
-18 38 -8 9 -15 20 -15 24 0 18 -66 76 -87 76 -20 0 -23 -5 -23 -35 0 -19 4
-43 9 -53 6 -9 20 -51 32 -92 40 -141 51 -175 60 -198 5 -13 9 -31 9 -40 0 -9
7 -30 15 -46 8 -15 15 -35 15 -43 0 -14 24 -62 46 -93 21 -29 32 -89 24 -123
-5 -17 -16 -68 -25 -112 -9 -44 -23 -102 -31 -129 -8 -26 -14 -60 -14 -73 0
-37 -42 -163 -85 -258 -13 -27 -26 -60 -30 -72 -3 -13 -11 -23 -16 -23 -5 0
-9 -7 -9 -16 0 -9 -6 -28 -14 -42 -8 -15 -47 -94 -86 -177 -40 -82 -76 -157
-81 -165 -5 -8 -12 -22 -15 -30 -3 -8 -12 -28 -20 -43 -7 -16 -14 -35 -14 -42
0 -7 -6 -26 -14 -42 -8 -15 -21 -44 -29 -63 -9 -19 -23 -51 -31 -72 -9 -20
-16 -40 -16 -45 0 -5 -11 -33 -25 -61 -14 -29 -25 -57 -25 -63 0 -6 -6 -23
-14 -37 -8 -15 -22 -47 -31 -72 -9 -25 -23 -57 -31 -72 -8 -14 -14 -33 -14
-41 0 -9 -6 -28 -14 -44 -47 -93 -72 -180 -100 -343 -7 -41 -16 -83 -20 -92
-7 -16 -2 -18 38 -18 40 0 46 3 46 21 0 11 4 28 9 37 5 9 11 40 14 69 3 29 9
57 13 64 4 7 11 29 15 48 7 37 23 84 46 138 7 17 13 36 13 41 0 6 6 23 14 39
8 15 22 46 31 68 20 48 33 80 50 120 7 17 20 50 30 75 10 25 24 60 32 77 7 18
21 50 30 70 9 21 22 50 30 65 7 14 13 33 13 42 0 9 4 24 9 34 28 53 50 102 45
102 -3 0 1 12 9 27 7 16 21 43 30 61 9 19 17 39 17 47 0 7 7 18 15 25 8 7 15
20 15 30 0 10 7 23 15 30 8 7 15 21 15 31 0 11 5 19 10 19 6 0 10 5 10 11 0 7
20 53 44 103 24 50 72 150 107 221 34 72 65 132 68 135 4 3 12 16 18 30 7 14
26 48 43 75 16 28 33 57 37 65 3 8 9 17 13 20 3 3 22 28 40 55 45 66 265 285
287 285 3 0 44 36 107 96 11 10 89 70 164 127 20 15 74 50 118 77 91 56 109
59 219 35 89 -19 163 -19 305 0 126 17 192 33 290 72 69 27 92 46 84 68 -10
25 -62 33 -230 35 -187 1 -216 5 -212 28 3 16 34 37 108 72 25 12 52 26 60 31
8 5 22 12 30 15 38 16 151 69 205 97 83 42 98 50 115 63 8 6 42 26 75 44 274
151 335 193 335 229 0 31 -12 32 -92 12 -40 -11 -92 -22 -113 -25 -45 -7 -95
-22 -143 -42 -18 -8 -39 -14 -46 -14 -12 0 -53 -20 -141 -68 -55 -31 -109 -76
-209 -174 -55 -54 -103 -98 -108 -98 -5 0 -24 -11 -41 -23 -41 -31 -113 -67
-132 -67 -8 0 -15 -4 -15 -10 0 -5 -6 -10 -12 -10 -7 0 -24 -6 -38 -13 -70
-37 -147 -81 -160 -92 -8 -6 -22 -15 -30 -19 -8 -3 -28 -15 -45 -26 -16 -11
-37 -23 -45 -27 -8 -4 -20 -12 -27 -17 -34 -30 -43 -36 -51 -36 -5 0 -25 -13
-43 -30 -19 -16 -39 -30 -44 -30 -6 0 -23 -12 -40 -27 -16 -15 -56 -47 -88
-71 -33 -24 -71 -56 -86 -70 -41 -42 -114 -102 -123 -102 -17 0 -7 34 22 70
16 21 30 42 30 48 0 6 3 12 8 14 11 5 72 85 72 94 0 5 20 32 45 59 24 28 45
55 45 61 0 6 10 22 23 36 12 13 34 42 49 63 14 22 33 49 42 60 8 11 35 44 58
74 24 29 48 61 53 69 19 30 51 66 120 140 39 41 74 81 78 89 5 8 79 86 165
172 87 87 196 201 244 252 172 186 446 456 542 534 27 22 70 58 95 80 46 40
73 59 101 72 8 4 17 9 20 12 3 4 16 12 30 19 14 7 41 22 60 33 73 44 143 79
160 79 10 0 23 7 30 15 7 8 19 15 27 15 8 0 27 6 41 14 29 15 75 35 137 61 48
20 139 61 178 81 16 8 36 14 45 14 9 0 26 7 36 15 11 8 31 15 45 15 14 0 35 7
45 15 11 8 27 15 37 15 9 0 30 7 45 15 16 8 41 15 56 15 14 0 28 5 30 11 2 5
22 13 46 16 23 3 42 10 42 14 0 5 12 9 26 9 14 0 40 6 57 13 18 8 59 22 92 31
33 10 75 24 93 32 18 8 45 14 60 14 15 0 36 7 46 15 11 8 31 15 45 15 14 0 35
7 45 15 11 8 29 15 40 15 11 0 34 5 52 12 27 10 38 8 75 -10 45 -23 80 -43 89
-52 3 -3 21 -13 40 -21 74 -35 111 -49 128 -49 10 0 23 -5 28 -10 15 -15 231
-34 287 -26 38 6 50 13 60 33 9 21 7 32 -11 66 -22 41 -115 118 -174 144 -31
14 -37 41 -10 49 9 4 31 12 49 20 42 19 173 19 199 -1 10 -8 25 -15 33 -15 8
0 22 -6 30 -14 24 -22 137 -76 158 -76 11 0 24 -5 29 -10 6 -6 30 -13 55 -16
24 -3 50 -11 56 -16 7 -6 65 -11 129 -12 115 -1 116 -1 140 27 51 59 26 96
-123 180 -51 29 -93 57 -93 63 0 29 60 47 197 61 45 4 62 0 140 -37 48 -23
100 -49 115 -56 14 -8 35 -14 46 -14 12 0 24 -4 27 -10 3 -5 16 -10 28 -10 12
0 36 -7 52 -16 20 -11 67 -18 145 -21 113 -5 117 -5 145 20 l29 25 -18 34
c-15 28 -91 88 -112 88 -3 0 -25 9 -50 20 -24 11 -57 23 -74 26 -43 9 -59 31
-29 42 136 51 251 70 293 50 91 -44 160 -67 224 -75 26 -3 51 -9 56 -14 6 -5
25 -9 44 -9 18 0 64 -5 102 -11 93 -16 151 -1 175 45 14 26 15 37 6 54 -16 29
-73 65 -141 87 -96 31 -94 36 44 119 108 65 129 85 124 117 -7 51 -108 64
-224 28 -93 -28 -304 -134 -304 -151 0 -5 -5 -8 -11 -8 -6 0 -28 -13 -48 -29
-61 -48 -81 -55 -99 -38 -14 14 -13 19 9 49 42 56 60 105 61 169 1 73 -20 99
-88 107 -48 5 -116 -24 -144 -61 -16 -22 -103 -178 -147 -266 -33 -64 -72 -95
-137 -109 -63 -13 -106 0 -106 33 0 13 4 26 9 29 13 8 22 93 15 137 -9 53 -52
84 -115 84 -73 0 -137 -65 -181 -182 -45 -119 -106 -192 -181 -214 -82 -25
-271 -59 -280 -50 -10 10 9 77 30 102 7 8 13 37 13 63 0 38 -5 52 -27 72 -35
32 -66 39 -106 23 -51 -21 -92 -75 -154 -201 -47 -94 -65 -121 -96 -141 -48
-32 -334 -104 -349 -89 -11 11 3 60 26 92 13 18 39 72 56 117 19 50 -4 101
-49 109 -47 9 -115 -10 -164 -46 -55 -40 -167 -218 -167 -267 -1 -31 -37 -101
-62 -116 -12 -9 -126 -50 -253 -92 -313 -105 -374 -128 -490 -184 -176 -85
-304 -141 -322 -141 -26 0 -9 33 33 64 23 17 61 45 85 63 24 18 51 39 59 46 8
8 39 29 67 48 29 18 53 37 53 41 0 5 6 8 14 8 8 0 16 7 20 15 3 8 10 15 16 15
7 0 38 20 70 45 32 25 63 45 69 45 6 0 11 4 11 9 0 5 17 20 38 32 20 13 46 31
56 41 11 10 46 35 78 55 32 20 58 41 58 45 0 4 5 8 11 8 6 0 28 14 49 30 21
17 41 30 45 30 4 0 24 14 45 30 21 17 41 30 44 30 3 0 25 14 48 30 22 17 45
30 50 30 5 0 16 6 23 13 32 28 43 35 63 41 12 4 22 11 22 16 0 4 8 10 18 14 9
3 26 11 37 18 11 7 39 25 63 41 24 15 49 27 57 27 7 0 15 4 17 9 2 5 35 26 73
46 39 21 79 43 90 49 19 11 95 65 105 76 12 12 90 50 104 50 9 0 16 4 16 10 0
5 16 12 35 16 19 3 35 10 35 15 0 5 7 9 16 9 9 0 32 7 52 16 21 9 51 22 67 29
17 7 48 20 70 30 63 28 96 42 145 60 25 10 59 24 77 31 17 8 36 14 42 14 6 0
11 5 11 10 0 6 11 10 24 10 14 0 31 7 40 15 8 8 20 15 26 15 11 0 48 17 90 41
8 5 22 12 30 15 8 3 22 10 30 15 8 5 22 12 30 15 8 4 51 23 95 44 44 21 92 41
108 44 15 4 27 11 27 16 0 6 10 10 23 10 12 0 31 7 41 15 11 8 27 15 37 15 9
0 30 7 45 15 16 8 38 15 49 15 11 0 29 7 39 15 11 8 27 15 37 15 9 0 30 7 45
15 16 8 37 15 46 15 9 0 20 5 23 10 3 6 18 10 32 10 13 0 37 6 51 14 33 16 85
35 131 46 18 5 38 13 44 19 6 6 22 11 37 11 14 0 34 7 44 15 11 8 32 15 46 15
14 0 31 5 38 12 16 16 194 21 247 7 22 -6 67 -15 100 -20 113 -17 160 -37 207
-88 24 -26 55 -54 70 -64 28 -17 68 -23 68 -9 0 12 60 42 84 42 21 0 61 -15
108 -41 10 -5 24 -9 31 -9 28 0 93 -59 117 -106 51 -100 128 -156 144 -106 4
11 17 29 31 42 l24 23 36 -27 c47 -36 142 -82 185 -90 51 -9 94 6 98 32 5 33
-15 46 -98 66 -107 25 -110 26 -110 40 0 7 7 26 15 42 19 40 10 71 -24 79 -29
6 -54 -2 -109 -35 l-33 -20 -62 31 c-85 42 -88 45 -86 99 1 26 -1 52 -5 58
-12 19 -78 13 -128 -12 -51 -25 -50 -25 -233 21 -135 34 -173 43 -230 57 -110
27 -145 40 -145 53 0 16 32 33 63 33 14 0 41 7 60 15 20 8 49 15 65 15 16 0
46 7 65 15 41 17 187 19 277 4 30 -5 98 -13 150 -18 53 -5 108 -15 123 -20 16
-6 54 -11 85 -11 31 0 79 -7 106 -15 27 -8 78 -15 113 -15 35 0 73 -5 83 -10
10 -6 58 -13 107 -16 48 -3 95 -8 103 -11 14 -6 100 -20 264 -44 38 -5 77 -14
87 -19 10 -6 37 -10 61 -10 24 -1 61 -7 83 -15 22 -8 58 -15 80 -15 40 -1 119
-24 163 -49 39 -21 64 -52 98 -118 9 -18 22 -33 29 -33 7 0 18 -6 24 -14 7 -8
28 -17 47 -21 45 -8 79 13 87 54 8 38 44 49 101 32 23 -7 60 -16 83 -21 23 -5
50 -14 60 -19 10 -5 30 -12 44 -15 39 -8 81 -57 103 -118 36 -105 110 -142
155 -79 12 16 21 39 21 50 0 27 26 38 51 23 10 -7 27 -12 36 -12 10 0 31 -7
47 -15 15 -8 34 -15 41 -15 23 0 43 -35 47 -85 3 -28 16 -75 30 -105 27 -59
125 -166 167 -181 40 -16 77 -2 92 33 11 28 10 40 -14 106 -15 41 -24 78 -21
83 11 18 45 8 131 -36 48 -25 92 -45 99 -45 7 0 26 -16 43 -35 22 -26 31 -46
31 -71 0 -45 28 -160 48 -198 32 -61 83 -96 139 -96 38 0 46 4 64 33 20 32 20
34 2 129 -8 42 18 44 89 9 71 -36 77 -40 166 -98 35 -24 66 -43 70 -43 4 0 16
-10 26 -21 13 -15 16 -29 11 -48 -19 -69 -17 -144 4 -186 46 -92 105 -110 149
-45 20 30 23 44 19 91 -6 73 0 81 51 73 46 -7 70 -34 83 -94 5 -19 12 -55 18
-80 20 -92 97 -210 137 -210 7 0 14 -4 14 -10 0 -16 33 -11 57 8 38 30 38 60
-3 137 -20 39 -45 81 -55 94 -33 42 -25 54 29 47 67 -9 132 22 132 62 0 49
-29 62 -133 62 -50 0 -109 -4 -129 -9 -47 -11 -102 4 -148 40 -36 27 -37 59
-3 59 10 0 31 7 47 15 15 8 34 15 42 15 21 0 64 64 64 96 0 16 -9 40 -20 54
-16 22 -27 25 -78 25 -54 -1 -66 -5 -133 -50 -64 -43 -81 -50 -124 -50 -44 0
-61 7 -145 62 -52 33 -104 69 -114 79 -18 17 -18 17 -1 31 11 7 28 13 40 13
31 0 92 56 100 91 9 39 -25 92 -69 107 -45 17 -124 -8 -172 -53 -6 -5 -27 -19
-47 -30 -20 -11 -37 -23 -37 -27 0 -5 -6 -8 -13 -8 -14 0 -78 29 -87 39 -3 3
-27 18 -55 33 -72 39 -75 48 -28 94 46 45 57 72 49 119 -13 69 -74 102 -158
86 -48 -8 -138 -55 -138 -71 0 -27 -121 -53 -145 -32 -6 5 -50 24 -100 42 -88
32 -125 53 -125 72 0 5 18 27 40 49 54 53 52 84 -8 134 -43 36 -89 36 -136 0
-20 -15 -36 -32 -36 -38 0 -15 -67 -77 -83 -77 -22 0 -208 60 -248 81 -43 22
-52 40 -38 76 22 60 -20 133 -77 133 -32 0 -82 -31 -88 -55 -3 -11 -15 -31
-25 -44 -19 -24 -20 -25 -87 -13 -38 6 -96 19 -129 27 -298 74 -582 126 -870
160 -77 9 -167 21 -200 27 -63 11 -147 20 -355 41 -126 12 -154 20 -147 40 4
14 102 36 207 47 47 4 98 13 113 19 16 6 54 11 85 11 32 0 73 5 92 11 19 5 76
14 125 19 50 5 115 13 145 19 72 13 854 13 945 0 39 -5 133 -14 210 -19 77 -5
158 -14 180 -19 22 -6 69 -11 105 -11 36 0 94 -7 130 -15 36 -8 94 -15 130
-15 36 0 83 -7 105 -15 22 -8 65 -14 95 -15 31 0 60 -4 65 -9 6 -6 42 -13 80
-16 39 -4 77 -11 86 -15 8 -5 44 -11 80 -15 35 -3 78 -10 94 -15 36 -10 135
-28 225 -39 36 -5 78 -14 93 -20 16 -6 45 -11 65 -11 20 0 55 -7 77 -15 22 -8
59 -14 81 -15 23 0 58 -7 77 -15 20 -8 50 -15 66 -15 16 0 33 -4 36 -10 3 -5
14 -10 23 -10 21 0 146 -64 189 -96 17 -13 36 -24 41 -24 5 0 20 -10 33 -22
14 -13 38 -32 54 -42 42 -27 215 -199 215 -213 0 -6 7 -19 16 -27 13 -13 14
-29 9 -79 -12 -108 -9 -329 5 -392 16 -73 64 -155 91 -155 28 0 35 27 50 185
13 127 16 140 34 143 24 3 46 -28 107 -148 24 -47 57 -105 73 -130 39 -59 141
-161 185 -186 19 -10 42 -24 50 -30 16 -13 39 -17 79 -15 22 1 23 4 17 48 -3
25 -23 76 -44 112 -20 36 -39 71 -41 76 -2 6 -17 26 -32 46 -16 20 -29 41 -29
46 0 26 -127 123 -160 123 -36 0 -150 77 -150 102 0 4 -14 30 -31 59 -16 28
-29 61 -27 73 3 24 15 24 114 5 71 -14 91 -9 100 26 9 37 -13 57 -125 111 -74
36 -112 49 -166 54 -39 4 -79 12 -90 18 -11 6 -64 53 -119 106 -72 69 -97 99
-92 112 5 12 14 15 39 10 17 -4 46 -9 62 -13 17 -3 35 -9 40 -13 6 -4 44 -18
85 -30 41 -12 80 -26 85 -30 6 -5 27 -11 48 -15 20 -4 40 -11 43 -16 3 -5 15
-9 27 -9 12 0 35 -7 51 -15 15 -8 36 -15 45 -15 9 0 25 -7 35 -15 11 -8 28
-15 37 -15 10 0 32 -8 51 -17 54 -27 62 -30 96 -38 18 -3 32 -10 32 -15 0 -5
14 -12 32 -15 18 -4 39 -11 48 -15 8 -4 31 -15 51 -24 19 -10 43 -18 52 -20
10 -1 23 -8 29 -14 7 -7 22 -12 34 -12 12 0 27 -7 34 -15 7 -8 22 -15 34 -15
11 0 30 -7 40 -15 11 -8 28 -15 38 -15 10 0 18 -4 18 -10 0 -5 5 -10 11 -10
16 0 244 -103 289 -131 8 -5 22 -12 30 -16 32 -13 110 -83 230 -204 144 -145
169 -173 196 -214 10 -16 27 -39 37 -50 11 -11 23 -31 29 -45 11 -28 1 -118
-15 -139 -6 -7 -13 -57 -15 -110 -4 -87 -2 -99 18 -124 47 -59 108 -20 132 84
19 83 48 75 97 -26 14 -27 29 -53 35 -57 16 -11 11 -129 -7 -165 -9 -18 -17
-42 -17 -55 0 -13 -7 -41 -15 -63 -19 -54 -18 -107 3 -150 34 -69 96 -52 138
38 13 29 24 58 24 65 0 6 9 12 19 12 19 0 61 -69 61 -100 0 -7 7 -22 17 -32
22 -25 23 -150 1 -198 -9 -19 -19 -66 -23 -104 -3 -38 -10 -77 -15 -87 -16
-28 -12 -105 7 -144 17 -36 49 -53 78 -42 23 9 63 80 79 142 22 84 30 88 75
37 21 -23 43 -42 49 -42 7 0 12 -4 12 -9 0 -5 14 -14 32 -20 26 -9 35 -8 50 5
57 52 -15 188 -154 290 -71 52 -121 116 -116 149 3 17 10 20 44 17 23 -1 54
-8 69 -16 27 -14 53 -11 90 11 15 9 20 22 20 57 0 82 -41 107 -236 146 -62 12
-95 31 -110 64 -15 33 -36 67 -48 79 -6 6 -11 21 -11 34 0 22 4 23 67 23 62 0
68 2 95 32 80 90 -26 192 -215 208 -90 7 -91 8 -124 46 -19 22 -53 66 -75 99
-23 33 -44 62 -48 65 -3 3 -28 34 -55 70 -27 36 -54 70 -61 75 -6 6 -25 30
-43 55 -17 25 -41 57 -53 72 -12 15 -19 30 -16 34 8 7 165 -71 253 -126 17
-10 50 -29 75 -41 25 -13 63 -35 85 -50 111 -74 215 -139 224 -139 6 0 11 -3
11 -8 0 -4 37 -32 83 -62 45 -29 84 -57 85 -62 2 -4 8 -8 14 -8 5 0 36 -20 68
-45 32 -25 62 -45 67 -45 4 0 24 -14 43 -30 49 -42 51 -43 93 -69 20 -12 37
-26 37 -30 0 -3 15 -15 34 -25 18 -10 55 -38 81 -62 27 -24 51 -44 54 -44 3 0
20 -13 37 -28 17 -15 55 -47 85 -72 53 -45 126 -117 184 -181 37 -41 115 -155
115 -168 0 -5 6 -16 13 -23 19 -20 94 -172 102 -207 4 -17 11 -31 16 -31 5 0
9 -5 9 -11 0 -6 6 -25 13 -42 18 -43 37 -95 47 -132 5 -16 13 -43 18 -60 22
-66 34 -107 42 -152 5 -27 14 -68 19 -93 17 -74 12 -121 -14 -165 -14 -22 -29
-49 -35 -60 -6 -11 -19 -33 -30 -50 -10 -16 -35 -64 -56 -105 -20 -41 -40 -83
-45 -92 -17 -33 -30 -152 -21 -193 11 -57 33 -56 93 4 51 52 88 114 125 210
11 30 26 57 32 59 15 5 42 -51 42 -88 0 -18 6 -46 14 -63 8 -18 16 -43 19 -57
3 -14 11 -41 18 -60 31 -87 102 -240 112 -240 4 0 7 -6 7 -13 0 -16 87 -137
99 -137 5 0 16 16 25 35 13 27 15 43 7 68 -5 17 -14 57 -21 87 -20 100 -29
139 -38 157 -5 10 -24 48 -43 85 -19 40 -60 96 -99 137 -71 75 -76 85 -101
246 -22 145 -23 174 -5 181 10 4 24 -1 35 -12 51 -52 220 -184 236 -184 2 0
32 -17 66 -38 68 -41 182 -92 203 -92 8 0 19 7 26 15 16 20 -14 66 -101 155
-36 36 -78 83 -94 105 -43 57 -87 97 -190 174 -87 64 -125 84 -193 101 -44 11
-59 25 -68 63 -3 17 -10 38 -14 47 -4 8 -16 42 -26 75 -9 33 -23 71 -30 85 -6
14 -20 45 -29 70 -9 25 -21 52 -26 60 -5 8 -11 21 -14 28 -13 32 -17 39 -35
67 -36 54 -44 75 -34 85 9 9 84 -34 92 -52 2 -5 9 -8 15 -8 13 0 372 -360 428
-430 40 -49 92 -105 233 -250 50 -52 107 -115 126 -140 18 -25 41 -52 49 -61
33 -34 61 -69 61 -78 0 -4 12 -21 26 -37 14 -16 30 -41 36 -56 5 -16 14 -28
19 -28 5 0 9 -8 9 -19 0 -10 7 -24 15 -31 8 -7 15 -19 15 -28 0 -8 21 -58 46
-111 25 -53 51 -107 56 -121 18 -43 39 -94 55 -126 19 -41 19 -98 0 -138 -34
-68 -47 -105 -47 -128 0 -13 -5 -29 -10 -34 -6 -6 -13 -42 -16 -80 -3 -38 -10
-86 -15 -107 -16 -63 32 -186 73 -187 22 0 33 21 47 95 19 96 44 173 67 202
l21 27 17 -31 c9 -18 16 -43 16 -57 0 -14 6 -43 14 -63 15 -42 33 -108 46
-168 10 -46 27 -113 44 -170 6 -22 9 -74 7 -115 -8 -125 -6 -362 2 -417 4 -28
14 -64 22 -80 8 -15 15 -36 15 -45 0 -9 5 -20 10 -23 6 -3 10 -15 10 -25 0
-21 47 -70 67 -70 18 0 23 30 26 174 3 166 7 170 104 100 83 -61 98 -67 123
-51 23 14 25 37 6 92 -34 96 -73 152 -194 274 -68 69 -129 139 -137 155 -13
29 -25 76 -45 171 -4 22 -11 55 -15 73 -6 27 -5 32 12 32 18 0 53 -32 53 -49
0 -16 154 -166 205 -201 28 -18 60 -42 72 -53 22 -20 43 -16 43 8 0 11 -43
101 -79 165 -5 8 -17 35 -27 60 -28 70 -65 117 -140 178 -41 34 -83 62 -94 62
-5 0 -10 5 -10 10 0 6 -6 10 -13 10 -47 0 -128 134 -202 333 -10 26 -22 50
-26 53 -5 3 -9 12 -9 21 0 8 -7 31 -16 51 -8 21 -21 51 -28 67 -42 97 -45 115
-18 115 18 0 62 -41 62 -58 0 -6 3 -12 8 -14 4 -1 25 -25 47 -53 22 -27 43
-51 48 -53 4 -2 7 -9 7 -15 0 -7 14 -26 30 -44 17 -18 30 -36 30 -42 0 -5 3
-11 8 -13 4 -1 25 -30 47 -63 38 -57 44 -66 73 -99 6 -8 12 -18 12 -21 0 -6
85 -125 105 -146 8 -9 15 -21 15 -27 0 -7 5 -12 10 -12 6 0 10 -6 10 -12 0 -7
12 -27 28 -43 15 -17 32 -38 37 -47 6 -9 33 -49 61 -90 27 -40 53 -80 57 -88
4 -8 21 -37 37 -65 16 -27 34 -61 40 -75 6 -13 14 -27 18 -30 7 -5 32 -51 100
-185 20 -38 40 -71 44 -73 4 -2 8 -12 8 -22 0 -9 6 -23 14 -29 8 -7 17 -23 20
-36 4 -14 11 -25 16 -25 6 0 10 -9 10 -19 0 -11 5 -23 11 -26 5 -4 14 -17 19
-28 5 -12 23 -44 39 -72 58 -96 71 -134 71 -201 0 -35 -5 -84 -12 -108 -13
-48 -5 -91 34 -173 23 -51 56 -57 90 -18 27 31 46 32 53 2 14 -62 28 -163 35
-257 4 -58 13 -118 19 -133 6 -16 11 -43 11 -60 0 -18 7 -45 15 -61 8 -15 15
-32 15 -38 0 -9 10 -23 43 -59 9 -10 17 -21 17 -24 0 -16 59 -54 84 -55 25 0
28 3 23 23 -15 57 -40 157 -50 202 -7 28 -15 55 -18 60 -4 6 -10 35 -14 65 -4
30 -11 60 -15 65 -4 6 -10 26 -13 45 -5 39 -22 90 -43 133 -8 16 -14 35 -14
42 0 8 -7 31 -16 52 -9 21 -24 54 -32 73 -8 19 -19 42 -24 50 -4 8 -11 22 -14
30 -3 8 -10 22 -15 30 -5 8 -12 22 -15 30 -3 8 -16 38 -29 65 -21 46 -33 74
-64 148 -27 68 3 63 66 -10 26 -31 55 -63 63 -72 33 -36 80 -99 80 -109 0 -5
6 -15 14 -21 8 -7 18 -38 21 -69 11 -95 25 -135 58 -164 17 -16 42 -28 57 -28
35 0 63 -25 95 -86 14 -27 39 -71 56 -99 16 -27 34 -59 39 -70 6 -11 14 -27
19 -35 40 -70 44 -86 43 -159 -1 -86 22 -182 48 -206 20 -18 46 -22 72 -10 13
5 38 -14 100 -78 90 -91 134 -120 176 -115 24 3 27 8 30 44 2 28 -2 47 -12 57
-9 9 -16 19 -16 23 0 19 -142 134 -167 134 -8 0 -21 6 -29 13 -57 46 -80 79
-134 192 -66 135 -67 146 -12 160 31 7 82 52 82 72 0 7 -19 26 -42 43 -35 26
-50 30 -103 30 -60 0 -64 2 -104 41 -22 23 -41 46 -41 52 0 5 -11 25 -25 43
-14 18 -25 37 -25 43 0 5 -6 14 -13 18 -8 4 -17 15 -21 23 -10 22 -27 49 -67
110 -20 30 -44 70 -54 87 l-19 33 27 28 c32 33 34 62 7 87 -11 10 -20 15 -20
10 0 -4 -6 -3 -13 3 -8 7 -25 7 -56 -1 l-43 -12 -78 85 c-43 47 -82 88 -86 92
-120 101 -192 197 -197 264 -2 26 3 30 53 48 65 23 72 31 66 73 -9 62 -63 93
-161 93 -54 0 -68 4 -94 26 -17 14 -31 29 -31 34 0 11 -151 243 -185 284 -18
21 -35 51 -41 68 -4 10 -10 18 -14 18 -4 0 -25 27 -46 60 -21 33 -42 60 -46
60 -4 0 -8 6 -8 13 0 8 -9 25 -20 38 -12 12 -47 62 -78 109 -31 47 -65 94 -74
104 -10 11 -30 38 -45 60 -15 23 -30 43 -33 46 -13 13 -70 89 -70 94 0 3 -12
18 -27 34 -16 16 -35 39 -43 51 -8 13 -22 31 -30 41 -8 9 -33 39 -55 65 -22
26 -44 53 -50 59 -5 6 -32 38 -60 71 -27 33 -62 71 -76 85 -14 14 -41 45 -60
70 -19 24 -45 56 -58 70 -13 14 -44 52 -69 85 -25 33 -63 79 -86 102 -28 30
-37 46 -29 54 7 7 30 -3 77 -35 36 -25 70 -46 75 -46 5 0 11 -4 13 -9 3 -9
226 -161 237 -161 3 0 21 -14 40 -30 18 -17 37 -30 42 -30 4 0 44 -25 89 -55
45 -30 83 -55 85 -55 2 0 32 -19 67 -43 35 -23 76 -49 92 -57 42 -22 108 -101
130 -156 11 -27 29 -70 41 -96 12 -25 25 -58 29 -72 3 -14 11 -26 16 -26 6 0
10 -6 10 -13 0 -7 20 -44 45 -81 25 -38 45 -73 45 -77 0 -5 4 -9 9 -9 5 0 12
-8 15 -18 4 -10 46 -58 94 -107 94 -94 213 -181 237 -171 18 7 20 59 2 78 -6
7 -21 31 -32 52 -11 22 -30 50 -42 64 -12 13 -25 34 -29 45 -4 12 -12 27 -18
34 -26 29 -36 42 -36 47 0 3 -20 35 -45 72 -25 36 -45 68 -45 70 0 3 -11 20
-25 38 -26 34 -32 61 -15 71 5 3 35 -7 67 -22 42 -20 88 -58 168 -139 90 -90
219 -194 242 -194 3 0 38 -20 77 -45 40 -25 78 -45 84 -45 7 0 12 -4 12 -9 0
-5 10 -13 23 -17 12 -4 38 -17 57 -29 19 -12 71 -36 115 -52 138 -53 223 -66
258 -39 28 21 11 49 -69 111 -21 17 -50 41 -64 55 -14 14 -46 41 -70 59 -25
19 -52 42 -61 50 -57 55 -121 89 -299 161 -58 23 -118 48 -133 56 -16 8 -38
14 -49 14 -11 0 -32 6 -46 13 -15 8 -42 21 -60 30 -19 9 -37 17 -42 17 -5 0
-35 17 -67 39 -32 21 -69 42 -83 46 -14 4 -27 11 -30 14 -5 7 -34 23 -145 79
-27 15 -66 39 -86 54 -20 15 -42 28 -48 28 -6 0 -33 16 -61 36 -81 58 -68 77
70 94 52 7 149 16 215 20 136 9 203 23 258 57 31 20 37 29 37 58 0 18 -6 37
-12 42 -7 4 -94 11 -193 15 -99 4 -206 10 -238 14 -41 4 -69 1 -98 -10 -21 -9
-52 -16 -67 -16 -15 0 -36 -7 -46 -15 -11 -8 -28 -15 -38 -15 -10 0 -18 -4
-18 -10 0 -5 -6 -10 -14 -10 -8 0 -21 -6 -28 -13 -15 -13 -45 -33 -64 -43 -7
-3 -41 13 -78 35 -36 23 -69 41 -73 41 -16 0 -133 105 -133 120 0 12 58 26
140 35 36 3 79 10 95 15 17 4 57 16 90 25 143 41 205 71 205 100 0 30 -20 34
-121 24 -46 -4 -131 -8 -189 -8 -120 -1 -228 -23 -280 -58 -65 -43 -164 -26
-231 39 -18 18 -183 127 -229 151 -19 11 -42 25 -51 33 -8 8 -19 14 -22 14 -8
0 -6 -2 -153 141 -60 58 -131 123 -159 144 -27 22 -59 49 -70 60 -11 11 -49
42 -85 70 -36 27 -81 65 -100 85 -20 19 -63 57 -95 85 -67 56 -105 88 -144
125 -15 14 -47 41 -71 60 -25 19 -67 55 -95 81 -27 26 -65 59 -82 74 -50 41
-44 55 23 55 31 0 70 -6 87 -14 18 -8 53 -17 79 -21 26 -3 50 -10 53 -16 4 -5
19 -9 34 -9 32 0 105 -31 137 -57 11 -10 42 -47 69 -82 27 -35 68 -83 92 -107
38 -39 49 -44 88 -44 55 0 67 18 63 92 l-3 53 62 3 c86 4 173 -33 249 -105 25
-24 50 -43 55 -43 5 0 9 -3 9 -8 0 -8 49 -36 92 -51 21 -8 32 -6 50 9 21 16
22 21 11 50 -18 47 -9 57 54 62 46 4 61 10 80 32 13 15 23 31 23 35 0 20 -54
64 -96 78 l-46 16 6 49 c9 62 -3 78 -56 78 -39 0 -118 -35 -118 -52 0 -4 -6
-8 -13 -8 -8 0 -22 -10 -33 -21 -33 -38 -96 -79 -121 -79 -35 0 -38 23 -9 69
31 49 32 53 6 76 -32 29 -102 14 -157 -33 -85 -71 -72 -68 -191 -38 -142 35
-275 81 -280 95 -2 6 10 27 27 47 17 19 31 44 31 54 0 33 -36 60 -79 60 -52 0
-78 -11 -126 -54 -57 -52 -92 -60 -212 -47 -54 6 -117 18 -137 26 -34 15 -193
118 -206 134 -3 3 -32 24 -65 46 -33 22 -62 42 -65 45 -12 13 -271 180 -325
210 -33 18 -77 44 -98 57 -20 13 -68 40 -105 60 -37 20 -92 49 -122 66 -172
93 -253 135 -415 216 -182 90 -249 121 -258 121 -3 0 -36 14 -74 31 -104 47
-117 52 -273 113 -80 32 -154 61 -165 66 -101 48 -794 280 -910 305 -50 11
-115 37 -115 46 0 14 199 10 270 -6 36 -8 99 -14 141 -15 42 0 89 -5 105 -10
16 -6 81 -14 144 -20 63 -5 160 -16 215 -24 55 -8 136 -20 180 -26 44 -6 84
-16 90 -21 5 -5 26 -9 48 -9 42 0 163 -27 187 -41 8 -5 23 -12 33 -15 9 -4 17
-9 17 -13 0 -7 15 -28 68 -93 18 -23 37 -48 42 -57 4 -9 26 -26 49 -38 39 -21
41 -21 63 -3 17 14 24 32 28 76 l5 59 53 3 c30 2 59 -1 65 -6 7 -5 35 -12 64
-16 75 -9 116 -30 148 -73 16 -21 32 -40 36 -43 3 -3 9 -15 13 -27 4 -13 12
-23 17 -23 5 0 9 -6 9 -14 0 -8 7 -16 15 -20 8 -3 15 -11 15 -17 0 -18 47 -57
88 -75 45 -18 71 -7 91 37 12 27 11 36 -4 70 -15 31 -15 41 -5 54 14 16 55 20
64 6 4 -5 24 -12 46 -16 22 -4 42 -10 45 -15 3 -4 21 -11 40 -14 21 -4 35 -13
35 -21 0 -8 4 -15 10 -15 5 0 13 -12 16 -27 11 -43 32 -73 97 -135 47 -46 67
-58 91 -58 44 1 70 39 63 92 -3 22 -3 47 0 54 6 16 59 19 68 4 3 -5 21 -10 38
-10 18 0 41 -7 51 -15 11 -8 29 -15 40 -15 12 0 29 -7 39 -15 20 -14 57 -78
57 -96 0 -18 60 -89 76 -89 8 0 14 -4 14 -10 0 -5 6 -10 13 -10 22 0 67 24 67
37 0 28 91 26 137 -4 12 -8 37 -13 55 -11 29 3 33 7 36 34 2 18 -3 38 -12 46
-24 25 -22 42 12 76 33 34 41 72 19 91 -8 6 -36 16 -63 22 -52 12 -112 -1
-243 -49 -61 -22 -82 -18 -191 37 -61 30 -70 47 -42 77 50 53 55 102 15 134
-41 32 -87 22 -179 -39 -58 -38 -88 -51 -115 -51 -43 0 -97 17 -121 38 -17 14
-15 18 18 63 19 27 38 64 41 82 4 29 0 39 -23 61 -42 38 -83 42 -154 16 -33
-12 -60 -26 -60 -31 0 -4 -8 -10 -17 -13 -10 -3 -38 -24 -63 -46 -25 -22 -51
-40 -59 -40 -13 0 -67 13 -203 51 -21 5 -38 15 -38 21 0 6 12 27 27 47 60 78
22 171 -70 171 -49 0 -92 -25 -120 -70 -47 -76 -76 -103 -107 -97 -14 3 -61
12 -105 21 -164 31 -245 58 -245 83 0 7 16 33 35 59 44 58 47 104 9 139 -53
49 -117 19 -186 -84 -37 -56 -44 -64 -63 -83 -13 -13 -28 -17 -45 -14 -38 9
-226 43 -305 56 -38 6 -140 16 -225 21 -167 9 -305 24 -385 40 -27 6 -203 15
-390 20 -187 5 -383 13 -435 18 -127 12 -671 119 -688 135 -11 12 22 35 59 41
21 4 41 10 44 15 3 4 21 11 40 14 19 4 35 11 35 16 0 6 27 10 60 10 33 0 60
-4 60 -9 0 -5 14 -12 30 -16 17 -4 30 -11 30 -15 0 -5 16 -12 35 -16 19 -3 38
-10 41 -15 3 -5 15 -9 27 -9 12 0 36 -7 52 -16 44 -23 243 -22 315 1 30 10 62
22 70 27 8 5 22 11 32 14 18 7 28 35 21 62 -5 20 -72 37 -194 48 -81 7 -169
40 -169 63 0 11 20 26 55 42 30 13 55 27 55 32 0 4 6 7 13 7 28 0 237 242 237
275 0 3 11 23 25 45 44 70 25 96 -48 65 -74 -31 -112 -50 -122 -61 -5 -6 -30
-26 -55 -45 -25 -18 -57 -45 -71 -59 -15 -14 -43 -39 -62 -56 -36 -31 -87
-111 -87 -136 0 -19 -56 -66 -105 -89 -69 -32 -199 -79 -217 -79 -27 0 -22 32
15 86 18 27 52 89 76 138 41 85 43 91 31 125 -15 42 -25 51 -61 51 -41 0 -172
-141 -195 -212 -4 -10 -10 -18 -14 -18 -5 0 -11 -13 -15 -30 -4 -16 -11 -32
-16 -35 -5 -4 -9 -16 -9 -28 0 -12 -7 -35 -15 -51 -8 -15 -15 -35 -15 -43 0
-21 -35 -63 -68 -82 -37 -22 -335 -21 -482 2 -58 9 -159 18 -225 22 -66 3
-147 10 -180 15 -33 6 -239 10 -458 11 -305 0 -397 3 -394 12 4 13 103 67 123
67 7 0 27 8 46 17 56 28 64 31 106 43 40 10 119 0 147 -20 21 -15 135 -32 170
-26 38 7 85 48 85 73 0 7 -26 38 -57 68 -55 54 -56 56 -37 73 10 9 39 27 64
40 25 13 59 32 75 42 17 11 39 24 50 30 11 5 27 14 35 18 44 25 62 32 82 32
25 0 80 -18 115 -38 12 -7 30 -12 40 -12 10 0 38 -7 63 -16 31 -11 64 -14 106
-11 111 10 154 41 154 110 0 42 -2 45 -42 65 -24 12 -76 29 -115 38 -40 9 -73
19 -73 23 0 10 70 74 105 97 16 10 37 26 45 34 8 8 38 33 65 55 28 22 52 42
55 45 15 15 59 38 85 43 17 3 81 1 143 -5 118 -12 238 -1 268 25 69 57 70 77
6 131 -17 15 -44 21 -115 25 -77 5 -92 9 -92 23 0 14 138 163 199 215 25 21
98 33 141 23 22 -5 74 -10 115 -10 64 0 81 4 111 25 58 38 59 104 3 125 -14 6
-47 10 -73 10 -72 0 -79 15 -43 92 40 88 45 104 32 128 -8 15 -21 20 -49 20
-32 0 -45 -7 -80 -43z m67 -55 c-20 -45 -47 -80 -69 -87 -31 -10 -33 -1 -10
43 35 69 106 108 79 44z m103 -208 c28 -34 -55 -60 -97 -30 -18 14 -18 15 6
24 14 5 32 12 40 15 26 9 37 8 51 -9z m-583 -16 c14 -14 16 -114 3 -122 -4 -3
-11 -19 -14 -36 -15 -72 -51 -6 -45 82 5 73 28 104 56 76z m-456 -355 c14 -13
18 -31 18 -85 0 -68 -8 -92 -55 -162 -17 -26 -20 -27 -32 -10 -21 28 -18 232
4 256 20 22 41 23 65 1z m694 -40 c8 -3 14 -13 14 -23 0 -26 -83 -50 -170 -50
-108 0 -142 26 -72 56 66 30 174 38 228 17z m-2092 -112 c17 -27 -92 -179
-153 -214 -41 -24 -49 -6 -22 54 21 46 51 82 114 137 39 33 52 38 61 23z m849
-305 c-2 -38 -8 -76 -15 -85 -7 -9 -22 -33 -32 -53 -19 -37 -39 -48 -51 -28
-4 6 -7 49 -7 97 -1 87 -1 87 33 115 19 16 43 27 54 26 18 -3 20 -10 18 -72z
m-1460 -43 c-7 -60 -15 -117 -17 -128 -2 -11 -5 -26 -5 -32 -1 -7 -10 -13 -21
-13 -18 0 -20 7 -20 73 1 92 39 207 69 207 4 0 1 -48 -6 -107z m2082 -33 c37
-31 -63 -67 -137 -51 -24 6 -55 12 -69 15 -36 8 -45 34 -16 46 31 14 203 6
222 -10z m-1428 -17 c5 -13 -45 -38 -133 -67 -35 -12 -75 -16 -130 -14 -73 3
-79 5 -82 25 -4 30 39 51 120 59 35 3 65 8 68 10 10 11 154 -1 157 -13z m2843
-69 c0 -10 -45 -62 -99 -116 -84 -84 -104 -99 -127 -96 -15 2 -29 9 -32 16 -3
11 77 96 130 137 7 6 31 25 53 43 43 35 75 42 75 16z m-6486 -42 c8 -14 -47
-116 -105 -193 -30 -40 -67 -91 -84 -114 -63 -88 -83 -111 -195 -225 -106
-108 -173 -160 -188 -146 -17 18 53 193 94 233 8 8 14 19 14 24 0 6 6 16 13
23 16 18 52 59 112 131 27 33 65 74 84 90 19 17 41 38 50 48 8 9 21 17 27 17
7 0 14 4 16 9 5 16 128 111 143 111 8 0 16 -4 19 -8z m5911 -19 c-4 -10 -11
-29 -15 -43 -13 -41 -86 -161 -102 -168 -5 -2 -8 -9 -8 -16 0 -7 -8 -22 -17
-34 -10 -11 -27 -32 -37 -46 -29 -40 -50 -34 -41 11 10 52 97 214 150 277 32
39 84 52 70 19z m-3467 -191 c3 -44 -21 -104 -56 -135 -53 -49 -55 46 -2 131
18 29 37 51 44 49 6 -2 12 -22 14 -45z m1908 7 c7 -6 11 -15 8 -20 -7 -12 -71
-11 -95 2 -17 9 -18 13 -8 26 15 17 71 12 95 -8z m-1413 -75 c113 -36 99 -64
-33 -64 -119 0 -225 42 -179 71 23 15 157 10 212 -7z m-1775 -92 c2 -15 -2
-22 -12 -22 -11 0 -16 9 -16 26 0 31 23 28 28 -4z m5056 7 c34 -7 75 -18 93
-25 17 -8 47 -14 66 -14 43 0 65 -21 42 -40 -20 -17 -222 -20 -256 -4 -13 6
-46 21 -72 33 -53 24 -57 42 -11 52 46 10 74 10 138 -2z m-7301 -276 c3 -5 -2
-46 -9 -93 -15 -90 -13 -107 18 -237 21 -88 18 -117 -13 -133 -52 -29 -97 62
-85 173 4 34 11 98 15 142 8 87 33 155 56 155 7 0 16 -3 18 -7z m9397 -32 c0
-18 -45 -71 -61 -71 -4 0 -14 -3 -23 -6 -24 -9 -21 37 5 70 25 32 79 37 79 7z
m614 -140 c16 -18 16 -21 2 -43 -19 -29 -63 -62 -94 -72 -25 -8 -52 8 -52 31
0 20 52 91 70 96 34 10 58 6 74 -12z m-8141 3 c8 -8 -3 -34 -14 -34 -5 0 -9 9
-9 20 0 19 11 26 23 14z m-823 -32 c0 -28 -119 -81 -242 -108 -78 -18 -304
-21 -367 -7 -86 21 -17 60 129 74 195 18 373 39 378 44 9 9 102 6 102 -3z
m4956 -37 c18 -46 -35 -97 -62 -60 -20 27 4 75 38 75 10 0 21 -7 24 -15z
m4548 -61 c9 -3 16 -18 16 -32 0 -53 -104 -112 -171 -97 -36 8 -43 19 -29 44
28 54 136 103 184 85z m-988 -46 c48 -33 71 -88 37 -88 -21 0 -83 71 -83 94 0
21 8 20 46 -6z m-2998 -30 c21 -21 13 -48 -20 -68 -43 -27 -82 -23 -86 8 -7
50 72 94 106 60z m-835 -12 c9 -7 17 -18 17 -25 0 -15 -23 -14 -38 1 -13 13
-16 38 -4 38 4 0 15 -7 25 -14z m-6237 -171 c-14 -270 -24 -387 -34 -397 -30
-30 -79 119 -69 209 16 148 48 321 65 347 3 5 14 -2 25 -15 18 -22 19 -34 13
-144z m10680 44 c53 -51 70 -89 39 -89 -25 0 -60 27 -93 74 -60 83 -28 91 54
15z m772 39 c26 -26 -41 -78 -103 -78 -32 0 -34 28 -2 55 36 33 85 43 105 23z
m-3794 -109 c48 -22 38 -91 -18 -118 -36 -17 -106 -26 -140 -17 -14 3 -33 18
-42 32 -16 24 -16 26 6 49 13 14 29 25 37 25 7 0 13 4 13 9 0 6 19 14 43 19
59 14 72 14 101 1z m3545 -84 c44 -48 51 -65 24 -65 -38 0 -125 85 -106 104
16 16 44 3 82 -39z m706 -19 c16 -11 17 -17 7 -29 -18 -21 -56 -29 -87 -17
-31 12 -25 27 19 46 39 17 38 17 61 0z m-4630 -89 c59 -82 78 -131 59 -150 -9
-8 -75 26 -96 50 -35 39 -62 136 -42 156 12 11 49 -15 79 -56z m-6743 4 c13
-6 89 -13 171 -17 110 -4 147 -9 147 -19 0 -17 -17 -23 -120 -47 -190 -43
-303 -42 -361 4 l-24 18 28 25 c15 14 37 25 47 25 10 0 22 5 25 10 8 13 57 13
87 1z m8505 -3 c11 -15 33 -109 33 -140 0 -38 -32 -129 -43 -125 -22 7 -36 72
-36 168 -1 53 2 99 6 102 10 11 30 8 40 -5z m-915 -65 c27 -24 23 -56 -12 -76
-40 -24 -120 -33 -150 -17 l-23 12 38 37 c67 62 112 76 147 44z m-4672 -52
c27 -52 -4 -123 -90 -208 -35 -35 -69 -63 -75 -63 -7 0 -18 -7 -25 -15 -15
-18 -60 -20 -60 -2 0 14 26 90 39 115 5 9 12 24 15 32 3 8 10 22 15 30 5 8 12
22 16 30 26 64 68 99 117 100 27 0 40 -5 48 -19z m570 -79 c0 -34 -122 -100
-247 -133 -85 -22 -117 -21 -107 5 6 15 159 95 229 120 44 15 125 21 125 8z
m3779 -9 c19 -20 42 -58 64 -113 23 -53 27 -80 16 -107 -25 -65 -132 47 -150
157 -8 52 3 80 32 80 11 0 28 -8 38 -17z m-4949 -57 c27 -30 29 -60 6 -108
-29 -61 -158 -168 -203 -168 -27 0 -25 18 13 120 7 19 15 48 19 63 8 37 90
117 119 117 12 0 33 -11 46 -24z m6501 0 c44 -19 74 -47 113 -110 27 -42 56
-106 56 -122 0 -2 -8 -4 -18 -4 -10 0 -35 21 -55 48 -21 26 -60 74 -87 107
-28 32 -50 67 -50 77 0 22 -1 22 41 4z m-753 -86 c31 -26 16 -53 -44 -80 -48
-22 -124 -24 -131 -4 -5 16 46 62 93 84 50 23 54 23 82 0z m-4638 -113 c72
-32 90 -52 67 -75 -22 -22 -72 -19 -234 13 -138 28 -176 40 -194 61 -21 26 29
34 171 30 116 -4 143 -8 190 -29z m-1826 17 c35 -13 5 -103 -53 -162 -17 -16
-51 -42 -76 -56 -75 -45 -84 -18 -30 91 53 108 104 148 159 127z m-2810 -171
c10 -54 24 -129 32 -168 18 -88 18 -105 -2 -133 -20 -30 -29 -22 -48 41 -15
51 -31 349 -19 361 13 13 22 -10 37 -101z m2164 65 c28 -28 2 -89 -83 -203
-68 -89 -100 -117 -139 -119 -30 -1 -31 1 -34 41 -4 59 37 141 108 214 72 74
120 95 148 67z m6891 -61 c22 -45 25 -65 15 -91 -18 -46 -64 14 -64 82 0 66
20 70 49 9z m-5285 12 c16 -5 46 -9 66 -9 48 0 140 -26 186 -53 61 -36 70 -62
27 -78 -33 -12 -100 -1 -219 37 -223 71 -294 129 -144 117 30 -3 68 -9 84 -14z
m-2836 -29 c96 -36 -20 -71 -240 -71 -110 0 -146 4 -164 16 -30 20 -31 53 -1
65 32 14 364 6 405 -10z m2162 -95 c25 -3 49 -10 54 -15 6 -6 16 -10 24 -10
14 0 75 -24 102 -41 8 -5 22 -12 30 -15 8 -3 22 -10 30 -15 8 -5 25 -13 36
-18 12 -5 24 -17 27 -26 14 -36 -90 -46 -203 -20 -171 40 -300 98 -300 136 0
13 10 20 38 24 20 4 44 8 52 10 8 1 26 1 40 -1 14 -2 45 -6 70 -9z m8418 -85
c3 -62 -19 -130 -43 -130 -22 0 -28 42 -15 107 16 81 18 85 37 81 14 -2 19
-15 21 -58z m-2120 19 c29 -26 72 -94 72 -113 0 -25 -32 -28 -57 -4 -46 43
-77 138 -45 138 4 0 18 -9 30 -21z m2433 -72 c48 -17 99 -61 99 -87 0 -13 -9
-24 -26 -30 -32 -12 -75 6 -131 56 l-38 34 24 20 c27 23 26 23 72 7z m979 -2
c-7 -8 -16 -15 -21 -15 -5 0 -9 7 -9 15 0 9 9 15 21 15 18 0 19 -2 9 -15z
m-10366 -21 c28 -10 63 -23 78 -30 14 -8 33 -14 42 -14 9 0 16 -4 16 -10 0 -5
6 -10 14 -10 23 0 76 -50 76 -70 0 -31 -55 -34 -154 -10 -114 27 -214 65 -250
94 l-29 23 21 21 c28 28 110 30 186 6z m11326 -139 c0 -18 -79 -77 -98 -73
-24 5 -16 23 27 55 46 36 71 42 71 18z m-584 -127 c23 -26 45 -74 38 -81 -12
-12 -48 9 -84 51 -39 43 -47 62 -34 75 9 9 55 -17 80 -45z m-1412 -4 c9 -25 7
-142 -3 -149 -5 -3 -12 -19 -16 -35 -4 -17 -15 -35 -26 -40 -16 -9 -21 -7 -29
16 -11 28 -6 100 10 144 5 14 14 37 19 53 11 30 35 36 45 11z m2106 -14 c0 -5
-7 -10 -15 -10 -8 0 -15 5 -15 10 0 6 7 10 15 10 8 0 15 -4 15 -10z m-14490
-104 c0 -46 -8 -60 -27 -48 -30 20 -21 92 12 92 11 0 15 -12 15 -44z m12704
-44 c54 -19 73 -40 62 -67 -5 -15 -14 -17 -52 -11 -70 9 -128 64 -93 87 19 12
27 11 83 -9z m-11926 -84 c-7 -22 -99 -61 -155 -66 -66 -6 -69 9 -5 34 100 39
166 52 160 32z m11825 -295 c18 -51 23 -158 8 -168 -5 -3 -12 -18 -16 -34 -7
-34 -31 -47 -52 -29 -12 10 -14 27 -9 83 6 59 18 133 32 183 7 24 20 11 37
-35z m184 -42 c26 -39 29 -61 9 -61 -18 0 -76 66 -76 86 0 27 43 11 67 -25z
m1338 -580 c73 -55 82 -64 123 -117 31 -41 40 -64 24 -64 -9 0 -51 28 -70 47
-7 7 -18 13 -23 13 -6 0 -45 33 -86 74 -53 51 -74 78 -70 90 8 21 30 13 102
-43z m1691 -122 c14 -23 -19 -32 -136 -35 -67 -2 -138 -8 -158 -13 -20 -5 -66
-12 -102 -16 -61 -6 -125 -23 -178 -48 -16 -8 -26 -7 -34 1 -15 15 4 37 51 62
71 36 118 44 296 50 99 3 197 7 217 8 20 1 40 -3 44 -9z m-1916 -196 c0 -56
-59 -199 -105 -257 -20 -25 -26 -28 -39 -17 -25 21 -20 42 40 158 74 142 104
176 104 116z m-14850 -69 c0 -63 -18 -154 -31 -154 -15 0 -22 50 -15 120 7 83
13 100 32 93 10 -3 14 -22 14 -59z m1688 54 c-6 -16 -169 -99 -180 -92 -16 10
25 45 87 74 64 31 99 38 93 18z m-1433 -220 c-4 -13 -24 -49 -44 -81 -20 -32
-41 -68 -48 -80 -6 -13 -28 -40 -47 -62 -33 -37 -35 -38 -36 -16 0 20 39 105
63 136 4 6 24 36 44 68 23 36 44 57 56 57 14 0 17 -5 12 -22z m16246 -55 c29
-33 76 -103 153 -231 54 -90 64 -112 49 -112 -9 0 -103 102 -103 111 0 5 -13
22 -50 66 -5 7 -10 17 -10 22 0 5 -6 16 -13 23 -15 16 -67 122 -67 137 0 18
15 12 41 -16z m-1414 -40 c23 -34 50 -98 57 -138 3 -16 8 -40 12 -52 5 -17 2
-23 -10 -23 -22 0 -81 126 -91 193 -8 54 4 62 32 20z m1978 -148 c44 -14 116
-45 185 -78 156 -76 341 -247 266 -247 -17 0 -194 88 -231 115 -16 12 -37 25
-45 29 -27 13 -140 86 -150 96 -3 4 -21 16 -41 28 -19 12 -43 30 -53 41 -20
23 -12 46 13 35 9 -3 34 -12 56 -19z m-15730 -5 c35 -13 28 -29 -20 -46 -45
-16 -327 -25 -342 -11 -16 16 29 35 110 46 158 22 217 24 252 11z m14639 -327
c-8 -57 -24 -95 -43 -101 -11 -4 -13 5 -9 44 7 64 24 104 43 104 14 0 15 -8 9
-47z m382 -297 c33 -33 44 -51 44 -75 0 -54 -36 -33 -98 56 -50 72 -12 85 54
19z m564 -281 c15 -19 6 -45 -16 -45 -24 0 -85 40 -78 51 9 15 80 10 94 -6z
m-514 -259 c72 -80 94 -113 94 -146 0 -17 -3 -19 -19 -11 -28 15 -111 103
-111 117 0 7 -7 19 -15 27 -7 8 -17 26 -21 41 -10 43 18 32 72 -28z m-145 -28
c25 -46 50 -248 32 -248 -30 1 -52 68 -60 178 -6 87 5 114 28 70z m867 -611
c2 -15 -1 -27 -6 -27 -17 0 -34 29 -28 46 9 23 31 11 34 -19z m922 -922 c0 -7
-4 -16 -9 -20 -12 -6 -42 35 -35 47 8 12 44 -10 44 -27z"/>
</g>
</svg>
