<?xml version="1.0" standalone="no"?>
<!DOCTYPE svg PUBLIC "-//W3C//DTD SVG 20010904//EN"
 "http://www.w3.org/TR/2001/REC-SVG-20010904/DTD/svg10.dtd">
<svg version="1.0" xmlns="http://www.w3.org/2000/svg"
 width="297.000000pt" height="430.000000pt" viewBox="0 0 297.000000 430.000000"
 preserveAspectRatio="xMidYMid meet">

<g transform="translate(0.000000,430.000000) scale(0.100000,-0.100000)"
fill="#696969" stroke="none">
<path d="M635 4175 c-111 -75 -126 -106 -126 -261 0 -63 2 -118 5 -123 8 -12
-32 -71 -48 -71 -8 0 -29 -17 -48 -38 -18 -21 -72 -62 -119 -90 -48 -29 -100
-66 -117 -83 -76 -78 -105 -214 -106 -489 0 -210 13 -277 81 -399 l36 -64 -4
-306 -4 -306 30 -3 c30 -3 31 -4 43 -85 6 -45 19 -122 27 -172 14 -85 27 -457
39 -1175 4 -233 18 -396 36 -431 9 -16 34 -17 387 -14 282 3 406 0 489 -10 85
-11 135 -12 215 -4 228 22 366 22 554 0 173 -20 185 -20 320 -4 95 11 214 16
368 15 l228 -2 -19 28 c-10 15 -37 62 -59 104 -23 42 -66 109 -96 150 -30 40
-94 141 -143 223 -48 83 -123 204 -167 270 -92 139 -139 228 -162 308 -9 32
-35 97 -57 145 -29 63 -46 117 -59 195 -22 128 -46 185 -132 309 -35 51 -79
123 -97 160 -36 72 -77 119 -182 210 -85 73 -153 165 -174 234 -17 51 -17 58
0 130 10 42 39 138 64 213 72 217 69 339 -9 444 -27 35 -39 62 -39 84 0 32 1
33 38 31 47 -1 104 34 129 80 17 31 20 32 60 26 37 -5 43 -3 58 20 10 14 29
32 44 39 24 11 26 17 29 88 2 59 -1 79 -13 89 -8 7 -15 25 -15 40 0 34 -14 46
-76 65 -46 14 -51 14 -77 -6 l-27 -20 -66 31 c-61 30 -71 31 -137 25 -118 -11
-131 -17 -172 -92 -20 -36 -39 -79 -42 -95 -3 -16 -19 -39 -35 -51 -23 -17
-28 -26 -23 -48 3 -15 6 -50 7 -78 0 -47 2 -52 26 -57 66 -14 78 -21 96 -59
11 -21 21 -59 24 -85 4 -42 -1 -56 -41 -126 -54 -92 -84 -128 -149 -172 -82
-56 -97 -118 -53 -214 18 -41 26 -79 31 -154 l7 -99 -60 -80 c-69 -92 -117
-145 -131 -145 -6 0 -14 9 -17 20 -4 13 -21 24 -52 31 l-45 12 7 101 c4 56 13
125 22 154 41 147 -23 590 -112 777 -51 105 -76 175 -64 175 15 0 2 52 -17 67
-14 10 -13 12 3 17 10 3 36 1 58 -4 68 -16 71 -15 110 65 22 45 42 75 52 75
13 0 14 9 9 53 -5 39 -3 57 8 72 9 11 16 37 16 59 0 32 3 38 19 33 14 -3 22 5
35 42 22 63 20 80 -11 93 -16 7 -44 24 -63 39 -87 66 -149 92 -229 97 -70 4
-79 2 -116 -23z m500 -2035 c-8 -16 -15 -38 -15 -49 0 -10 -23 -109 -51 -218
-42 -161 -53 -221 -59 -323 -5 -94 -13 -140 -31 -185 -21 -56 -23 -75 -24
-285 -1 -144 -6 -245 -14 -280 -8 -30 -14 -125 -16 -210 -2 -117 -7 -166 -19
-200 -10 -25 -20 -78 -23 -118 l-6 -73 -46 7 c-74 10 -108 30 -114 67 -7 47
-1 258 12 378 6 57 24 307 41 554 26 372 36 472 59 579 15 71 32 131 39 134 8
2 10 20 6 58 -6 51 -6 54 20 64 15 5 41 10 58 10 32 0 68 24 68 44 0 10 104
73 123 75 4 1 1 -12 -8 -29z"/>
</g>
</svg>
