<?xml version="1.0" standalone="no"?>
<!DOCTYPE svg PUBLIC "-//W3C//DTD SVG 20010904//EN"
 "http://www.w3.org/TR/2001/REC-SVG-20010904/DTD/svg10.dtd">
<svg version="1.0" xmlns="http://www.w3.org/2000/svg"
 width="78.000000pt" height="51.000000pt" viewBox="0 0 78.000000 51.000000"
 preserveAspectRatio="xMidYMid meet">

<g transform="translate(0.000000,51.000000) scale(0.100000,-0.100000)"
fill="#696969" stroke="none">
<path d="M383 465 c-11 -8 -24 -26 -27 -40 -6 -22 -12 -25 -51 -25 l-45 0 0
-200 0 -200 223 0 c279 0 261 -12 265 167 2 69 1 141 -3 160 -8 45 -38 73 -75
73 -20 0 -33 6 -37 18 -3 9 -15 27 -26 40 -18 20 -30 22 -112 22 -64 0 -97 -4
-112 -15z m-23 -115 c0 -11 -6 -20 -14 -20 -18 0 -29 16 -21 30 11 18 35 11
35 -10z m210 -2 c116 -59 118 -221 5 -285 -67 -38 -143 -25 -196 33 -61 67
-59 161 5 223 56 54 117 63 186 29z"/>
<path d="M464 342 c-12 -2 -39 -18 -59 -35 -32 -28 -38 -40 -42 -83 -8 -78 27
-133 97 -151 74 -20 149 24 171 98 28 93 -64 187 -167 171z m86 -37 c34 -17
60 -62 60 -100 0 -99 -124 -149 -192 -77 -39 40 -45 89 -16 132 39 58 92 74
148 45z"/>
<path d="M110 430 c0 -5 25 -10 55 -10 30 0 55 5 55 10 0 6 -25 10 -55 10 -30
0 -55 -4 -55 -10z"/>
<path d="M70 380 c-11 -11 -20 -23 -20 -27 0 -5 -1 -77 -1 -161 -1 -192 -1
-192 113 -192 l78 0 0 200 0 200 -75 0 c-62 0 -79 -4 -95 -20z"/>
</g>
</svg>
