<?xml version="1.0" standalone="no"?>
<!DOCTYPE svg PUBLIC "-//W3C//DTD SVG 20010904//EN"
 "http://www.w3.org/TR/2001/REC-SVG-20010904/DTD/svg10.dtd">
<svg version="1.0" xmlns="http://www.w3.org/2000/svg"
 width="1024.000000pt" height="951.000000pt" viewBox="0 0 1024.000000 951.000000"
 preserveAspectRatio="xMidYMid meet">

<g transform="translate(0.000000,951.000000) scale(0.100000,-0.100000)"
fill="#696969" stroke="none">
<path d="M2456 9489 c-520 -67 -959 -247 -1381 -568 -129 -97 -389 -357 -486
-486 -219 -288 -374 -588 -472 -915 -122 -403 -147 -867 -76 -1365 132 -923
548 -1669 1414 -2539 214 -215 432 -416 973 -893 797 -704 997 -889 1372
-1269 453 -460 797 -865 1118 -1316 l97 -137 106 -1 105 0 84 123 c568 830
1113 1419 2260 2442 609 542 767 687 1082 989 638 612 1057 1175 1303 1752
269 628 353 1408 219 2013 -115 515 -354 961 -719 1340 -363 376 -804 632
-1311 762 -253 64 -399 81 -689 81 -204 0 -276 -3 -390 -21 -751 -113 -1387
-494 -1843 -1103 -52 -71 -98 -128 -103 -128 -4 0 -36 39 -71 88 -438 608
-1082 1011 -1805 1132 -125 21 -401 40 -553 39 -47 -1 -152 -10 -234 -20z"/>
</g>
</svg>
