<?xml version="1.0" standalone="no"?>
<!DOCTYPE svg PUBLIC "-//W3C//DTD SVG 20010904//EN"
 "http://www.w3.org/TR/2001/REC-SVG-20010904/DTD/svg10.dtd">
<svg version="1.0" xmlns="http://www.w3.org/2000/svg"
 width="512.000000pt" height="512.000000pt" viewBox="0 0 512.000000 512.000000"
 preserveAspectRatio="xMidYMid meet">

<g transform="translate(0.000000,512.000000) scale(0.100000,-0.100000)"
fill="#696969" stroke="none">
<path d="M2086 4785 c-173 -44 -310 -180 -361 -359 -13 -45 -16 -83 -13 -155
6 -113 29 -176 93 -266 65 -90 622 -641 667 -660 48 -19 128 -19 176 0 43 18
585 553 658 649 74 97 104 186 104 307 0 138 -53 260 -156 359 -111 107 -258
155 -408 133 -82 -11 -186 -55 -246 -103 l-39 -31 -64 45 c-36 24 -91 54 -124
66 -76 28 -207 35 -287 15z"/>
<path d="M1382 3939 c-170 -28 -323 -122 -418 -255 -27 -37 -103 -190 -188
-376 l-143 -313 -204 -5 c-227 -6 -251 -12 -296 -80 -43 -63 -23 -167 41 -213
26 -19 48 -23 141 -27 l110 -5 -160 -163 c-268 -272 -268 -272 -263 -833 4
-378 5 -396 26 -453 33 -88 69 -145 131 -206 58 -57 154 -114 225 -135 l41
-12 5 -159 c5 -140 8 -164 28 -202 35 -66 88 -119 150 -149 l57 -28 235 0
c268 0 299 6 378 78 87 81 112 157 112 337 l0 110 1169 0 1169 0 5 -137 c3
-96 10 -153 22 -186 24 -65 102 -149 167 -178 51 -23 62 -24 293 -24 l240 0
57 28 c62 30 115 83 150 149 20 38 23 62 28 202 l5 159 40 12 c163 48 290 167
353 331 l27 69 3 396 c4 446 0 477 -66 603 -29 55 -71 106 -196 233 l-159 163
98 0 c151 0 205 38 213 149 3 46 0 62 -20 90 -46 69 -69 75 -297 81 l-205 5
-142 312 c-154 340 -198 413 -295 492 -118 95 -238 138 -409 148 l-105 5 -29
-48 c-17 -27 -104 -124 -195 -216 l-165 -168 265 0 c199 -1 274 -4 304 -15 76
-26 105 -74 271 -440 163 -360 172 -389 134 -438 -27 -34 -54 -41 -250 -71
-885 -135 -1739 -135 -2620 0 -91 14 -180 30 -197 35 -44 14 -73 53 -73 98 0
47 294 699 341 755 60 72 79 76 383 76 l269 0 -164 168 c-91 92 -178 188 -194
214 l-30 48 -75 -1 c-41 -1 -99 -5 -128 -10z m-568 -2031 c53 -16 118 -81 134
-134 6 -23 12 -81 12 -130 0 -105 -18 -153 -73 -201 -51 -45 -96 -55 -218 -51
-96 3 -109 6 -145 30 -21 15 -50 44 -64 65 -23 33 -25 48 -28 154 -3 101 -1
122 16 155 25 48 66 88 112 108 43 19 196 21 254 4z m3744 -4 c47 -19 88 -58
114 -108 17 -33 19 -54 16 -155 -3 -106 -5 -121 -28 -154 -14 -21 -43 -50 -64
-65 -36 -25 -48 -27 -156 -30 -102 -3 -123 -1 -156 16 -50 26 -89 67 -108 114
-19 44 -22 193 -5 252 13 47 85 121 131 135 55 16 214 13 256 -5z m-798 -116
c48 -33 72 -70 77 -120 7 -58 -23 -118 -74 -149 l-38 -24 -1165 0 -1165 0 -38
24 c-51 31 -81 91 -74 149 5 50 29 87 77 120 l33 22 1167 0 1167 0 33 -22z"/>
</g>
</svg>
